<svg xmlns="http://www.w3.org/2000/svg" width="312.953" height="239.43" viewBox="0 0 312.953 239.43">
  <g id="Brand-Groway-004" transform="translate(-0.749)">
    <path id="Trazado_16" data-name="Trazado 16" d="M79.864,220.342a47.483,47.483,0,0,0-6.356-2.152,41.823,41.823,0,0,1-4.63-1.472,7.95,7.95,0,0,1-2.792-1.841,4.132,4.132,0,0,1-1.1-2.962,4.945,4.945,0,0,1,1.745-4.066,7.022,7.022,0,0,1,4.519-1.417,7.572,7.572,0,0,1,4.924,1.527,5.133,5.133,0,0,1,2.039,3.68h7.128A10.575,10.575,0,0,0,81.3,203.8a14.753,14.753,0,0,0-9.351-2.852,17.167,17.167,0,0,0-7.055,1.362,10.726,10.726,0,0,0-4.74,3.9,10.536,10.536,0,0,0-1.69,5.943,9.492,9.492,0,0,0,1.69,5.888,10.293,10.293,0,0,0,4.1,3.257,44.238,44.238,0,0,0,6.246,2.06,43.428,43.428,0,0,1,4.777,1.472,7.749,7.749,0,0,1,2.884,1.932,4.557,4.557,0,0,1,1.157,3.221,5.272,5.272,0,0,1-1.855,4.158,7.719,7.719,0,0,1-5.2,1.619,7.111,7.111,0,0,1-5-1.638,6.157,6.157,0,0,1-2-4.195H58.369a10.062,10.062,0,0,0,1.8,5.943,11.741,11.741,0,0,0,4.979,3.938,17.634,17.634,0,0,0,7.11,1.38,15.294,15.294,0,0,0,7.257-1.62A11.506,11.506,0,0,0,84.2,235.3a10.807,10.807,0,0,0,1.617-5.648,9.458,9.458,0,0,0-1.727-5.961A10.831,10.831,0,0,0,79.864,220.342Z" transform="translate(-0.504 -1.759)" fill="#17201e"/>
    <path id="Trazado_17" data-name="Trazado 17" d="M91.637,206.712h10.508V240.77h6.448V206.712h10.454V201.45H91.637Z" transform="translate(-0.796 -1.763)" fill="#17201e"/>
    <path id="Trazado_18" data-name="Trazado 18" d="M150.025,226.51c0,2.981-.79,5.226-2.351,6.735a10.609,10.609,0,0,1-13.1,0c-1.561-1.509-2.351-3.754-2.351-6.735V201.45h-6.448V226.4a15.38,15.38,0,0,0,2.039,8.151,12.779,12.779,0,0,0,5.511,4.986,19.041,19.041,0,0,0,15.451,0,12.844,12.844,0,0,0,5.585-4.986,15.065,15.065,0,0,0,2.094-8.151V201.45h-6.449v25.06Z" transform="translate(-1.094 -1.763)" fill="#17201e"/>
    <path id="Trazado_19" data-name="Trazado 19" d="M188.968,203.842a23.923,23.923,0,0,0-10.986-2.41H165.159v39.319h12.823a24.335,24.335,0,0,0,10.986-2.355,17.171,17.171,0,0,0,7.294-6.752,20.128,20.128,0,0,0,2.572-10.414,20.819,20.819,0,0,0-2.572-10.487A17.291,17.291,0,0,0,188.968,203.842Zm-.422,27.93q-3.665,3.726-10.564,3.735h-6.375V206.712h6.375q6.89,0,10.564,3.845t3.675,10.691C192.22,225.774,191.007,229.288,188.545,231.772Z" transform="translate(-1.439 -1.763)" fill="#17201e"/>
    <path id="Trazado_20" data-name="Trazado 20" d="M212.028,201.45H205.58v39.32h6.448Z" transform="translate(-1.793 -1.763)" fill="#17201e"/>
    <path id="Trazado_21" data-name="Trazado 21" d="M248.644,203.506a21.147,21.147,0,0,0-20.227,0,19.2,19.2,0,0,0-7.293,7.158,21.379,21.379,0,0,0,0,20.736,19.159,19.159,0,0,0,7.293,7.194,21.147,21.147,0,0,0,20.227,0A18.7,18.7,0,0,0,255.9,231.4a20.472,20.472,0,0,0,2.664-10.377,20.179,20.179,0,0,0-2.664-10.359A18.853,18.853,0,0,0,248.644,203.506Zm1.579,25.171a12.421,12.421,0,0,1-4.776,5.1,14.4,14.4,0,0,1-13.888,0,12.416,12.416,0,0,1-4.777-5.1A16.286,16.286,0,0,1,225.056,221a16.083,16.083,0,0,1,1.727-7.637,12.165,12.165,0,0,1,4.777-5.041,14.67,14.67,0,0,1,13.888,0,12.282,12.282,0,0,1,4.776,5.041,17.82,17.82,0,0,1,0,15.309Z" transform="translate(-1.905 -1.759)" fill="#17201e"/>
    <path id="Trazado_22" data-name="Trazado 22" d="M48.523,231.947a4.738,4.738,0,1,0,4.74,4.729A4.724,4.724,0,0,0,48.523,231.947Z" transform="translate(-0.377 -2.03)" fill="#17201e"/>
    <path id="Trazado_23" data-name="Trazado 23" d="M48.146,191.954V144.98H38.52V151.7a18.279,18.279,0,0,0-6.485-5.318,20.525,20.525,0,0,0-9.5-2.134,20.968,20.968,0,0,0-11,2.981,21.194,21.194,0,0,0-7.881,8.353,25.184,25.184,0,0,0-2.9,12.309,26.324,26.324,0,0,0,2.884,12.456,21.635,21.635,0,0,0,7.881,8.556,20.629,20.629,0,0,0,11,3.054,19.6,19.6,0,0,0,9.424-2.226,19.343,19.343,0,0,0,6.577-5.5v7.709c0,4.472-1.194,7.893-3.564,10.231a12.669,12.669,0,0,1-9.333,3.514,15.68,15.68,0,0,1-8.506-2.226,10.278,10.278,0,0,1-4.648-5.832H3.008a16.272,16.272,0,0,0,7.036,11.959c4.134,2.944,9.314,4.4,15.579,4.4a24.4,24.4,0,0,0,12.107-2.852,19.4,19.4,0,0,0,7.753-7.838A23.469,23.469,0,0,0,48.146,191.954ZM36.554,176.388A13.792,13.792,0,0,1,31.41,181.8a13.458,13.458,0,0,1-6.871,1.84,13.214,13.214,0,0,1-6.834-1.9,13.919,13.919,0,0,1-5.2-5.5,17.362,17.362,0,0,1-1.966-8.39,16.6,16.6,0,0,1,1.966-8.261,13.55,13.55,0,0,1,5.144-5.281,13.744,13.744,0,0,1,6.871-1.8,13.45,13.45,0,0,1,6.871,1.841,13.8,13.8,0,0,1,5.144,5.373,18.731,18.731,0,0,1,.018,16.67Z" transform="translate(0 -1.263)" fill="#17201e"/>
    <path id="Trazado_24" data-name="Trazado 24" d="M70.794,166.874c0-4.692.955-8,2.884-9.9s4.758-2.852,8.506-2.852H84.61v-9.9a16.535,16.535,0,0,0-8.249,1.969,14.933,14.933,0,0,0-5.567,5.5v-6.716H61.242V191.2h9.553Z" transform="translate(-0.53 -1.262)" fill="#17201e"/>
    <path id="Trazado_25" data-name="Trazado 25" d="M101.86,188.972a23.586,23.586,0,0,0,11.813,2.981,24.958,24.958,0,0,0,12.106-2.981,22.213,22.213,0,0,0,8.671-8.427,24.442,24.442,0,0,0,3.178-12.494,24.706,24.706,0,0,0-3.1-12.493,21.431,21.431,0,0,0-8.45-8.39,25.839,25.839,0,0,0-23.956,0,21.191,21.191,0,0,0-8.45,8.39,24.952,24.952,0,0,0-3.1,12.493,25.391,25.391,0,0,0,3.013,12.53A21.391,21.391,0,0,0,101.86,188.972Zm.257-29.439a12.6,12.6,0,0,1,4.979-5.244,13.711,13.711,0,0,1,6.834-1.766,13.949,13.949,0,0,1,6.871,1.766,13.118,13.118,0,0,1,5.107,5.244,17.331,17.331,0,0,1,1.929,8.519,17.032,17.032,0,0,1-2,8.555,13.4,13.4,0,0,1-5.236,5.281,14.149,14.149,0,0,1-6.908,1.765,12.59,12.59,0,0,1-9.589-4.066q-3.8-4.056-3.8-11.536A17.767,17.767,0,0,1,102.117,159.533Z" transform="translate(-0.786 -1.262)" fill="#17201e"/>
    <path id="Trazado_26" data-name="Trazado 26" d="M166.555,191.2l9.3-34.132,9.3,34.132H195.2l14.311-46.22h-9.369l-9.553,37-9.388-37h-9.957l-9.81,37.167L151.8,144.985h-9.719l14.422,46.22Z" transform="translate(-1.237 -1.269)" fill="#17201e"/>
    <path id="Trazado_27" data-name="Trazado 27" d="M251.84,151.7a19.308,19.308,0,0,0-6.485-5.318,20.208,20.208,0,0,0-9.5-2.134,20.976,20.976,0,0,0-11,2.981,21.192,21.192,0,0,0-7.881,8.353,25.606,25.606,0,0,0-2.885,12.328,26.33,26.33,0,0,0,2.885,12.456,21.767,21.767,0,0,0,7.826,8.555,21.4,21.4,0,0,0,20.447.865,19.019,19.019,0,0,0,6.614-5.447v6.881h9.626V144.979h-9.626V151.7Zm-1.966,24.692a13.8,13.8,0,0,1-5.144,5.409,13.459,13.459,0,0,1-6.871,1.84,13.214,13.214,0,0,1-6.834-1.9,13.919,13.919,0,0,1-5.2-5.5,17.36,17.36,0,0,1-1.966-8.39,16.6,16.6,0,0,1,1.966-8.261,13.553,13.553,0,0,1,5.144-5.281,13.746,13.746,0,0,1,6.871-1.8,13.45,13.45,0,0,1,6.87,1.841,13.8,13.8,0,0,1,5.145,5.373,18.73,18.73,0,0,1,.018,16.67Z" transform="translate(-1.867 -1.263)" fill="#17201e"/>
    <path id="Trazado_28" data-name="Trazado 28" d="M306.166,144.985,292.7,180.22l-12.988-35.235H269.075l18.17,45.464-9.369,22.484h9.884l28.291-67.949Z" transform="translate(-2.349 -1.269)" fill="#17201e"/>
    <path id="Trazado_29" data-name="Trazado 29" d="M119.749,112.366c-1.322.239-2.663.478-4,.736l-4.17.754-4.667-25.593,4.189-.773c28.347-5.17,50.76-9.273,63.565-16.872,9.2-5.465,14.2-12.751,10.655-32.162l25.554-4.673c5.052,27.673-2.461,47.047-22.964,59.227C171.813,102.541,148.775,107.048,119.749,112.366Z" transform="translate(-0.929 -0.296)" fill="#17201e"/>
    <path id="Trazado_30" data-name="Trazado 30" d="M196.551,1.49c1.323-.239,2.664-.478,4.006-.736L204.727,0l4.666,25.593-4.188.773c-28.348,5.17-50.76,9.273-63.565,16.872-9.2,5.465-14.2,12.751-10.655,32.162l-25.554,4.673c-5.052-27.673,2.461-47.047,22.963-59.227C144.488,11.3,167.524,6.808,196.551,1.49Z" transform="translate(-0.903)" fill="#17201e"/>
  </g>
</svg>
