<svg width="603" height="603" viewBox="0 0 603 603" fill="none" xmlns="http://www.w3.org/2000/svg">
<rect width="603" height="603" fill="#2E2B2B"/>
<path d="M209.826 432.708C207.661 431.769 204.843 430.789 201.371 429.85C198.757 429.156 196.715 428.502 195.203 427.89C193.692 427.278 192.467 426.461 191.487 425.44C190.506 424.42 190.016 423.113 190.016 421.48C190.016 419.112 190.792 417.316 192.344 416.091C193.896 414.825 195.898 414.213 198.349 414.213C201.044 414.213 203.25 414.907 204.884 416.254C206.518 417.602 207.457 419.235 207.58 421.154H217.056C216.688 416.744 214.932 413.274 211.705 410.743C208.478 408.211 204.312 406.946 199.288 406.946C195.734 406.946 192.589 407.558 189.894 408.742C187.198 409.926 185.074 411.682 183.603 413.927C182.092 416.173 181.357 418.826 181.357 421.807C181.357 425.073 182.092 427.645 183.603 429.605C185.115 431.564 186.912 432.993 189.036 433.932C191.16 434.871 193.937 435.77 197.327 436.668C200.023 437.362 202.147 438.015 203.659 438.627C205.17 439.24 206.477 440.097 207.498 441.2C208.519 442.302 209.05 443.731 209.05 445.486C209.05 447.732 208.233 449.569 206.559 450.998C204.925 452.427 202.597 453.121 199.656 453.121C196.796 453.121 194.591 452.386 192.998 450.957C191.405 449.487 190.547 447.65 190.343 445.405H181.193C181.193 448.426 182.01 451.039 183.603 453.284C185.196 455.53 187.402 457.285 190.22 458.51C193.039 459.735 196.184 460.347 199.697 460.347C203.414 460.347 206.599 459.653 209.336 458.224C212.073 456.795 214.156 454.917 215.586 452.549C217.015 450.182 217.71 447.691 217.71 445.037C217.71 441.73 216.934 439.077 215.422 437.117C213.87 435.116 211.991 433.647 209.826 432.708Z" fill="white"/>
<path d="M225.103 414.622H239.072V459.817H247.65V414.622H261.537V407.64H225.103V414.622Z" fill="white"/>
<path d="M302.302 440.914C302.302 444.874 301.281 447.855 299.197 449.855C297.114 451.856 294.214 452.876 290.456 452.876C286.739 452.876 283.839 451.897 281.797 449.855C279.714 447.855 278.693 444.874 278.693 440.914V407.64H270.115V440.751C270.115 444.997 271.014 448.59 272.811 451.57C274.608 454.509 277.059 456.714 280.122 458.184C283.186 459.654 286.617 460.348 290.375 460.348C294.132 460.348 297.564 459.613 300.668 458.184C303.772 456.714 306.264 454.55 308.102 451.57C309.94 448.63 310.879 444.997 310.879 440.751V407.64H302.302V440.914Z" fill="white"/>
<path d="M353.645 410.825C349.479 408.702 344.578 407.64 339.023 407.64H321.99V459.817H339.023C344.578 459.817 349.438 458.796 353.645 456.714C357.812 454.632 361.038 451.652 363.326 447.732C365.613 443.813 366.757 439.24 366.757 433.933C366.757 428.625 365.613 423.971 363.326 420.011C361.038 416.01 357.812 412.948 353.645 410.825ZM353.074 447.896C349.806 451.202 345.149 452.836 339.023 452.836H330.527V414.622H339.023C345.149 414.622 349.806 416.336 353.074 419.725C356.341 423.114 357.975 427.849 357.975 433.933C357.975 439.934 356.341 444.589 353.074 447.896Z" fill="white"/>
<path d="M383.831 407.64H375.253V459.817H383.831V407.64Z" fill="white"/>
<path d="M432.354 410.375C428.27 408.089 423.777 406.946 418.875 406.946C414.015 406.946 409.562 408.089 405.478 410.375C401.393 412.662 398.166 415.805 395.797 419.888C393.428 423.93 392.244 428.502 392.244 433.606C392.244 438.709 393.428 443.323 395.797 447.364C398.166 451.447 401.393 454.632 405.478 456.918C409.562 459.204 414.015 460.347 418.875 460.347C423.777 460.347 428.27 459.204 432.354 456.918C436.439 454.632 439.666 451.447 441.994 447.364C444.363 443.282 445.507 438.709 445.507 433.606C445.507 428.502 444.322 423.93 441.994 419.888C439.666 415.805 436.439 412.662 432.354 410.375ZM434.437 443.772C432.926 446.711 430.802 448.957 428.106 450.508C425.411 452.1 422.306 452.876 418.875 452.876C415.444 452.876 412.34 452.1 409.644 450.508C406.948 448.916 404.824 446.67 403.313 443.772C401.802 440.832 401.026 437.444 401.026 433.606C401.026 429.768 401.802 426.379 403.313 423.481C404.824 420.582 406.948 418.337 409.644 416.785C412.34 415.234 415.444 414.458 418.875 414.458C422.306 414.458 425.411 415.234 428.106 416.785C430.802 418.337 432.926 420.582 434.437 423.481C435.949 426.379 436.725 429.768 436.725 433.606C436.725 437.484 435.99 440.873 434.437 443.772Z" fill="white"/>
<path d="M168.327 447.773C164.855 447.773 162.037 450.59 162.037 454.061C162.037 457.531 164.855 460.348 168.327 460.348C171.799 460.348 174.617 457.531 174.617 454.061C174.617 450.59 171.799 447.773 168.327 447.773Z" fill="white"/>
<path d="M143.33 394.697V326.761H129.361V336.478C127.114 333.416 123.969 330.844 119.966 328.762C115.963 326.679 111.348 325.659 106.201 325.659C100.36 325.659 95.0504 327.088 90.2306 329.946C85.4108 332.803 81.6121 336.845 78.8346 342.03C76.0162 347.215 74.6274 353.176 74.6274 359.872C74.6274 366.567 76.0162 372.61 78.8346 377.876C81.6121 383.184 85.4108 387.307 90.2306 390.247C95.0504 393.227 100.36 394.697 106.201 394.697C111.307 394.697 115.841 393.635 119.844 391.472C123.847 389.349 127.033 386.695 129.361 383.51V394.656C129.361 401.107 127.645 406.047 124.214 409.476C120.783 412.906 116.249 414.58 110.694 414.58C105.915 414.58 101.831 413.518 98.3589 411.354C94.9278 409.231 92.6813 406.414 91.6193 402.944H77.8951C78.712 410.211 82.1022 415.968 88.1066 420.214C94.1109 424.46 101.627 426.583 110.694 426.583C117.475 426.583 123.357 425.195 128.217 422.459C133.119 419.724 136.836 415.927 139.45 411.109C142.023 406.333 143.33 400.821 143.33 394.697ZM126.502 372.201C124.582 375.631 122.131 378.244 119.027 380.04C115.963 381.837 112.614 382.694 109.061 382.694C105.589 382.694 102.28 381.796 99.1758 379.958C96.0715 378.121 93.5391 375.508 91.6602 371.997C89.7404 368.527 88.801 364.485 88.801 359.872C88.801 355.258 89.7404 351.298 91.6602 347.909C93.5799 344.562 96.0715 342.03 99.135 340.275C102.198 338.519 105.507 337.662 109.101 337.662C112.655 337.662 115.963 338.56 119.068 340.316C122.131 342.112 124.623 344.684 126.543 348.073C128.462 351.461 129.402 355.462 129.402 360.076C129.361 364.73 128.421 368.731 126.502 372.201Z" fill="white"/>
<path d="M175.353 358.403C175.353 351.626 176.742 346.849 179.56 344.073C182.338 341.337 186.463 339.949 191.896 339.949H195.408V325.619C190.793 325.619 186.79 326.558 183.441 328.477C180.091 330.396 177.395 333.009 175.353 336.438V326.721H161.506V393.555H175.353V358.403Z" fill="white"/>
<path d="M220.038 390.37C225.143 393.228 230.821 394.657 237.152 394.657C243.524 394.657 249.406 393.228 254.675 390.37C259.985 387.512 264.151 383.43 267.256 378.163C270.319 372.896 271.871 366.895 271.871 360.077C271.871 353.3 270.36 347.257 267.378 341.99C264.396 336.724 260.312 332.682 255.124 329.865C249.937 327.048 244.178 325.619 237.765 325.619C231.352 325.619 225.593 327.048 220.405 329.865C215.218 332.682 211.133 336.724 208.152 341.99C205.17 347.257 203.659 353.259 203.659 360.077C203.659 366.936 205.129 372.978 208.029 378.204C210.929 383.471 214.932 387.512 220.038 390.37ZM220.405 347.788C222.203 344.44 224.613 341.909 227.635 340.194C230.658 338.479 233.966 337.663 237.52 337.663C241.073 337.663 244.382 338.52 247.486 340.194C250.55 341.909 253.041 344.44 254.879 347.788C256.758 351.136 257.657 355.259 257.657 360.118C257.657 364.976 256.677 369.1 254.757 372.488C252.796 375.877 250.305 378.449 247.159 380.123C244.055 381.838 240.706 382.654 237.152 382.654C231.556 382.654 226.941 380.694 223.265 376.775C219.588 372.856 217.75 367.303 217.75 360.077C217.75 355.259 218.608 351.177 220.405 347.788Z" fill="white"/>
<path d="M313.127 393.595L326.606 344.236L340.085 393.595H354.667L375.417 326.762H361.815L347.968 380.245L334.367 326.762H319.948L305.734 380.49L291.764 326.762H277.713L298.586 393.595H313.127Z" fill="white"/>
<path d="M435.868 336.479C433.54 333.417 430.395 330.844 426.474 328.762C422.552 326.68 417.937 325.659 412.708 325.659C406.868 325.659 401.558 327.088 396.738 329.946C391.918 332.804 388.119 336.846 385.342 342.031C382.564 347.216 381.135 353.136 381.135 359.872C381.135 366.568 382.523 372.61 385.342 377.877C388.119 383.185 391.918 387.308 396.697 390.248C401.476 393.187 406.745 394.657 412.463 394.657C417.651 394.657 422.266 393.595 426.31 391.513C430.354 389.39 433.54 386.777 435.909 383.634V393.595H449.878V326.762H435.909V336.479H435.868ZM433.009 372.202C431.089 375.632 428.638 378.245 425.534 380.041C422.471 381.837 419.121 382.695 415.568 382.695C412.096 382.695 408.787 381.796 405.683 379.959C402.579 378.122 400.046 375.509 398.167 371.998C396.248 368.528 395.308 364.486 395.308 359.872C395.308 355.259 396.248 351.299 398.167 347.91C400.087 344.562 402.538 341.99 405.642 340.275C408.706 338.52 412.014 337.663 415.609 337.663C419.162 337.663 422.471 338.561 425.575 340.316C428.638 342.113 431.13 344.685 433.05 348.073C434.97 351.462 435.909 355.463 435.909 360.077C435.868 364.731 434.888 368.732 433.009 372.202Z" fill="white"/>
<path d="M513.883 326.762L494.359 377.714L475.529 326.762H460.13L486.476 392.493L472.874 425.032H487.211L528.22 326.762H513.883Z" fill="white"/>
<path d="M234.144 262.121C225.665 220.129 233.764 192.019 259.613 173.692C281.67 158.053 314.445 151.473 355.906 143.137L361.524 142L367.658 172.383L362.04 173.52C324.164 181.133 294.249 187.162 277.569 198.977C266.437 206.866 257.131 219.233 264.541 255.989L234.144 262.121Z" fill="white"/>
<path d="M242.38 300.875L236.246 270.492L241.863 269.355C279.74 261.742 309.655 255.714 326.335 243.898C337.467 236.009 346.773 223.642 339.363 186.886L369.76 180.754C378.239 222.747 370.139 250.857 344.291 269.183C322.234 284.823 289.459 291.402 247.998 299.739L242.38 300.875Z" fill="white"/>
</svg>
