<svg width="193" height="31" viewBox="0 0 193 31" fill="none" xmlns="http://www.w3.org/2000/svg">
<path d="M89.2633 3.01303C88.5218 3.01303 87.915 3.6411 87.915 4.40874V27.0611C87.915 27.8287 88.5218 28.4568 89.2633 28.4568C90.0049 28.4568 90.6116 27.8287 90.6116 27.0611V4.40874C90.6116 3.6411 90.0049 3.01303 89.2633 3.01303Z" fill="#2B2326"/>
<path d="M157.687 3.01303C150.906 3.01303 145.391 8.72147 145.391 15.7419C145.391 22.7623 150.906 28.4707 157.687 28.4707C164.469 28.4707 169.983 22.7623 169.983 15.7419C169.983 8.72147 164.469 3.01303 157.687 3.01303ZM157.687 25.6654C152.402 25.6654 148.088 21.213 148.088 15.7279C148.088 10.2428 152.389 5.79049 157.687 5.79049C162.986 5.79049 167.287 10.2428 167.287 15.7279C167.287 21.213 162.986 25.6654 157.687 25.6654Z" fill="#2B2326"/>
<path d="M69.8079 5.80445C72.6257 5.80445 75.2818 7.0885 77.1154 9.30768C77.6008 9.89387 78.4502 9.96366 79.0165 9.46121C79.5828 8.95875 79.6502 8.07946 79.1648 7.49326C76.8188 4.64602 73.4077 2.99908 69.8079 2.99908C63.0261 2.99908 57.5117 8.70752 57.5117 15.7279C57.5117 22.7483 63.0261 28.4568 69.8079 28.4568C73.4077 28.4568 76.8188 26.8238 79.1648 23.9626C79.6502 23.3764 79.5828 22.4971 79.0165 21.9946C78.4502 21.4922 77.6008 21.562 77.1154 22.1482C75.2818 24.3813 72.6257 25.6514 69.8079 25.6514C64.5227 25.6514 60.2082 21.1991 60.2082 15.714C60.2082 10.2288 64.5227 5.80445 69.8079 5.80445Z" fill="#2B2326"/>
<path d="M139.122 25.6653H132.111V4.40874C132.111 3.6411 131.504 3.01303 130.762 3.01303C130.021 3.01303 129.414 3.6411 129.414 4.40874V27.0611C129.414 27.8287 130.021 28.4568 130.762 28.4568H139.122C139.863 28.4568 140.47 27.8287 140.47 27.0611C140.47 26.2934 139.863 25.6653 139.122 25.6653Z" fill="#2B2326"/>
<path d="M111.307 5.80445C114.125 5.80445 116.781 7.0885 118.615 9.30768C119.1 9.89387 119.95 9.96366 120.516 9.46121C121.082 8.95875 121.15 8.07946 120.664 7.49326C118.318 4.64602 114.907 2.99908 111.307 2.99908C104.526 2.99908 99.0112 8.70752 99.0112 15.7279C99.0112 22.7483 104.526 28.4568 111.307 28.4568C114.907 28.4568 118.332 26.8238 120.664 23.9626C121.15 23.3764 121.082 22.4971 120.516 21.9946C119.95 21.4922 119.1 21.562 118.615 22.1482C116.781 24.3813 114.125 25.6514 111.307 25.6514C106.022 25.6514 101.708 21.1991 101.708 15.714C101.708 10.2288 106.022 5.80445 111.307 5.80445Z" fill="#2B2326"/>
<path d="M190.868 15.5325C189.736 14.3601 188.226 13.5366 186.77 12.7271C184.316 11.3872 182.833 10.4661 182.833 9.00059C182.833 8.95872 182.833 8.88893 182.819 8.86102C182.819 8.81915 182.752 7.78633 183.695 6.80933C184.976 5.48341 187.066 5.48341 188.347 6.80933C188.873 7.35366 189.722 7.35366 190.248 6.80933C190.774 6.26501 190.774 5.38571 190.248 4.84138C187.916 2.42681 184.127 2.42681 181.781 4.85534C180.069 6.62789 180.082 8.58188 180.123 9.09829C180.163 12.3084 182.994 13.8576 185.502 15.2254C186.783 15.9233 188.118 16.6491 188.967 17.5284C190.76 19.3846 190.76 22.4133 188.967 24.2836C187.174 26.1399 184.248 26.1399 182.442 24.2836C181.484 23.2926 180.999 21.9248 181.107 20.5152C181.161 19.7475 180.608 19.0776 179.866 19.0078C179.111 18.952 178.478 19.5242 178.41 20.2919C178.235 22.511 179.004 24.6883 180.527 26.2515C181.956 27.731 183.817 28.4567 185.691 28.4567C187.565 28.4567 189.439 27.717 190.855 26.2515C193.713 23.2787 193.713 18.4914 190.868 15.5325Z" fill="#2B2326"/>
<path d="M24.1693 5.03666C21.9042 7.38145 20.2997 10.5078 18.7627 13.5365C16.1741 18.6029 14.3944 21.6874 11.563 21.6874C11.4956 21.6874 11.3608 21.7014 11.2799 21.7014C11.199 21.7014 9.20356 21.8549 7.316 19.887C4.7543 17.2351 4.74082 12.9084 7.30252 10.2566C8.35416 9.16795 8.35416 7.3954 7.30252 6.30675C6.25087 5.2181 4.53858 5.2181 3.48694 6.30675C-1.16456 11.1359 -1.16456 18.9937 3.50042 23.8229C6.925 27.368 10.7001 27.3261 11.6844 27.2563C17.8864 27.1726 20.8795 21.3106 23.5221 16.1325C24.8838 13.4667 26.286 10.7172 27.9713 8.97255C31.5712 5.24602 37.4227 5.24602 41.009 8.97255C44.5954 12.6991 44.6089 18.7425 41.009 22.469C39.0945 24.4509 36.4519 25.4558 33.7419 25.2186C32.2588 25.093 30.951 26.2374 30.8431 27.7727C30.7218 29.322 31.8274 30.6479 33.3105 30.7735C37.5979 31.1364 41.791 29.5313 44.8246 26.4049C47.6694 23.46 49.0986 19.5799 49.0986 15.7138C49.0986 11.8337 47.6694 7.96764 44.8246 5.00875C39.1349 -0.867179 29.8589 -0.867179 24.1693 5.03666Z" fill="#FF0062"/>
</svg>
