<svg xmlns="http://www.w3.org/2000/svg" width="617.219" height="528.432" viewBox="0 0 617.219 528.432">
  <g id="Grupo_12" data-name="Grupo 12" transform="translate(-968.932 -1315.894)">
    <g id="Grupo_9" data-name="Grupo 9" transform="translate(-98.818 -10.106)">
      <path id="Trazado_31" data-name="Trazado 31" d="M-6.043-20.572S35.916,5.487,57.634,42.541s23.193,85.1,23.193,85.1" transform="translate(1152 1417.5)" fill="none" stroke="#f63372" stroke-linecap="round" stroke-width="8"/>
      <rect id="Rectángulo_10" data-name="Rectángulo 10" width="98" height="28" transform="translate(1151 1435)" fill="#f4f4f4"/>
      <text id="Aprendizaje" transform="translate(1380.183 1442.491)" font-size="21" font-family="Arial-BoldMT, Arial" font-weight="700"><tspan x="-59.514" y="0">Aprendizaje</tspan></text>
      <text id="Metricas" transform="translate(1588 1471.942)" font-size="21" font-family="Arial-BoldMT, Arial" font-weight="700"><tspan x="-42.605" y="0">Metricas</tspan></text>
      <text id="Producto" transform="translate(1632 1709.542)" font-size="21" font-family="Arial-BoldMT, Arial" font-weight="700"><tspan x="-46.081" y="0">Producto</tspan></text>
      <text id="Datos" transform="translate(1586 1498.234)" font-size="21" font-family="Arial-BoldMT, Arial" font-weight="700"><tspan x="-29.172" y="0">Datos</tspan></text>
      <text id="Definición_de_Producto_Viable" data-name="Definición 
de Producto 
Viable" transform="translate(1247.507 1676.5)" font-size="21" font-family="Arial-BoldMT, Arial" font-weight="700"><tspan x="-53.669" y="0">Definición </tspan><tspan x="-64.169" y="28">de Producto </tspan><tspan x="-30.741" y="56">Viable</tspan></text>
      <text id="Exploracion" transform="translate(1194.75 1456.5)" font-size="21" font-family="Arial-BoldMT, Arial" font-weight="700"><tspan x="-60.098" y="0">Exploracion</tspan></text>
      <text id="Idea" transform="translate(1102 1430)" font-size="21" font-family="Arial-BoldMT, Arial" font-weight="700"><tspan x="-21.01" y="0">Idea</tspan></text>
      <text id="Desarrollo" transform="translate(1426 1850.432)" font-size="21" font-family="Arial-BoldMT, Arial" font-weight="700"><tspan x="-51.936" y="0">Desarrollo</tspan></text>
      <g id="Grupo_6" data-name="Grupo 6" transform="translate(59 82)">
        <g id="Trazado_37" data-name="Trazado 37" transform="translate(1022.225 1248.179)" fill="none" stroke-linecap="round" stroke-linejoin="round">
          <path d="M21.419,9.338c11.474,0,20.131,9.1,20.131,21.1S34.656,43.461,31.318,50.427a35.971,35.971,0,0,0-1.387,5.549v1.787H11.974V55.976a19.323,19.323,0,0,0-1.566-5.549C7.269,43.461,0,42.075,0,30.44S9.945,9.338,21.419,9.338Z" stroke="none"/>
          <path d="M 21.41891860961914 12.33813095092773 C 19.01148796081543 12.33813095092773 16.64782905578613 12.8182373046875 14.39358901977539 13.76511001586914 C 12.19930839538574 14.68679809570313 10.21668815612793 16.00212860107422 8.500789642333984 17.6745491027832 C 6.779048919677734 19.35266876220703 5.425819396972656 21.29380035400391 4.478687286376953 23.44400787353516 C 3.49749755859375 25.67152786254883 3 28.02542877197266 3 30.44029998779297 C 3 33.33945083618164 3.487506866455078 35.62110900878906 4.534217834472656 37.62081909179688 C 5.473007202148438 39.41434860229492 6.792037963867188 40.83705902099609 8.188529968261719 42.34330749511719 C 9.891517639160156 44.18016052246094 11.82173919677734 46.26210021972656 13.14323806762695 49.19493103027344 C 14.18131446838379 51.49874114990234 14.64123153686523 53.59495162963867 14.83468055725098 54.76317977905273 L 27.10428810119629 54.76317977905273 C 27.39047622680664 53.26073455810547 27.98085784912109 50.44805908203125 28.61214828491211 49.13082885742188 C 29.96842956542969 46.30081939697266 31.81517791748047 44.32004928588867 33.44452667236328 42.57244873046875 C 34.82085800170898 41.09624862670898 36.120849609375 39.70191192626953 37.03622817993164 37.90950775146484 C 38.06868743896484 35.88784027099609 38.54955673217773 33.51445007324219 38.54955673217773 30.44029998779297 C 38.54955673217773 25.40732955932617 36.79718017578125 20.7970085144043 33.61523818969727 17.45861053466797 C 30.46799850463867 14.15662002563477 26.13659858703613 12.33813095092773 21.41891860961914 12.33813095092773 M 21.41891860961914 9.338130950927734 C 32.89250946044922 9.338130950927734 41.54955673217773 18.43914794921875 41.54955673217773 30.44029998779297 C 41.54955673217773 42.44143676757813 34.65589904785156 43.46149826049805 31.31750869750977 50.4273681640625 C 30.68654823303223 51.74391937255859 29.930908203125 55.97620010375977 29.930908203125 55.97620010375977 L 29.930908203125 57.76317977905273 L 11.97411918640137 57.76317977905273 L 11.97411918640137 55.97620010375977 C 11.97411918640137 55.97620010375977 11.73576927185059 53.37392807006836 10.40807914733887 50.4273681640625 C 7.26934814453125 43.46149826049805 0 42.07501983642578 0 30.44029998779297 C 0 18.80556869506836 9.945318222045898 9.338130950927734 21.41891860961914 9.338130950927734 Z" stroke="none" fill="#131817"/>
        </g>
        <line id="Línea_1" data-name="Línea 1" x2="15.226" transform="translate(1035.725 1308.5)" fill="none" stroke="#131817" stroke-linecap="round" stroke-width="3"/>
        <line id="Línea_2" data-name="Línea 2" x2="13.145" transform="translate(1036.766 1312.5)" fill="none" stroke="#131817" stroke-linecap="round" stroke-width="3"/>
        <line id="Línea_3" data-name="Línea 3" x2="10.96" transform="translate(1037.858 1316.5)" fill="none" stroke="#131817" stroke-linecap="round" stroke-width="3"/>
        <line id="Línea_4" data-name="Línea 4" y2="8" transform="translate(1043.25 1245.5)" fill="none" stroke="#131817" stroke-linecap="round" stroke-width="3"/>
        <line id="Línea_5" data-name="Línea 5" x1="5.5" y2="5" transform="translate(1057.25 1252.5)" fill="none" stroke="#131817" stroke-linecap="round" stroke-width="3"/>
        <line id="Línea_6" data-name="Línea 6" x2="5.5" y2="5" transform="translate(1022.25 1252.5)" fill="none" stroke="#131817" stroke-linecap="round" stroke-width="3"/>
        <line id="Línea_7" data-name="Línea 7" x1="8.5" transform="translate(1067.25 1276.5)" fill="none" stroke="#131817" stroke-linecap="round" stroke-width="3"/>
        <line id="Línea_8" data-name="Línea 8" x1="8.5" transform="translate(1010.25 1275.5)" fill="none" stroke="#131817" stroke-linecap="round" stroke-width="3"/>
        <line id="Línea_9" data-name="Línea 9" x1="5" y1="5" transform="translate(1062.75 1294.5)" fill="none" stroke="#131817" stroke-linecap="round" stroke-width="3"/>
        <line id="Línea_10" data-name="Línea 10" y1="5" x2="5" transform="translate(1018.75 1294.5)" fill="none" stroke="#131817" stroke-linecap="round" stroke-width="3"/>
      </g>
      <g id="Grupo_8" data-name="Grupo 8" transform="translate(15.507 4)">
        <g id="Rectángulo_7" data-name="Rectángulo 7" transform="translate(1204 1569.5)" fill="none" stroke="#131817" stroke-width="3">
          <rect width="56" height="68" rx="10" stroke="none"/>
          <rect x="1.5" y="1.5" width="53" height="65" rx="8.5" fill="none"/>
        </g>
        <path id="Trazado_38" data-name="Trazado 38" d="M25.175,0H0" transform="translate(1221.025 1585.5)" fill="none" stroke="#131817" stroke-linecap="round" stroke-width="3"/>
        <line id="Línea_12" data-name="Línea 12" x1="22.475" transform="translate(1221.025 1594.5)" fill="none" stroke="#131817" stroke-linecap="round" stroke-width="3"/>
        <line id="Línea_13" data-name="Línea 13" x1="27.475" transform="translate(1221.025 1603.5)" fill="none" stroke="#131817" stroke-linecap="round" stroke-width="3"/>
        <line id="Línea_14" data-name="Línea 14" x1="27.475" transform="translate(1221.025 1612.5)" fill="none" stroke="#131817" stroke-linecap="round" stroke-width="3"/>
        <line id="Línea_15" data-name="Línea 15" x1="22.475" transform="translate(1221.025 1621.5)" fill="none" stroke="#131817" stroke-linecap="round" stroke-width="3"/>
        <g id="Elipse_1" data-name="Elipse 1" transform="translate(1213 1583.5)" fill="none" stroke="#131817" stroke-width="1">
          <circle cx="2" cy="2" r="2" stroke="none"/>
          <circle cx="2" cy="2" r="1.5" fill="none"/>
        </g>
        <g id="Elipse_2" data-name="Elipse 2" transform="translate(1213 1592.5)" fill="none" stroke="#131817" stroke-width="1">
          <circle cx="2" cy="2" r="2" stroke="none"/>
          <circle cx="2" cy="2" r="1.5" fill="none"/>
        </g>
        <g id="Elipse_3" data-name="Elipse 3" transform="translate(1213 1610.5)" fill="none" stroke="#131817" stroke-width="1">
          <circle cx="2" cy="2" r="2" stroke="none"/>
          <circle cx="2" cy="2" r="1.5" fill="none"/>
        </g>
        <g id="Elipse_4" data-name="Elipse 4" transform="translate(1213 1601.5)" fill="none" stroke="#131817" stroke-width="1">
          <circle cx="2" cy="2" r="2" stroke="none"/>
          <circle cx="2" cy="2" r="1.5" fill="none"/>
        </g>
        <g id="Elipse_5" data-name="Elipse 5" transform="translate(1213 1619.5)" fill="none" stroke="#131817" stroke-width="1">
          <circle cx="2" cy="2" r="2" stroke="none"/>
          <circle cx="2" cy="2" r="1.5" fill="none"/>
        </g>
      </g>
      <g id="Grupo_7" data-name="Grupo 7" transform="translate(8 574.432)">
        <g id="Grupo_4" data-name="Grupo 4" transform="translate(-291 -56)">
          <g id="Rectángulo_6" data-name="Rectángulo 6" transform="translate(1677 1254)" fill="none" stroke="#131817" stroke-width="3">
            <rect width="64" height="48" rx="10" stroke="none"/>
            <rect x="1.5" y="1.5" width="61" height="45" rx="8.5" fill="none"/>
          </g>
          <path id="Trazado_39" data-name="Trazado 39" d="M-6.128,0l-9.326,11.962,9.326,11.573" transform="translate(1707.291 1266.232)" fill="none" stroke="#131817" stroke-linecap="round" stroke-width="4"/>
          <path id="Trazado_40" data-name="Trazado 40" d="M-6.128,0l-9.326,11.962,9.326,11.573" transform="translate(1710.709 1289.768) rotate(180)" fill="none" stroke="#131817" stroke-linecap="round" stroke-width="4"/>
        </g>
      </g>
      <g id="Grupo_5" data-name="Grupo 5" transform="translate(-178.015 379)">
        <g id="Rectángulo_8" data-name="Rectángulo 8" transform="translate(1779 1257)" fill="none" stroke="#131817" stroke-width="3">
          <path d="M0,0H61a0,0,0,0,1,0,0V39a5,5,0,0,1-5,5H5a5,5,0,0,1-5-5V0A0,0,0,0,1,0,0Z" stroke="none"/>
          <path d="M3,1.5H58A1.5,1.5,0,0,1,59.5,3V39A3.5,3.5,0,0,1,56,42.5H5A3.5,3.5,0,0,1,1.5,39V3A1.5,1.5,0,0,1,3,1.5Z" fill="none"/>
        </g>
        <g id="Trazado_41" data-name="Trazado 41" transform="translate(1779.381 1256.647)" fill="none">
          <path d="M0,0H60.4L50.164,13.212H10.017Z" stroke="none"/>
          <path d="M 6.039344787597656 2.999999046325684 L 11.50707244873047 10.21157741546631 L 48.69276428222656 10.21157741546631 L 54.27788543701172 2.999999046325684 L 6.039344787597656 2.999999046325684 M 0 -9.5367431640625e-07 L 60.39577484130859 -9.5367431640625e-07 L 50.16385269165039 13.21157741546631 L 10.01685333251953 13.21157741546631 L 0 -9.5367431640625e-07 Z" stroke="none" fill="#131817"/>
        </g>
        <path id="Trazado_42" data-name="Trazado 42" d="M10.806-.357-.484,10.761" transform="translate(1769.5 1258.083)" fill="none" stroke="#131817" stroke-width="3"/>
        <path id="Trazado_43" data-name="Trazado 43" d="M10.806,10.761-.484-.357" transform="translate(1839.333 1258.051)" fill="none" stroke="#131817" stroke-width="3"/>
        <line id="Línea_16" data-name="Línea 16" y2="8" transform="translate(1810.329 1233.5)" fill="none" stroke="#131817" stroke-linecap="round" stroke-width="3"/>
        <line id="Línea_17" data-name="Línea 17" x1="5.5" y2="5" transform="translate(1824.329 1240.5)" fill="none" stroke="#131817" stroke-linecap="round" stroke-width="3"/>
        <line id="Línea_18" data-name="Línea 18" x2="5.5" y2="5" transform="translate(1789.329 1240.5)" fill="none" stroke="#131817" stroke-linecap="round" stroke-width="3"/>
      </g>
      <g id="Grupo_3" data-name="Grupo 3" transform="translate(-181 55.5)">
        <g id="Rectángulo_9" data-name="Rectángulo 9" transform="translate(1737 1339)" fill="none" stroke="#131817" stroke-width="3">
          <rect width="64" height="48" rx="10" stroke="none"/>
          <rect x="1.5" y="1.5" width="61" height="45" rx="8.5" fill="none"/>
        </g>
        <path id="Trazado_44" data-name="Trazado 44" d="M0,25.343,9.695,11.51l16.549,7.95L36.756,2.417" transform="translate(1750.082 1351.5)" fill="none" stroke="#131817" stroke-width="3"/>
        <g id="Polígono_1" data-name="Polígono 1" transform="translate(1784.737 1346.786) rotate(30)" fill="none">
          <path d="M5,0l5,8H0Z" stroke="none"/>
          <path d="M 5 1.886799812316895 L 1.80424976348877 7 L 8.19575023651123 7 L 5 1.886799812316895 M 5 0 L 10 8 L 0 8 L 5 0 Z" stroke="none" fill="#131817"/>
        </g>
      </g>
      <g id="Grupo_2" data-name="Grupo 2" transform="translate(-283.103 28.872)">
        <path id="Trazado_45" data-name="Trazado 45" d="M1704.071,938.585s-1.889-3.49-7.2-1.87-9.56,3.371-9.845,7.309,1.564,3.577-1.987,5.011-4.274,4.028-4.51,6.622.169,3.643-1.539,5.951-.046,6.123,1.539,7.557-1.331-1.235-2.076,1.761-.323,4.574.876,6.016a17.4,17.4,0,0,0,3.761,2.928,5.757,5.757,0,0,0,0,5,8.255,8.255,0,0,0,5.493,4.367c1.341.177,1,2.038,2.225,2.991a7.524,7.524,0,0,0,5.462,1.793c3.042,0,6.981-3,7.57-4.785S1704.071,938.585,1704.071,938.585Z" transform="translate(-45 393.907)" fill="none" stroke="#131817" stroke-width="3"/>
        <path id="Trazado_46" data-name="Trazado 46" d="M0,0A12.765,12.765,0,0,0,2.007,1.522a9.987,9.987,0,0,0,2.156.906" transform="translate(1635.654 1363.225)" fill="none" stroke="#131817" stroke-linecap="round" stroke-width="3"/>
        <path id="Trazado_47" data-name="Trazado 47" d="M1.184.238s1.232,3.13,3.789,3.726,5.34-1.451,5.34-1.451" transform="translate(1641.839 1353.009)" fill="none" stroke="#131817" stroke-linecap="round" stroke-width="3"/>
        <path id="Trazado_48" data-name="Trazado 48" d="M0,0S.387,1.9,1.428,2.5a4.674,4.674,0,0,0,2.451.47" transform="matrix(0.259, -0.966, 0.966, 0.259, 1643.313, 1360.687)" fill="none" stroke="#131817" stroke-linecap="round" stroke-width="3"/>
        <path id="Trazado_49" data-name="Trazado 49" d="M0,0S.532,2.607,1.962,3.441a6.422,6.422,0,0,0,3.367.645" transform="matrix(-0.259, 0.966, -0.966, -0.259, 1652.152, 1368.757)" fill="none" stroke="#131817" stroke-linecap="round" stroke-width="3"/>
        <path id="Trazado_50" data-name="Trazado 50" d="M0,0S.532,2.607,1.962,3.441a6.422,6.422,0,0,0,3.367.645" transform="matrix(-0.966, -0.259, 0.259, -0.966, 1649.226, 1377.635)" fill="none" stroke="#131817" stroke-linecap="round" stroke-width="3"/>
        <path id="Trazado_51" data-name="Trazado 51" d="M.079,0A6.836,6.836,0,0,0,.671,4.037,6.67,6.67,0,0,0,4.038,6.283" transform="matrix(-0.966, 0.259, -0.259, -0.966, 1647.34, 1347.176)" fill="none" stroke="#131817" stroke-linecap="round" stroke-width="3"/>
        <path id="Trazado_52" data-name="Trazado 52" d="M0,0A3.521,3.521,0,0,0,1.7,1.756,6.422,6.422,0,0,0,5.067,2.4" transform="matrix(-0.966, -0.259, 0.259, -0.966, 1659.122, 1344.717)" fill="none" stroke="#131817" stroke-linecap="round" stroke-width="3"/>
        <path id="Trazado_53" data-name="Trazado 53" d="M0,0A2.649,2.649,0,0,0,1.406,2.184a3.591,3.591,0,0,0,2.913.244" transform="matrix(-0.966, -0.259, 0.259, -0.966, 1650.276, 1336.075)" fill="none" stroke="#131817" stroke-linecap="round" stroke-width="3"/>
        <path id="Trazado_54" data-name="Trazado 54" d="M1678.187,938.585s1.889-3.49,7.2-1.87,9.56,3.371,9.845,7.309-1.564,3.577,1.987,5.011,4.274,4.028,4.51,6.622-.169,3.643,1.539,5.951.046,6.123-1.539,7.557,1.331-1.235,2.076,1.761.323,4.574-.876,6.016a17.4,17.4,0,0,1-3.761,2.928,5.757,5.757,0,0,1,0,5,8.255,8.255,0,0,1-5.493,4.367c-1.341.177-1,2.038-2.225,2.991a7.524,7.524,0,0,1-5.462,1.793c-3.042,0-6.981-3-7.57-4.785S1678.187,938.585,1678.187,938.585Z" transform="translate(-13.686 393.907)" fill="none" stroke="#131817" stroke-width="3"/>
        <path id="Trazado_55" data-name="Trazado 55" d="M4.163,0A12.765,12.765,0,0,1,2.156,1.522,9.987,9.987,0,0,1,0,2.428" transform="translate(1683.755 1363.225)" fill="none" stroke="#131817" stroke-linecap="round" stroke-width="3"/>
        <path id="Trazado_56" data-name="Trazado 56" d="M10.313.238S9.081,3.368,6.524,3.964s-5.34-1.451-5.34-1.451" transform="translate(1670.237 1353.009)" fill="none" stroke="#131817" stroke-linecap="round" stroke-width="3"/>
        <path id="Trazado_57" data-name="Trazado 57" d="M0,2.987s.387-1.9,1.428-2.5A4.674,4.674,0,0,1,3.879.013" transform="matrix(-0.259, -0.966, 0.966, -0.259, 1677.374, 1361.46)" fill="none" stroke="#131817" stroke-linecap="round" stroke-width="3"/>
        <path id="Trazado_58" data-name="Trazado 58" d="M0,4.1S.532,1.5,1.962.664A6.422,6.422,0,0,1,5.33.018" transform="matrix(0.259, 0.966, -0.966, 0.259, 1675.385, 1367.695)" fill="none" stroke="#131817" stroke-linecap="round" stroke-width="3"/>
        <path id="Trazado_59" data-name="Trazado 59" d="M0,4.1S.532,1.5,1.962.664A6.422,6.422,0,0,1,5.33.018" transform="matrix(0.966, -0.259, 0.259, 0.966, 1673.284, 1373.67)" fill="none" stroke="#131817" stroke-linecap="round" stroke-width="3"/>
        <path id="Trazado_60" data-name="Trazado 60" d="M.079,6.283A6.836,6.836,0,0,1,.671,2.246,6.67,6.67,0,0,1,4.038,0" transform="matrix(0.966, 0.259, -0.259, 0.966, 1677.858, 1341.107)" fill="none" stroke="#131817" stroke-linecap="round" stroke-width="3"/>
        <path id="Trazado_61" data-name="Trazado 61" d="M.551,1.854S2.686.378,4.115.713A6.033,6.033,0,0,1,6.564,1.99" transform="matrix(0.966, -0.259, 0.259, 0.966, 1663.394, 1348.709)" fill="none" stroke="#131817" stroke-linecap="round" stroke-width="3"/>
        <path id="Trazado_62" data-name="Trazado 62" d="M0,2.63A2.649,2.649,0,0,1,1.406.446,3.591,3.591,0,0,1,4.319.2" transform="matrix(0.966, -0.259, 0.259, 0.966, 1672.616, 1333.535)" fill="none" stroke="#131817" stroke-linecap="round" stroke-width="3"/>
        <path id="Trazado_63" data-name="Trazado 63" d="M.551,1.854S2.686.378,4.115.713A6.033,6.033,0,0,1,6.564,1.99" transform="matrix(0.966, -0.259, 0.259, 0.966, 1663.394, 1348.709)" fill="none" stroke="#131817" stroke-linecap="round" stroke-width="3"/>
      </g>
      <path id="Trazado_64" data-name="Trazado 64" d="M-8.111-8.734A198.509,198.509,0,0,0,23.241,15.3C40.365,25.579,60.384,32.4,60.384,32.4" transform="translate(1302.616 1760.599)" fill="none" stroke="#f63372" stroke-linecap="round" stroke-width="8"/>
      <path id="Trazado_65" data-name="Trazado 65" d="M-13.766-11.97S4.271,7.637,28,20.9s53.149,20.19,53.149,20.19" transform="matrix(0.53, -0.848, 0.848, 0.53, 1501.772, 1795.246)" fill="none" stroke="#f63372" stroke-linecap="round" stroke-width="8"/>
      <path id="Trazado_66" data-name="Trazado 66" d="M-8.111-8.734A198.509,198.509,0,0,0,23.241,15.3C40.365,25.579,60.384,32.4,60.384,32.4" transform="translate(1648.17 1579.036) rotate(-133)" fill="none" stroke="#f63372" stroke-linecap="round" stroke-width="8"/>
      <path id="Trazado_67" data-name="Trazado 67" d="M-8.111-8.734A198.509,198.509,0,0,0,23.241,15.3C40.365,25.579,60.384,32.4,60.384,32.4" transform="matrix(-0.961, 0.276, -0.276, -0.961, 1520.393, 1398.671)" fill="none" stroke="#f63372" stroke-linecap="round" stroke-width="8"/>
      <path id="Trazado_68" data-name="Trazado 68" d="M-8.111-8.734A198.509,198.509,0,0,0,23.241,15.3C40.365,25.579,60.384,32.4,60.384,32.4" transform="translate(1293.948 1436.106) rotate(100)" fill="none" stroke="#f63372" stroke-linecap="round" stroke-width="8"/>
      <g id="Polígono_2" data-name="Polígono 2" transform="matrix(-0.995, 0.105, -0.105, -0.995, 1247.507, 1553.938)" fill="#f63372">
        <path d="M 26.14507484436035 23.5 L 0.8549256324768066 23.5 L 13.5 1.019867777824402 L 26.14507484436035 23.5 Z" stroke="none"/>
        <path d="M 13.5 2.039735794067383 L 1.709850311279297 23 L 25.2901496887207 23 L 13.5 2.039735794067383 M 13.5 0 L 27 24 L 0 24 L 13.5 0 Z" stroke="none" fill="#f63372"/>
      </g>
      <g id="Polígono_3" data-name="Polígono 3" transform="translate(1258.013 1505.217) rotate(-149)" fill="#f63372">
        <path d="M 26.14507484436035 23.5 L 0.8549256324768066 23.5 L 13.5 1.019867777824402 L 26.14507484436035 23.5 Z" stroke="none"/>
        <path d="M 13.5 2.039735794067383 L 1.709850311279297 23 L 25.2901496887207 23 L 13.5 2.039735794067383 M 13.5 0 L 27 24 L 0 24 L 13.5 0 Z" stroke="none" fill="#f63372"/>
      </g>
      <g id="Polígono_4" data-name="Polígono 4" transform="translate(1431.346 1395.903) rotate(-85)" fill="#f63372">
        <path d="M 26.14507484436035 23.5 L 0.8549256324768066 23.5 L 13.5 1.019867777824402 L 26.14507484436035 23.5 Z" stroke="none"/>
        <path d="M 13.5 2.039735794067383 L 1.709850311279297 23 L 25.2901496887207 23 L 13.5 2.039735794067383 M 13.5 0 L 27 24 L 0 24 L 13.5 0 Z" stroke="none" fill="#f63372"/>
      </g>
      <g id="Polígono_5" data-name="Polígono 5" transform="matrix(0.695, 0.719, -0.719, 0.695, 1583.812, 1725.06)" fill="#f63372">
        <path d="M 26.14507484436035 23.5 L 0.8549256324768066 23.5 L 13.5 1.019867777824402 L 26.14507484436035 23.5 Z" stroke="none"/>
        <path d="M 13.5 2.039735794067383 L 1.709850311279297 23 L 25.2901496887207 23 L 13.5 2.039735794067383 M 13.5 0 L 27 24 L 0 24 L 13.5 0 Z" stroke="none" fill="#f63372"/>
      </g>
      <g id="Polígono_6" data-name="Polígono 6" transform="translate(1615.014 1506.886) rotate(-18)" fill="#f63372">
        <path d="M 26.14507484436035 23.5 L 0.8549256324768066 23.5 L 13.5 1.019867777824402 L 26.14507484436035 23.5 Z" stroke="none"/>
        <path d="M 13.5 2.039735794067383 L 1.709850311279297 23 L 25.2901496887207 23 L 13.5 2.039735794067383 M 13.5 0 L 27 24 L 0 24 L 13.5 0 Z" stroke="none" fill="#f63372"/>
      </g>
      <g id="Polígono_7" data-name="Polígono 7" transform="translate(1379.183 1784.978) rotate(112)" fill="#f63372">
        <path d="M 26.14507484436035 23.5 L 0.8549256324768066 23.5 L 13.5 1.019867777824402 L 26.14507484436035 23.5 Z" stroke="none"/>
        <path d="M 13.5 2.039735794067383 L 1.709850311279297 23 L 25.2901496887207 23 L 13.5 2.039735794067383 M 13.5 0 L 27 24 L 0 24 L 13.5 0 Z" stroke="none" fill="#f63372"/>
      </g>
    </g>
  </g>
</svg>
