<svg xmlns="http://www.w3.org/2000/svg" width="233.654" height="227.609" viewBox="0 0 233.654 227.609">
  <g id="Grupo_14" data-name="Grupo 14" transform="translate(-1198.585 -3607.756)">
    <g id="Trazado_69" data-name="Trazado 69" transform="translate(1205.352 3769.341)" fill="none">
      <path d="M0,0H92.474L77.438,66.024h-62.4Z" stroke="none"/>
      <path d="M 3.760047912597656 2.999992370605469 L 17.43003082275391 63.02386474609375 L 75.04408264160156 63.02386474609375 L 88.71407318115234 2.999992370605469 L 3.760047912597656 2.999992370605469 M 0 -7.62939453125e-06 L 92.47412109375 -7.62939453125e-06 L 77.43767547607422 66.02386474609375 L 15.03644561767578 66.02386474609375 L 0 -7.62939453125e-06 Z" stroke="none" fill="#363738"/>
    </g>
    <g id="Trazado_70" data-name="Trazado 70" transform="translate(1239.447 3622.502)" fill="none" stroke-linecap="round" stroke-linejoin="round">
      <path d="M20.715,9.338c11.1,0,19.469,8.8,19.469,20.409s-6.667,12.593-9.9,19.33a34.789,34.789,0,0,0-1.341,5.366v1.728H11.581V54.444a18.688,18.688,0,0,0-1.515-5.366C7.03,42.34,0,41,0,29.747S9.619,9.338,20.715,9.338Z" stroke="none"/>
      <path d="M 20.71514701843262 12.33813095092773 C 18.39999771118164 12.33813095092773 16.12684631347656 12.79986953735352 13.95882606506348 13.71052932739258 C 11.84808731079102 14.59712982177734 9.940906524658203 15.86241149902344 8.290277481079102 17.47122192382813 C 6.634197235107422 19.08534240722656 5.332626342773438 20.95230102539063 4.421737670898438 23.02024078369141 C 3.478336334228516 25.16197204589844 2.999996185302734 27.42514038085938 2.999996185302734 29.74689102172852 C 2.999996185302734 32.53424072265625 3.467918395996094 34.72640228271484 4.472568511962891 36.645751953125 C 5.374408721923828 38.36868286132813 6.645755767822266 39.73995971679688 7.991744995117188 41.19174957275391 C 9.643936157226563 42.97379302978516 11.51655769348145 44.99359893798828 12.80125617980957 47.84477233886719 C 13.78522682189941 50.02851104736328 14.23462677001953 52.02134323120117 14.4305591583252 53.17195892333984 L 26.13220596313477 53.17195892333984 C 26.41526794433594 51.69658660888672 26.97905349731445 49.04109954833984 27.58312606811523 47.78066253662109 C 28.9013557434082 45.03005218505859 30.69288635253906 43.10850143432617 32.27352523803711 41.41316223144531 C 35.01720809936523 38.47038269042969 37.1843376159668 36.14598083496094 37.1843376159668 29.74689102172852 C 37.1843376159668 24.90473937988281 35.49920654296875 20.47006988525391 32.43936538696289 17.25979232788086 C 29.41432571411133 14.08600997924805 25.25058746337891 12.33813095092773 20.71514701843262 12.33813095092773 M 20.71514701843262 9.338130950927734 C 31.81173706054688 9.338130950927734 40.1843376159668 18.14009094238281 40.1843376159668 29.74689102172852 C 40.1843376159668 41.35369110107422 33.51718902587891 42.3402214050293 30.28848648071289 49.07720184326172 C 29.67825698852539 50.35049057006836 28.94744682312012 54.44369125366211 28.94744682312012 54.44369125366211 L 28.94744682312012 56.17195892333984 L 11.5806770324707 56.17195892333984 L 11.5806770324707 54.44369125366211 C 11.5806770324707 54.44369125366211 11.35015678405762 51.92694091796875 10.06609725952148 49.07720184326172 C 7.030498504638672 42.3402214050293 -3.814697265625e-06 40.99929809570313 -3.814697265625e-06 29.74689102172852 C -3.814697265625e-06 18.49448013305664 9.618547439575195 9.338130950927734 20.71514701843262 9.338130950927734 Z" stroke="none" fill="#363738"/>
    </g>
    <line id="Línea_19" data-name="Línea 19" x2="14.725" transform="translate(1252.503 3681.148)" fill="none" stroke="#363738" stroke-linecap="round" stroke-width="3"/>
    <line id="Línea_20" data-name="Línea 20" x2="12.713" transform="translate(1253.51 3685.016)" fill="none" stroke="#363738" stroke-linecap="round" stroke-width="3"/>
    <line id="Línea_21" data-name="Línea 21" x2="10.6" transform="translate(1254.567 3688.885)" fill="none" stroke="#363738" stroke-linecap="round" stroke-width="3"/>
    <path id="Trazado_71" data-name="Trazado 71" d="M7.766-25.857s1.777,16.108,0,31.08S-1.221,35.97-1.221,35.97" transform="translate(1252.809 3715.847)" fill="none" stroke="#363738" stroke-linecap="round" stroke-width="3"/>
    <g id="Trazado_73" data-name="Trazado 73" transform="translate(1228.582 3712.777) rotate(-45)" fill="none">
      <path d="M7.643,0s7.643,12.464,7.643,19.659S12.376,34.845,8.554,34.845,0,26.853,0,19.659,7.643,0,7.643,0Z" stroke="none"/>
      <path d="M 7.643293857574463 6.176198959350586 C 7.28265380859375 6.876373291015625 6.906484603881836 7.630563735961914 6.530611038208008 8.420385360717773 C 4.253870964050293 13.20451545715332 3.00001049041748 17.19562530517578 3.00001049041748 19.65851593017578 C 3.00001049041748 22.40322494506836 3.869030952453613 25.61160659790039 5.324630737304688 28.24092674255371 C 5.974050521850586 29.41400527954102 6.695940971374512 30.39286613464355 7.412280559539795 31.07168579101563 C 8.036247253417969 31.66296577453613 8.423707962036133 31.80593299865723 8.536438941955566 31.83722114562988 C 8.818258285522461 31.70989608764648 9.815864562988281 30.86333656311035 10.79383087158203 28.26683616638184 C 11.74269104003906 25.74761581420898 12.28689098358154 22.61000633239746 12.28689098358154 19.65853500366211 C 12.28689098358154 17.20518684387207 11.04172134399414 13.23236656188965 8.780750274658203 8.471906661987305 C 8.397233009338379 7.664407730102539 8.012359619140625 6.892480850219727 7.643293857574463 6.176198959350586 M 7.643430709838867 7.62939453125e-06 C 7.643430709838867 7.62939453125e-06 15.28688049316406 12.46380615234375 15.28689098358154 19.65853500366211 C 15.28689098358154 26.85325622558594 12.37599086761475 34.8446044921875 8.55427074432373 34.8446044921875 C 4.732550621032715 34.84459686279297 2.09808349609375e-05 26.85323715209961 1.049041748046875e-05 19.65851593017578 C 1.049041748046875e-05 12.46379661560059 7.643430709838867 7.62939453125e-06 7.643430709838867 7.62939453125e-06 Z" stroke="none" fill="#363738"/>
    </g>
    <g id="Rectángulo_16" data-name="Rectángulo 16" transform="translate(1198.585 3751.817)" fill="none" stroke="#363738" stroke-width="3">
      <rect width="106.007" height="20.31" stroke="none"/>
      <rect x="1.5" y="1.5" width="103.007" height="17.31" fill="none"/>
    </g>
    <g id="Trazado_74" data-name="Trazado 74" transform="translate(1267.286 3720.903) rotate(-135)" fill="none">
      <path d="M7.643,34.845s7.643-12.464,7.643-19.658S12.376,0,8.554,0,0,7.991,0,15.186,7.643,34.845,7.643,34.845Z" stroke="none"/>
      <path d="M 7.643394947052002 28.66806602478027 C 8.012362480163574 27.95196151733398 8.397299766540527 27.17990303039551 8.780703544616699 26.37264060974121 C 11.04166412353516 21.61219024658203 12.28683376312256 17.63937950134277 12.28683376312256 15.18603992462158 C 12.28683376312256 12.23458003997803 11.74264430999756 9.096980094909668 10.79378414154053 6.577760219573975 C 9.815828323364258 3.981259822845459 8.818221092224121 3.134700059890747 8.536401748657227 3.00737476348877 C 8.423669815063477 3.038661003112793 8.036210060119629 3.181622505187988 7.412243843078613 3.772910356521606 C 6.695913791656494 4.451720237731934 5.974013805389404 5.430580139160156 5.324604034423828 6.603650093078613 C 3.869004011154175 9.232970237731934 2.999994039535522 12.44134044647217 2.999994039535522 15.18605041503906 C 2.999994039535522 17.63940048217773 4.245143890380859 21.61221122741699 6.506093978881836 26.37265968322754 C 6.889498233795166 27.1799201965332 7.274428367614746 27.95196342468262 7.643394947052002 28.66806602478027 M 7.643393993377686 34.84453201293945 C 7.643393993377686 34.84453201293945 -1.597946175024845e-05 22.38076019287109 -5.979461548122345e-06 15.18605041503906 C -5.979461548122345e-06 7.991340160369873 4.732513904571533 2.844238338184368e-07 8.554233551025391 -9.715576197777409e-06 C 12.37594413757324 -9.715576197777409e-06 15.28684425354004 7.991330146789551 15.28683376312256 15.18603992462158 C 15.28683376312256 22.38074111938477 7.643393993377686 34.84453201293945 7.643393993377686 34.84453201293945 Z" stroke="none" fill="#363738"/>
    </g>
    <line id="Línea_22" data-name="Línea 22" y1="6.77" x2="8.704" transform="translate(1262.441 3706.396)" fill="none" stroke="#363738" stroke-linecap="round" stroke-width="3"/>
    <line id="Línea_23" data-name="Línea 23" x1="6.77" y1="5.803" transform="translate(1250.835 3723.804)" fill="none" stroke="#363738" stroke-linecap="round" stroke-width="3"/>
    <g id="Grupo_10" data-name="Grupo 10" transform="matrix(0.875, -0.485, 0.485, 0.875, 1309.9, 3646.828)">
      <g id="Trazado_75" data-name="Trazado 75" transform="translate(28.244 13.315)" fill="none">
        <path d="M5.576,0H59.11l5.577,71.379H0Z" stroke="none"/>
        <path d="M 8.351200103759766 3 L 3.243545532226563 68.37850952148438 L 61.44336700439453 68.37856292724609 L 56.33560562133789 3.000045776367188 L 8.351200103759766 3 M 5.576435089111328 0 L 59.11036682128906 4.57763671875e-05 L 64.68688201904297 71.37856292724609 L 3.814697265625e-05 71.37850189208984 L 5.576435089111328 0 Z" stroke="none" fill="#363738"/>
      </g>
      <path id="Trazado_76" data-name="Trazado 76" d="M0,13.315S1.737-.089,15.724,0,31.778,13.315,31.778,13.315" transform="translate(44.622 0)" fill="none" stroke="#363738" stroke-width="3"/>
      <path id="Trazado_77" data-name="Trazado 77" d="M0,.235s13.171-2.672,14.173,9.993S1.466,23.2,1.466,23.2" transform="matrix(0.998, -0.07, 0.07, 0.998, 86.806, 32.669)" fill="none" stroke="#363738" stroke-width="3"/>
      <path id="Trazado_78" data-name="Trazado 78" d="M7.125,0,19.646,12.861l-.931,15.91L0,10.056A16.589,16.589,0,0,0,4.317,5.7,36.965,36.965,0,0,0,7.125,0Z" transform="matrix(1, 0.017, -0.017, 1, 13.51, 22.349)" fill="none" stroke="#363738" stroke-width="3"/>
      <path id="Trazado_79" data-name="Trazado 79" d="M0,21.168,17.3,0s8.068,8.056.234,17.707S0,21.168,0,21.168Z" transform="translate(0 10.511)" fill="none" stroke="#363738" stroke-width="3"/>
    </g>
    <g id="Elipse_6" data-name="Elipse 6" transform="translate(1299.11 3662.488)" fill="#131817" stroke="#363738" stroke-width="1">
      <circle cx="2.5" cy="2.5" r="2.5" stroke="none"/>
      <circle cx="2.5" cy="2.5" r="2" fill="none"/>
    </g>
    <g id="Elipse_7" data-name="Elipse 7" transform="translate(1308.11 3659.488)" fill="#131817" stroke="#363738" stroke-width="1">
      <circle cx="2.5" cy="2.5" r="2.5" stroke="none"/>
      <circle cx="2.5" cy="2.5" r="2" fill="none"/>
    </g>
    <g id="Elipse_8" data-name="Elipse 8" transform="translate(1301.11 3653.488)" fill="#131817" stroke="#363738" stroke-width="1">
      <circle cx="2.5" cy="2.5" r="2.5" stroke="none"/>
      <circle cx="2.5" cy="2.5" r="2" fill="none"/>
    </g>
    <g id="Elipse_9" data-name="Elipse 9" transform="translate(1311.11 3649.488)" fill="#131817" stroke="#363738" stroke-width="1">
      <circle cx="2.5" cy="2.5" r="2.5" stroke="none"/>
      <circle cx="2.5" cy="2.5" r="2" fill="none"/>
    </g>
    <g id="Elipse_10" data-name="Elipse 10" transform="translate(1319.11 3653.488)" fill="#131817" stroke="#363738" stroke-width="1">
      <circle cx="2.5" cy="2.5" r="2.5" stroke="none"/>
      <circle cx="2.5" cy="2.5" r="2" fill="none"/>
    </g>
    <g id="Elipse_11" data-name="Elipse 11" transform="translate(1317.11 3662.488)" fill="#131817" stroke="#363738" stroke-width="1">
      <circle cx="2.5" cy="2.5" r="2.5" stroke="none"/>
      <circle cx="2.5" cy="2.5" r="2" fill="none"/>
    </g>
  </g>
</svg>
