<svg id="Componente_1_1" data-name="Componente 1 – 1" xmlns="http://www.w3.org/2000/svg" xmlns:xlink="http://www.w3.org/1999/xlink" width="1368" height="1039" viewBox="0 0 1368 1039">
  <defs>
    <clipPath id="clip-path">
      <rect id="Rectángulo_17" data-name="Rectángulo 17" width="1368" height="1039" transform="translate(435 -2)" fill="none" stroke="#707070" stroke-width="1"/>
    </clipPath>
  </defs>
  <g id="Enmascarar_grupo_1" data-name="Enmascarar grupo 1" transform="translate(-435 2)" clip-path="url(#clip-path)">
    <g id="Grupo_11" data-name="Grupo 11" transform="translate(-116)">
      <path id="Trazado_2" data-name="Trazado 2" d="M-329.952,0H960V840L943.422,962.37l-71.582-86.6s-93.107-112.653-99.01-236.882c-11.806-248.457,239.173-351.2,157.51-559.1-15.1-38.43-274.409,145.875-498.9-31.2C357.135-10.011,27.4,110.433-57.864,66.4-229.126-22.027-329.952,0-329.952,0Z" transform="translate(969.551 0.879)" fill="#6aedf7"/>
      <path id="Trazado_1" data-name="Trazado 1" d="M-177.294,0H960V993.752S778.769,439.147,852.65,283.7c77.922-163.95,118.5-108.936,84.393-184.054C870.686-46.5,294.935,186.611,202.4,120.068S-177.294,0-177.294,0Z" transform="translate(960)" fill="#fdd300"/>
      <g id="Trazado_3" data-name="Trazado 3" transform="translate(960)" fill="#f63372">
        <path d="M 959.5 1034.888061523438 C 956.87646484375 1028.74853515625 949.0274658203125 1010.618774414063 937.7163696289063 986.5933837890625 C 929.5120239257813 969.1664428710938 921.1178588867188 952.0925903320313 912.767333984375 935.8458862304688 C 902.3285522460938 915.5361938476563 891.9285278320313 896.4691162109375 881.8563842773438 879.1741943359375 C 876.0303955078125 869.1702880859375 870.602294921875 858.93994140625 865.7229614257813 848.7669677734375 C 860.3026733398438 837.4659423828125 855.4082641601563 825.9209594726563 851.1757202148438 814.4530029296875 C 846.5470581054688 801.9109497070313 842.5828247070313 789.1163330078125 839.393310546875 776.424560546875 C 835.9445190429688 762.7011108398438 833.3069458007813 748.7212524414063 831.5538940429688 734.87353515625 C 829.674560546875 720.0292358398438 828.7598876953125 704.9282836914063 828.83544921875 689.9902954101563 C 828.9157104492188 674.08642578125 830.1206665039063 657.9280395507813 832.4166870117188 641.9640502929688 C 834.8475952148438 625.061767578125 838.569091796875 607.9092407226563 843.4777221679688 590.9827270507813 C 848.6508178710938 573.1439208984375 855.286376953125 555.0604248046875 863.1998901367188 537.2347412109375 C 878.1004028320313 503.6704406738281 892.4874877929688 454.5388488769531 905.9616088867188 391.20458984375 C 916.7374877929688 340.5527038574219 926.9585571289063 280.7493896484375 936.3405151367188 213.4560394287109 C 944.6874389648438 153.5879058837891 950.8112182617188 98.75031280517578 954.4786376953125 63.28937911987305 C 956.8504638671875 40.35647964477539 958.5283813476563 22.35293006896973 959.5 11.51325988769531 L 959.5 840.0000610351563 L 959.5 1034.888061523438 Z M 566.3143920898438 112.4785766601563 C 556.4019775390625 112.4785766601563 546.68359375 112.1111145019531 537.428955078125 111.3864440917969 C 527.8444213867188 110.6357803344727 518.48828125 109.4809799194336 509.6207885742188 107.9539108276367 C 500.4537353515625 106.375244140625 491.5512084960938 104.3544464111328 483.1605224609375 101.9477767944336 C 474.5006713867188 99.46378326416016 466.1425476074219 96.49871063232422 458.3182678222656 93.13511657714844 C 417.2887878417969 75.49658203125 367.6626586914063 59.59817886352539 310.8183898925781 45.88138198852539 C 265.3505249023438 34.909912109375 215.1874694824219 25.30124664306641 161.7223968505859 17.32244682312012 C 114.1564025878906 10.22391319274902 72.72760009765625 5.756446838378906 46.34906768798828 3.258846759796143 C 33.06072235107422 2.000566482543945 22.1538143157959 1.102195024490356 14.26910591125488 0.5000468492507935 L 957.9180908203125 0.5000468492507935 C 953.44091796875 2.76494312286377 941.0509033203125 8.937077522277832 922.9454956054688 17.2033805847168 C 909.48095703125 23.35098075866699 895.5370483398438 29.43658065795898 881.501220703125 35.2912483215332 C 863.9570922851563 42.60937881469727 846.2189331054688 49.58524703979492 828.7797241210938 56.02497863769531 C 784.392822265625 72.41577911376953 741.6505126953125 85.47525024414063 701.7405395507813 94.84071350097656 C 678.0478515625 100.4004440307617 655.1032104492188 104.7031097412109 633.5441284179688 107.6291122436523 C 609.8341064453125 110.8469772338867 587.2147827148438 112.4785766601563 566.3143920898438 112.4785766601563 Z" stroke="none"/>
        <path d="M 26.72808837890625 1 C 32.491943359375 1.485107421875 39.08428955078125 2.068603515625 46.396240234375 2.760986328125 C 72.78082275390625 5.25927734375 114.2191772460938 9.727783203125 161.7962646484375 16.82794189453125 C 215.2757568359375 24.808837890625 265.45361328125 34.4202880859375 310.9357299804688 45.3953857421875 C 367.8073120117188 59.11859130859375 417.4603881835938 75.02606201171875 458.5157470703125 92.6756591796875 C 466.3206787109375 96.031005859375 474.6588134765625 98.98883056640625 483.2984008789063 101.4669799804688 C 491.6717224121094 103.8687133789063 500.556396484375 105.8853759765625 509.7055969238281 107.4609985351563 C 518.55810546875 108.9853515625 527.898681640625 110.1383056640625 537.4681396484375 110.8877563476563 C 546.709716796875 111.6115112304688 556.4150390625 111.9784545898438 566.3143920898438 111.9784545898438 C 587.1913452148438 111.9784545898438 609.7868041992188 110.3485717773438 633.4730224609375 107.134033203125 C 655.0153198242188 104.21044921875 677.9429321289063 99.9112548828125 701.6187744140625 94.35552978515625 C 741.5072021484375 84.99566650390625 784.2277221679688 71.943115234375 828.59375 55.56060791015625 C 846.0262451171875 49.12353515625 863.7577514648438 42.15045166015625 881.2954711914063 34.83526611328125 C 895.32666015625 28.98272705078125 909.2659912109375 22.89923095703125 922.7262573242188 16.75390625 C 938.7238159179688 9.4500732421875 950.258056640625 3.7816162109375 955.8121948242188 1 L 26.72808837890625 1 M 959 22.47113037109375 C 958.017578125 33.0189208984375 956.6747436523438 46.91571044921875 954.9760131835938 63.3406982421875 C 951.30810546875 98.8057861328125 945.18359375 153.6497802734375 936.8357543945313 213.5250854492188 C 927.4520263671875 280.8302001953125 917.2290649414063 340.6451416015625 906.4505615234375 391.30859375 C 892.9693603515625 454.6768188476563 878.5714721679688 503.8416748046875 863.6569213867188 537.4375 C 855.7525634765625 555.24267578125 849.1248168945313 573.3048095703125 843.9578857421875 591.1220703125 C 839.0557250976563 608.0263061523438 835.3392333984375 625.1558837890625 832.91162109375 642.0352783203125 C 830.6187744140625 657.9765625 829.4155883789063 674.11181640625 829.33544921875 689.9928588867188 C 829.260009765625 704.9091186523438 830.17333984375 719.988037109375 832.0498657226563 734.8106689453125 C 833.800537109375 748.6385498046875 836.4343872070313 762.5985717773438 839.8782958984375 776.302734375 C 843.0634765625 788.9772338867188 847.0222778320313 801.7545776367188 851.644775390625 814.27978515625 C 855.8718872070313 825.7332763671875 860.7601318359375 837.263671875 866.1738891601563 848.5505981445313 C 871.04736328125 858.7115478515625 876.4690551757813 868.9300537109375 882.2883911132813 878.9224243164063 C 892.3650512695313 896.224853515625 902.7692260742188 915.2998046875 913.2119750976563 935.6172485351563 C 921.565185546875 951.869140625 929.9618530273438 968.9481811523438 938.1688232421875 986.3803100585938 C 948.3329467773438 1007.969665527344 955.7034301757813 1024.802368164063 959 1032.454956054688 L 959 840.0000610351563 L 959 22.47113037109375 M 0 0 L 960 0 C 960 0 741.8037719726563 112.978515625 566.314453125 112.978515625 C 527.1552124023438 112.978515625 490.1289672851563 107.3546142578125 458.1207885742188 93.59429931640625 C 278.3560180664063 16.31365966796875 0 0 0 0 Z M 960 0 L 960 840.0000610351563 L 960 1037.344360351563 C 960 1037.344360351563 925.5628051757813 955.2157592773438 881.4242553710938 879.4256591796875 C 837.285888671875 803.635498046875 797.4791870117188 684.0421752929688 862.742919921875 537.03173828125 C 928.0066528320313 390.021240234375 960 0 960 0 Z" stroke="none" fill="#707070"/>
      </g>
    </g>
  </g>
</svg>
