<svg width="177" height="36" viewBox="0 0 177 36" fill="none" xmlns="http://www.w3.org/2000/svg">
<path d="M63.5692 16.6488V25.446C63.5692 26.114 63.3741 26.6398 62.9805 27.0202C62.587 27.4005 62.0446 27.5923 61.3534 27.5923C60.6622 27.5923 60.1132 27.4005 59.7097 27.0202C59.3029 26.6398 59.1012 26.114 59.1012 25.446V16.6488C59.1012 15.3855 58.8432 14.4628 58.3306 13.8774C57.818 13.292 57.0144 13.001 55.9164 13.001C54.6299 13.001 53.598 13.4078 52.8242 14.218C52.0503 15.0283 51.6633 16.1131 51.6633 17.4723V25.446C51.6633 26.114 51.4616 26.6398 51.0548 27.0202C50.648 27.4005 50.1023 27.5923 49.4111 27.5923C48.7199 27.5923 48.1775 27.4005 47.784 27.0202C47.3904 26.6398 47.1953 26.114 47.1953 25.446V4.06165C47.1953 3.4432 47.4037 2.94051 47.8204 2.56018C48.2371 2.17985 48.7795 1.98804 49.4475 1.98804C50.1156 1.98804 50.6513 2.16663 51.0581 2.5238C51.4616 2.88098 51.6666 3.37044 51.6666 3.98889V12.323C52.2619 11.3937 53.0557 10.6826 54.0445 10.1965C55.0334 9.70702 56.1611 9.46229 57.4245 9.46229C61.5188 9.45898 63.5692 11.8567 63.5692 16.6488Z" fill="#393A3E"/>
<path d="M84.7215 23.0514C84.9729 23.3623 85.0952 23.779 85.0952 24.3015C85.0952 25.0423 84.6554 25.6608 83.7724 26.1602C82.9621 26.6133 82.0427 26.977 81.0175 27.2515C79.9922 27.526 79.0133 27.6616 78.084 27.6616C75.2696 27.6616 73.0405 26.8514 71.3969 25.2309C69.7532 23.6103 68.9297 21.3912 68.9297 18.5801C68.9297 16.7909 69.2869 15.2068 70.0012 13.8243C70.7156 12.4419 71.7243 11.3704 73.024 10.6064C74.3237 9.84249 75.7954 9.46216 77.4391 9.46216C79.0133 9.46216 80.3825 9.80941 81.5532 10.5006C82.7207 11.1918 83.6268 12.1707 84.2718 13.4341C84.9167 14.6974 85.2375 16.189 85.2375 17.9054C85.2375 18.9306 84.7844 19.4433 83.8782 19.4433H73.3283C73.4705 21.0869 73.9368 22.2974 74.7239 23.0746C75.511 23.8484 76.6553 24.2354 78.1568 24.2354C78.9207 24.2354 79.5921 24.1395 80.1774 23.9477C80.7628 23.7558 81.4243 23.4946 82.1618 23.1605C82.8761 22.7802 83.402 22.5884 83.736 22.5884C84.1428 22.5851 84.4702 22.7405 84.7215 23.0514ZM74.6379 13.7516C73.9103 14.5155 73.4771 15.6102 73.3316 17.0422H81.4143C81.3647 15.5871 81.0076 14.4858 80.3428 13.7351C79.6748 12.9843 78.7454 12.6073 77.5548 12.6073C76.3345 12.6073 75.3622 12.9876 74.6379 13.7516Z" fill="#393A3E"/>
<path d="M103.354 9.87227C103.675 9.67053 104.029 9.56801 104.409 9.56801C104.958 9.56801 105.451 9.75321 105.894 10.1236C106.334 10.494 106.555 10.9537 106.555 11.4994C106.555 11.7607 106.482 12.0352 106.34 12.3229L96.5774 32.7779C96.1706 33.5881 95.539 33.9949 94.6824 33.9949C94.1334 33.9949 93.6506 33.823 93.2338 33.4757C92.8171 33.1284 92.6088 32.6952 92.6088 32.1694C92.6088 31.9081 92.6815 31.6104 92.8238 31.2764L95.2545 26.1635L88.6005 12.3196C88.4814 12.0815 88.4219 11.807 88.4219 11.4961C88.4219 10.9471 88.6534 10.4841 89.1197 10.1005C89.586 9.72014 90.1152 9.52832 90.7105 9.52832C91.1139 9.52832 91.4843 9.63084 91.8184 9.83258C92.1524 10.0343 92.4137 10.3518 92.6055 10.7817L97.6126 21.8311L102.583 10.8148C102.775 10.3915 103.033 10.074 103.354 9.87227Z" fill="#393A3E"/>
<path d="M126.938 2.55652C127.368 2.93685 127.583 3.43954 127.583 4.05798V25.4456C127.583 26.0905 127.381 26.6031 126.974 26.9834C126.567 27.3638 126.032 27.5556 125.364 27.5556C124.696 27.5556 124.16 27.3638 123.753 26.9834C123.346 26.6031 123.144 26.0905 123.144 25.4456V24.5527C122.619 25.5316 121.861 26.2922 120.872 26.8412C119.884 27.3902 118.756 27.6647 117.492 27.6647C115.991 27.6647 114.648 27.2844 113.468 26.5204C112.287 25.7565 111.371 24.6783 110.713 23.2827C110.058 21.8871 109.73 20.2831 109.73 18.474C109.73 16.6617 110.058 15.0775 110.713 13.7183C111.368 12.359 112.28 11.3107 113.448 10.5698C114.615 9.83234 115.961 9.46194 117.489 9.46194C118.752 9.46194 119.874 9.72321 120.853 10.249C121.831 10.7749 122.582 11.5124 123.105 12.4649V3.98853C123.105 3.39324 123.3 2.91039 123.693 2.53998C124.087 2.16958 124.616 1.98438 125.284 1.98438C125.962 1.98437 126.511 2.17619 126.938 2.55652ZM121.987 22.7271C122.761 21.7482 123.148 20.3558 123.148 18.5435C123.148 16.7311 122.761 15.3421 121.987 14.3764C121.213 13.4107 120.122 12.9279 118.716 12.9279C117.284 12.9279 116.176 13.4041 115.389 14.3599C114.602 15.3124 114.208 16.6848 114.208 18.474C114.208 20.2864 114.602 21.6919 115.389 22.694C116.176 23.6961 117.271 24.1955 118.68 24.1955C120.108 24.1955 121.21 23.706 121.987 22.7271Z" fill="#393A3E"/>
<path d="M145.214 9.92499C145.571 10.2359 145.75 10.6989 145.75 11.3206C145.75 11.9655 145.595 12.4418 145.284 12.7526C144.973 13.0635 144.414 13.2653 143.604 13.3612L142.532 13.467C141.127 13.6092 140.095 14.0887 139.44 14.899C138.785 15.7093 138.458 16.7213 138.458 17.9383V25.4456C138.458 26.1368 138.243 26.6693 137.813 27.0364C137.383 27.4068 136.847 27.592 136.202 27.592C135.557 27.592 135.028 27.4068 134.611 27.0364C134.195 26.666 133.986 26.1368 133.986 25.4456V11.605C133.986 10.937 134.195 10.4244 134.611 10.0672C135.028 9.71002 135.547 9.53143 136.166 9.53143C136.784 9.53143 137.287 9.70341 137.667 10.0507C138.048 10.3979 138.239 10.8907 138.239 11.5356V12.9676C138.692 11.9192 139.367 11.109 140.26 10.5368C141.153 9.96468 142.148 9.64388 143.246 9.57112L143.746 9.53474C144.368 9.48513 144.857 9.61411 145.214 9.92499Z" fill="#393A3E"/>
<path d="M164.918 10.1036C165.325 10.484 165.527 10.9966 165.527 11.6415V25.5185C165.527 26.1402 165.319 26.6396 164.902 27.0199C164.485 27.4003 163.943 27.5921 163.275 27.5921C162.63 27.5921 162.117 27.4135 161.737 27.0563C161.357 26.6991 161.165 26.2097 161.165 25.5912V24.6983C160.616 25.6507 159.878 26.3849 158.946 26.8976C158.016 27.4102 156.968 27.6681 155.797 27.6681C151.504 27.6681 149.361 25.2605 149.361 20.4452V11.6481C149.361 11.0032 149.563 10.4906 149.97 10.1103C150.373 9.72993 150.912 9.53811 151.58 9.53811C152.272 9.53811 152.821 9.72993 153.224 10.1103C153.631 10.4906 153.833 11.0032 153.833 11.6481V20.4816C153.833 21.7218 154.084 22.6412 154.583 23.2365C155.083 23.8318 155.87 24.1294 156.945 24.1294C158.185 24.1294 159.18 23.7193 159.931 22.8959C160.682 22.0724 161.059 20.981 161.059 19.625V11.6415C161.059 10.9966 161.261 10.484 161.667 10.1036C162.071 9.72331 162.61 9.53149 163.278 9.53149C163.966 9.53149 164.515 9.72331 164.918 10.1036Z" fill="#393A3E"/>
<path d="M173.163 19.7242C172.912 19.486 172.763 19.1388 172.717 18.6857L171.394 4.77234L171.357 4.41516C171.357 3.67766 171.612 3.08567 172.128 2.64581C172.641 2.20596 173.289 1.98438 174.076 1.98438C174.909 1.98438 175.591 2.24234 176.113 2.75495C176.636 3.26757 176.851 3.95215 176.758 4.81202L175.435 18.689C175.389 19.1421 175.24 19.4893 174.989 19.7275C174.737 19.9656 174.433 20.0846 174.076 20.0846C173.715 20.0813 173.415 19.9623 173.163 19.7242ZM172.178 26.8214C171.678 26.3088 171.427 25.6705 171.427 24.9065C171.427 24.1426 171.678 23.5076 172.178 22.9917C172.677 22.479 173.309 22.2211 174.073 22.2211C174.837 22.2211 175.468 22.479 175.968 22.9917C176.467 23.5043 176.718 24.1426 176.718 24.9065C176.718 25.6705 176.467 26.3088 175.968 26.8214C175.468 27.334 174.837 27.592 174.073 27.592C173.312 27.592 172.68 27.3373 172.178 26.8214Z" fill="#393A3E"/>
<path d="M34.4752 15.6174C33.7179 7.62063 27.3978 1.10877 19.4506 0.133145C14.0831 -0.524986 8.83124 1.27743 5.0412 5.0807C1.25116 8.88067 -0.534726 14.1391 0.139941 19.5067C1.13541 27.4142 7.62742 33.7078 15.5779 34.4684C18.2204 34.7231 20.8727 34.3758 23.3234 33.4597C24.934 34.9645 26.9745 35.7516 29.2928 35.7516C30.2784 35.7516 31.1812 35.2489 31.7071 34.4122C32.2296 33.5821 32.2892 32.5536 31.8691 31.6639C31.8526 31.6308 31.7038 31.2803 31.5748 30.7081C31.1052 28.6279 31.8129 26.6932 32.4942 25.4365C34.1114 22.4335 34.7993 19.0371 34.4752 15.6174ZM28.8828 33.0827C28.8794 33.0761 28.8794 33.0728 28.8761 33.0662C28.8761 33.0728 28.8794 33.0794 28.8828 33.0827ZM29.5806 23.8689C28.6347 25.6217 27.6525 28.36 28.347 31.439C28.433 31.816 28.5289 32.1468 28.6182 32.4146C27.1729 32.2625 25.9658 31.6044 25.0266 30.4535L24.2196 29.4646L23.0588 29.9938C20.8397 31.0058 18.3593 31.4159 15.8921 31.1778C9.46953 30.5626 4.22432 25.4795 3.42068 19.0933C2.87168 14.7443 4.31692 10.488 7.38269 7.41558C10.4485 4.33989 14.7015 2.88473 19.0472 3.41719C25.4664 4.2043 30.5694 9.46604 31.1812 15.9283C31.4425 18.6964 30.8902 21.4414 29.5806 23.8689Z" fill="#F0216C"/>
</svg>
