<svg xmlns="http://www.w3.org/2000/svg" width="275.865" height="356.507" viewBox="0 0 275.865 356.507">
  <g id="Grupo_13" data-name="Grupo 13" transform="translate(-400.055 -2435.24)">
    <path id="_013-woman" data-name="013-woman" d="M177.119,137.172v15.262a2.584,2.584,0,0,1-5.167,0V137.172a21.487,21.487,0,0,0-21.5-21.5A15.863,15.863,0,0,1,136.8,108.01a2.584,2.584,0,0,1,4.413-2.688,10.734,10.734,0,0,0,9.235,5.184A26.652,26.652,0,0,1,177.119,137.172Zm-39.686-19.128a19.6,19.6,0,0,1-29.5-5,15.879,15.879,0,0,0,7.123-12.033,34.593,34.593,0,0,0,44.3-32.884c0-.032.013-18.459-.019-18.718a2.583,2.583,0,0,0-2.723-2.254,10.39,10.39,0,0,1-6.582-1.253c-4.86-2.924-4.885-9.332-4.884-9.4a2.585,2.585,0,0,0-4.076-2.125,83.266,83.266,0,0,1-36.633,14.536,2.584,2.584,0,0,0,.355,5.143c.772,0,18.3-1.922,35.832-13.15,1.906,7.155,7.258,11.121,13.565,11.479V67.861a29.389,29.389,0,1,1-58.777,0V49.735a2.584,2.584,0,1,0-5.167,0V65.018a5.494,5.494,0,0,1-2.907-4.842V34.88A29.747,29.747,0,0,1,117.051,5.167h15.5a29.745,29.745,0,0,1,29.712,29.712v25.3a2.584,2.584,0,0,0,5.167,0v-25.3A34.8,34.8,0,0,0,155.8,8.9a11.305,11.305,0,0,1,16.858,15.067,2.584,2.584,0,0,0,3.865,3.43C185.913,16.817,178.374,0,164.2,0a16.573,16.573,0,0,0-12.489,5.75A34.676,34.676,0,0,0,132.551,0h-15.5a34.92,34.92,0,0,0-34.88,34.88v25.3A10.674,10.674,0,0,0,90.35,70.54a34.625,34.625,0,0,0,19.595,28.517v.68a10.771,10.771,0,0,1-10.8,10.768,26.651,26.651,0,0,0-26.667,26.667v15.262a2.584,2.584,0,0,0,5.167,0V137.172a21.488,21.488,0,0,1,21.5-21.5,16.08,16.08,0,0,0,4.039-.514,24.78,24.78,0,0,0,19.029,12.536v24.739a2.584,2.584,0,0,0,5.167,0V127.69A24.842,24.842,0,0,0,140.761,122a2.584,2.584,0,1,0-3.328-3.953Z" transform="translate(327.573 2435.24)"/>
    <path id="_035-man" data-name="035-man" d="M182.651,137.174v15.26a2.583,2.583,0,0,1-5.167,0v-15.26a21.485,21.485,0,0,0-21.5-21.5,15.86,15.86,0,0,1-13.646-7.663,2.583,2.583,0,1,1,4.412-2.687,10.732,10.732,0,0,0,9.234,5.183A26.649,26.649,0,0,1,182.651,137.174ZM134.5,109.3a19.564,19.564,0,0,1-15.251-3.007,15.809,15.809,0,0,0,1.351-5.274,34.59,34.59,0,0,0,44.295-33.152c0-21.91.027-21.561-.062-22.46a2.586,2.586,0,1,0-5.142.507c.058.586.037,1.1.037,21.953a29.386,29.386,0,1,1-58.771,0c0-5.82-.062-10.326-.082-13.706a13.145,13.145,0,0,1,16.272-12.887c11.965,2.869,16.788,10.332,32.125,9.618a2.583,2.583,0,0,0-.242-5.161c-13.826.65-17.658-6.359-30.678-9.481A18.309,18.309,0,0,0,95.7,54.2c.017,2.747.054,5.755.072,9.46a5.334,5.334,0,0,1-2.9-4.721c0-.059,0-13.419,0-13.477-.129-5.855.7-20.569,11.223-30.708C115.853,3.424,134.239,3.42,148.535,8.4l-2.065.85a2.586,2.586,0,0,0,.708,4.957l4.541.486a29.845,29.845,0,0,1,21.42,12.575,21.99,21.99,0,0,0-5.019,14.043V58.936a2.583,2.583,0,0,0,5.167,0V41.314A16.87,16.87,0,0,1,178.168,29.4a2.758,2.758,0,0,0,.373-3.308,34.873,34.873,0,0,0-21.562-15.712,2.587,2.587,0,0,0-.5-4.278A61.231,61.231,0,0,0,128.06.039c-25.792,1-40.89,20.262-40.346,45.506V58.937a10.541,10.541,0,0,0,8.1,10.211,34.6,34.6,0,0,0,19.672,29.916v.68a10.77,10.77,0,0,1-10.794,10.767,26.648,26.648,0,0,0-26.664,26.664v15.26a2.583,2.583,0,1,0,5.167,0v-15.26a21.485,21.485,0,0,1,21.5-21.5,15.86,15.86,0,0,0,11.687-5.084,24.724,24.724,0,0,0,19.219,3.759,2.584,2.584,0,0,0-1.1-5.049Zm22,32.474h-7.75a2.583,2.583,0,1,0,0,5.167h7.75a2.583,2.583,0,0,0,0-5.167Z" transform="translate(478.029 2435.24)"/>
    <path id="_039-man" data-name="039-man" d="M155.964,110.5a10.733,10.733,0,0,1-9.234-5.183A2.583,2.583,0,1,0,142.318,108a15.94,15.94,0,0,0,5.4,5.385l-2.677,12.151-6.455-7.433a2.587,2.587,0,1,0-3.765-3.544l-4.542,5.224L118.839,107.07a15.779,15.779,0,0,0,1.733-6.06,34.591,34.591,0,0,0,44.3-33.153c0-21.911.027-21.562-.062-22.46a2.586,2.586,0,1,0-5.142.507c.058.586.037,1.1.037,21.953a29.387,29.387,0,0,1-58.773,0c0-5.82-.062-10.327-.082-13.706a13.146,13.146,0,0,1,16.272-12.887c12.127,2.908,16.7,10.337,32.126,9.618A2.583,2.583,0,0,0,149,45.721c-13.871.654-17.556-6.335-30.679-9.482A18.31,18.31,0,0,0,95.679,54.183c.017,2.747.054,5.755.072,9.461a5.335,5.335,0,0,1-2.9-4.722V34.715A29.582,29.582,0,0,1,122.4,5.167h16.147A29.582,29.582,0,0,1,168.1,34.715V58.922a2.583,2.583,0,0,0,5.167,0V34.715A34.754,34.754,0,0,0,138.549,0H122.4A34.755,34.755,0,0,0,87.688,34.715V58.922a10.542,10.542,0,0,0,8.1,10.211A34.606,34.606,0,0,0,115.46,99.051v.68a10.776,10.776,0,0,1-10.8,10.767A26.65,26.65,0,0,0,78,137.162v15.261a2.583,2.583,0,0,0,5.167,0V137.162a21.486,21.486,0,0,1,21.5-21.5,16.124,16.124,0,0,0,3.375-.359l3.6,16.36a2.586,2.586,0,0,0,4.474,1.138l9.3-10.7c2.91,3.233,2.989,3.339,3.205,3.533a2.584,2.584,0,0,0,3.171.168c.327-.227.149-.049,3.375-3.759l9.346,10.762a2.586,2.586,0,0,0,4.474-1.138l3.6-16.36a16.223,16.223,0,0,0,3.375.359,21.486,21.486,0,0,1,21.5,21.5v15.261a2.583,2.583,0,0,0,5.167,0V137.162A26.65,26.65,0,0,0,155.964,110.5Zm-40.378,15.04-2.678-12.154a16.025,16.025,0,0,0,2.76-2.113l6.264,6.96ZM145.219,74.11c-4.967.524-4.965-3.174-9.095-4.265a8.593,8.593,0,0,0-5.81.679,8.591,8.591,0,0,0-5.81-.679c-4.137,1.093-4.127,4.791-9.1,4.265a2.585,2.585,0,0,0-2.616,3.657c.129.276,3.228,6.784,10.231,7.446a12.353,12.353,0,0,0,7.29-1.637,12.3,12.3,0,0,0,7.29,1.637c7-.662,10.1-7.17,10.231-7.446a2.585,2.585,0,0,0-2.616-3.657Zm-13.3,4.34a2.583,2.583,0,0,0-3.212,0,6.874,6.874,0,0,1-8.646.226c5.178-1.854,4.371-5.666,8.958-3.013a2.582,2.582,0,0,0,2.587,0c4.578-2.646,3.8,1.165,8.958,3.013A6.878,6.878,0,0,1,131.921,78.45Z" transform="translate(322.055 2636.74)"/>
    <path id="_029-woman" data-name="029-woman" d="M162.924,137.16v15.262a2.584,2.584,0,1,1-5.167,0V137.16a21.487,21.487,0,0,0-21.5-21.5A15.862,15.862,0,0,1,122.61,108a2.583,2.583,0,0,1,4.413-2.688,10.733,10.733,0,0,0,9.234,5.184A26.651,26.651,0,0,1,162.924,137.16Zm7.582-47.448a10.447,10.447,0,0,0-.562-12.5L165,71.129a5.326,5.326,0,0,1-.979-4.9l2.922-9.7a10.5,10.5,0,0,0-4.251-11.779l-5.809-3.91a5.377,5.377,0,0,1-2.223-5.885,10.641,10.641,0,0,0-9.94-13.392l-2.569-.109a9.376,9.376,0,0,1-8.886-7.444l-.181-.9A10.724,10.724,0,0,0,117.3,6.028a5.65,5.65,0,0,1-6.69-.863l-2.158-2.113a10.83,10.83,0,0,0-15.072,0L88.667,7.668a5.548,5.548,0,0,1-2.994,1.51l-9.747,1.611A13.9,13.9,0,0,0,64.644,28.151l1.914,6.873a5.277,5.277,0,0,1-2.18,5.788L58.461,44.8a10.4,10.4,0,0,0-4.211,11.671l2.957,9.812a5.231,5.231,0,0,1-.961,4.81L51.224,77.27a10.351,10.351,0,0,0-.557,12.383l4.835,7.17a5.216,5.216,0,0,1-.271,6.221l-.716.887A11.927,11.927,0,0,0,55.474,120a2.584,2.584,0,0,0,3.616-3.692,6.779,6.779,0,0,1-.551-9.131l.716-.887a10.357,10.357,0,0,0,.533-12.353l-4.836-7.17a5.214,5.214,0,0,1,.284-6.236l5.021-6.181a10.394,10.394,0,0,0,1.9-9.558L59.2,54.976a5.26,5.26,0,0,1,2.15-5.893L67.263,45.1a10.436,10.436,0,0,0,4.273-11.46l-1.914-6.873A8.725,8.725,0,0,1,76.77,15.887l9.747-1.611a10.688,10.688,0,0,0,5.766-2.916L97,6.744a5.635,5.635,0,0,1,7.842,0L107,8.857a10.845,10.845,0,0,0,12.838,1.675,5.552,5.552,0,0,1,8.185,3.6l.181.9a14.532,14.532,0,0,0,13.732,11.587l2.569.109a5.475,5.475,0,0,1,5.179,6.852A10.539,10.539,0,0,0,154,45.133l5.809,3.91a5.355,5.355,0,0,1,2.189,6l-2.922,9.7a10.487,10.487,0,0,0,1.916,9.646l4.944,6.086a5.309,5.309,0,0,1,.289,6.351l-4.756,7.052A10.453,10.453,0,0,0,162,106.343,8.025,8.025,0,0,1,164.033,110a2.584,2.584,0,0,0,5.048-1.1,12.858,12.858,0,0,0-3.056-5.8,5.312,5.312,0,0,1-.276-6.335Zm-26.429,34.23a57.812,57.812,0,0,1-51.71-10.095,15.907,15.907,0,0,0,8.5-12.852,34.581,34.581,0,0,0,44.3-32.874c0-.057,0-13.419,0-13.476a25.865,25.865,0,0,0-25.836-25.836h-8.864c-8.771,0-16.806,5.012-19.993,12.473-1.946,4.555-1.111,7.6-1.779,11.2-1.1,5.915-5.913,11.526-14.312,16.677a2.584,2.584,0,1,0,2.7,4.4c9.7-5.948,15.315-12.723,16.691-20.139.769-4.141-.047-6.608,1.45-10.114,2.386-5.584,8.511-9.336,15.242-9.336h8.864a20.692,20.692,0,0,1,20.669,20.669V67.851A29.394,29.394,0,0,1,83.849,80.025a2.584,2.584,0,1,0-4.7,2.143,34.618,34.618,0,0,0,16.6,16.863v.7a10.771,10.771,0,0,1-10.8,10.768,26.651,26.651,0,0,0-26.667,26.666v15.262a2.584,2.584,0,1,0,5.167,0V137.162a21.487,21.487,0,0,1,21.5-21.5c.476,0,.946-.024,1.41-.064a63.045,63.045,0,0,0,59.1,13.323,2.584,2.584,0,0,0-1.385-4.979Z" transform="translate(503.608 2636.74)"/>
  </g>
</svg>
