<svg xmlns="http://www.w3.org/2000/svg" width="212.5" height="38.36" viewBox="0 0 212.5 38.36">
  <g id="Grupo_1" data-name="Grupo 1" transform="translate(-18.68 -18.94)">
    <path id="Trazado_1" data-name="Trazado 1" d="M67.05,30.22l4.47-.72v4.65h5.37v3.72H71.52v5.55A4.42,4.42,0,0,0,72,45.67a2.13,2.13,0,0,0,2,.84,8.5,8.5,0,0,0,1.48-.14,7.721,7.721,0,0,0,1.4-.37l.63,3.48a12.72,12.72,0,0,1-1.8.57,10.49,10.49,0,0,1-2.43.24,8,8,0,0,1-3-.5,4.75,4.75,0,0,1-1.92-1.38,5.12,5.12,0,0,1-1-2.14,12.679,12.679,0,0,1-.28-2.79Z" fill="#0096c9"/>
    <path id="Trazado_2" data-name="Trazado 2" d="M90,38.11c-.4-.1-.87-.21-1.41-.32a8.72,8.72,0,0,0-1.74-.16,8,8,0,0,0-1,.07,5.71,5.71,0,0,0-.88.17V49.93H80.52V35a26.65,26.65,0,0,1,2.83-.8A16.4,16.4,0,0,1,87,33.82h.87l1,.12,1,.18a4.779,4.779,0,0,1,.87.26Z" fill="#0096c9"/>
    <path id="Trazado_3" data-name="Trazado 3" d="M98.55,33.73a10.35,10.35,0,0,1,3.3.45A5.11,5.11,0,0,1,104,35.47a4.75,4.75,0,0,1,1.13,2,10.059,10.059,0,0,1,.33,2.67v9.3c-.64.14-1.53.3-2.67.49a25.6,25.6,0,0,1-4.14.29A13.17,13.17,0,0,1,95.83,50a6,6,0,0,1-2.14-.89,4,4,0,0,1-1.38-1.6,5.54,5.54,0,0,1-.48-2.43,4.6,4.6,0,0,1,.55-2.34,4.28,4.28,0,0,1,1.49-1.53A6.72,6.72,0,0,1,96,40.37a12,12,0,0,1,2.49-.25,14.14,14.14,0,0,1,1.54.07,6.88,6.88,0,0,1,1.1.2V40a2.47,2.47,0,0,0-.69-1.83,3.34,3.34,0,0,0-2.4-.69,15.279,15.279,0,0,0-2.25.16,9.63,9.63,0,0,0-1.92.47l-.57-3.6c.26-.08.58-.17,1-.26s.82-.17,1.28-.24.94-.13,1.45-.18A14.733,14.733,0,0,1,98.55,33.73Zm.36,13.08h1.26a8.771,8.771,0,0,0,1-.09V43.3q-.27-.06-.81-.12a9.16,9.16,0,0,0-2.18,0,3.07,3.07,0,0,0-1,.29,1.67,1.67,0,0,0-.66.57,1.59,1.59,0,0,0-.24.9A1.52,1.52,0,0,0,97,46.4a3.91,3.91,0,0,0,1.91.41Z" fill="#0096c9"/>
    <path id="Trazado_4" data-name="Trazado 4" d="M109.47,34.69a24.79,24.79,0,0,1,2.94-.62,24.17,24.17,0,0,1,3.78-.28,9.19,9.19,0,0,1,3.34.52,5.05,5.05,0,0,1,2.12,1.49,5.79,5.79,0,0,1,1.11,2.28,12.13,12.13,0,0,1,.33,2.94v8.91h-4.47V41.56a6,6,0,0,0-.57-3.06,2.33,2.33,0,0,0-2.13-.9h-1a8.049,8.049,0,0,0-1,.11V49.93h-4.47Z" fill="#0096c9"/>
    <path id="Trazado_5" data-name="Trazado 5" d="M131,49.93q-1.53-3-3.12-7t-3-8.76h4.74c.2.78.44,1.62.71,2.53s.55,1.83.84,2.76.58,1.84.87,2.72.58,1.68.86,2.4c.26-.72.55-1.52.85-2.4s.59-1.79.88-2.72.58-1.85.85-2.76.5-1.75.71-2.53h4.62q-1.41,4.74-3,8.76t-3.11,7Z" fill="#0096c9"/>
    <path id="Trazado_6" data-name="Trazado 6" d="M149.28,28.48l-4.94,4.17-2.05-1.83L146.53,26Zm-1.65,21.45h-4.47V34.15h4.47Z" fill="#0096c9"/>
    <path id="Trazado_7" data-name="Trazado 7" d="M157.5,33.73a10.35,10.35,0,0,1,3.3.45,5.11,5.11,0,0,1,2.11,1.29,4.75,4.75,0,0,1,1.13,2,10.059,10.059,0,0,1,.33,2.67v9.3c-.64.14-1.53.3-2.67.49a25.6,25.6,0,0,1-4.14.29,13.17,13.17,0,0,1-2.78-.27,6,6,0,0,1-2.14-.89,4,4,0,0,1-1.38-1.6,5.54,5.54,0,0,1-.48-2.43,4.6,4.6,0,0,1,.55-2.34,4.28,4.28,0,0,1,1.49-1.53,6.72,6.72,0,0,1,2.13-.83,12,12,0,0,1,2.49-.25,14.142,14.142,0,0,1,1.54.07,6.88,6.88,0,0,1,1.1.2V40a2.47,2.47,0,0,0-.69-1.83,3.34,3.34,0,0,0-2.4-.69,15.28,15.28,0,0,0-2.25.16,9.63,9.63,0,0,0-1.92.47l-.57-3.6c.26-.08.58-.17,1-.26s.82-.17,1.28-.24.94-.13,1.45-.18S157,33.73,157.5,33.73Zm.36,13.08h1.26a8.771,8.771,0,0,0,1-.09V43.3q-.27-.06-.81-.12a9.16,9.16,0,0,0-2.18,0,3.07,3.07,0,0,0-1,.29,1.67,1.67,0,0,0-.66.57,1.59,1.59,0,0,0-.24.9,1.52,1.52,0,0,0,.7,1.45,3.91,3.91,0,0,0,1.93.42Z" fill="#0096c9"/>
    <path id="Trazado_8" data-name="Trazado 8" d="M172,48.31a2,2,0,0,1-.54,1.41,2.037,2.037,0,1,1,0-2.82A2,2,0,0,1,172,48.31Z" fill="#0096c9"/>
    <path id="Trazado_9" data-name="Trazado 9" d="M178.71,34.33h5.91v2.34h-5.91v7.2a8.609,8.609,0,0,0,.18,1.93,2.91,2.91,0,0,0,.54,1.2,2,2,0,0,0,.9.62,4,4,0,0,0,1.26.18,5.88,5.88,0,0,0,2-.29l1.07-.4.54,2.31a10.51,10.51,0,0,1-1.47.52,8.35,8.35,0,0,1-2.4.32,7.3,7.3,0,0,1-2.63-.41,3.8,3.8,0,0,1-1.66-1.21,4.89,4.89,0,0,1-.89-2,13.119,13.119,0,0,1-.25-2.74V30l2.79-.48Z" fill="#0096c9"/>
    <path id="Trazado_10" data-name="Trazado 10" d="M187,42.16a10,10,0,0,1,.6-3.62A7.53,7.53,0,0,1,189.18,36a6.46,6.46,0,0,1,2.28-1.53,7.12,7.12,0,0,1,2.64-.51,6,6,0,0,1,4.83,2q1.68,2,1.68,6v.46a4.334,4.334,0,0,1,0,.53H189.9a5.71,5.71,0,0,0,1.41,3.69,5.16,5.16,0,0,0,3.84,1.26,10.16,10.16,0,0,0,2.47-.26,9.08,9.08,0,0,0,1.52-.49l.39,2.34a8.36,8.36,0,0,1-1.79.57,12.64,12.64,0,0,1-2.89.3,9.21,9.21,0,0,1-3.53-.62A6.55,6.55,0,0,1,188.88,48a7,7,0,0,1-1.43-2.57,10.819,10.819,0,0,1-.45-3.27Zm10.71-1.53a4.7,4.7,0,0,0-.95-3.11,3.24,3.24,0,0,0-2.68-1.21,3.7,3.7,0,0,0-1.7.37,4,4,0,0,0-1.24,1,4.5,4.5,0,0,0-.8,1.38,6.8,6.8,0,0,0-.37,1.59Z" fill="#0096c9"/>
    <path id="Trazado_11" data-name="Trazado 11" d="M211.41,50.29a8.52,8.52,0,0,1-3.32-.6,6.67,6.67,0,0,1-2.4-1.68,7,7,0,0,1-1.45-2.57,10.611,10.611,0,0,1-.48-3.28,9.93,9.93,0,0,1,.52-3.3,7.83,7.83,0,0,1,1.49-2.6,6.64,6.64,0,0,1,2.35-1.71,7.64,7.64,0,0,1,3.11-.61,12.41,12.41,0,0,1,2.1.18,9.66,9.66,0,0,1,2,.57l-.63,2.37a6.76,6.76,0,0,0-1.46-.48,8.17,8.17,0,0,0-1.75-.18,4.45,4.45,0,0,0-3.59,1.47,6.48,6.48,0,0,0-1.24,4.29,8.811,8.811,0,0,0,.28,2.31,4.77,4.77,0,0,0,.9,1.8,4,4,0,0,0,1.58,1.15,6,6,0,0,0,2.34.41,8.86,8.86,0,0,0,2-.21,7.349,7.349,0,0,0,1.41-.45l.39,2.34a3,3,0,0,1-.69.28,9.673,9.673,0,0,1-1,.24c-.38.07-.79.13-1.22.18A10.73,10.73,0,0,1,211.41,50.29Z" fill="#0096c9"/>
    <path id="Trazado_12" data-name="Trazado 12" d="M218.58,49.93V27.13l2.79-.48v8a9.41,9.41,0,0,1,1.66-.47,9.6,9.6,0,0,1,1.76-.16,7.91,7.91,0,0,1,3.09.52,4.82,4.82,0,0,1,2,1.47,5.71,5.71,0,0,1,1,2.27,13.142,13.142,0,0,1,.3,2.91v8.76h-2.79V41.77a13.279,13.279,0,0,0-.2-2.46,4.16,4.16,0,0,0-.64-1.65,2.56,2.56,0,0,0-1.2-.92,5.28,5.28,0,0,0-1.86-.28,7.5,7.5,0,0,0-.93.06l-.92.13c-.29.05-.55.11-.78.17a4.457,4.457,0,0,0-.49.15v13Z" fill="#0096c9"/>
    <path id="Trazado_13" data-name="Trazado 13" d="M46.57,53.3A6.75,6.75,0,0,0,50,47.43l-1-18.6a6.85,6.85,0,0,0-6.91-6.78H38.84a1.77,1.77,0,0,0,.08-.46V20.44a1.51,1.51,0,0,0-1.51-1.5H32a1.5,1.5,0,0,0-1.5,1.5v1.15a1.44,1.44,0,0,0,.08.46h-3.3a6.85,6.85,0,0,0-6.91,6.78l-1,18.6A6.75,6.75,0,0,0,22.8,53.3l-4.12,4h4.49l3.19-3.13H43l3.19,3.13h4.48ZM26.89,48.73A1.78,1.78,0,1,1,28.71,47a1.8,1.8,0,0,1-1.82,1.73Zm15.59,0A1.78,1.78,0,1,1,44.29,47a1.81,1.81,0,0,1-1.81,1.73ZM44.33,29,43.2,33.86a1.07,1.07,0,0,1-1.26.73l-2.89-.66a1,1,0,0,0-1.16.83l-1.54,8.57a.94.94,0,0,1-1,.85H34.16a1,1,0,0,1-.95-.82L31.48,34.7a1,1,0,0,0-1.15-.8l-2.85.59a1.06,1.06,0,0,1-1.23-.7L25,29a1,1,0,0,1,.77-1.33,40.6,40.6,0,0,1,9-.8,38.14,38.14,0,0,1,8.78.79A1,1,0,0,1,44.33,29Z" fill="#0096c9"/>
  </g>
</svg>
