<svg width="603" height="603" fill="none" xmlns="http://www.w3.org/2000/svg"><path fill="#2E2B2B" d="M0 0h603v603H0z"/><path d="M209.826 432.708c-2.165-.939-4.983-1.919-8.455-2.858-2.614-.694-4.656-1.348-6.168-1.96-1.511-.612-2.736-1.429-3.716-2.45-.981-1.02-1.471-2.327-1.471-3.96 0-2.368.776-4.164 2.328-5.389 1.552-1.266 3.554-1.878 6.005-1.878 2.695 0 4.901.694 6.535 2.041 1.634 1.348 2.573 2.981 2.696 4.9h9.476c-.368-4.41-2.124-7.88-5.351-10.411-3.227-2.532-7.393-3.797-12.417-3.797-3.554 0-6.699.612-9.394 1.796-2.696 1.184-4.82 2.94-6.291 5.185-1.511 2.246-2.246 4.899-2.246 7.88 0 3.266.735 5.838 2.246 7.798 1.512 1.959 3.309 3.388 5.433 4.327 2.124.939 4.901 1.838 8.291 2.736 2.696.694 4.82 1.347 6.332 1.959 1.511.613 2.818 1.47 3.839 2.573 1.021 1.102 1.552 2.531 1.552 4.286 0 2.246-.817 4.083-2.491 5.512-1.634 1.429-3.962 2.123-6.903 2.123-2.86 0-5.065-.735-6.658-2.164-1.593-1.47-2.451-3.307-2.655-5.552h-9.15c0 3.021.817 5.634 2.41 7.879 1.593 2.246 3.799 4.001 6.617 5.226 2.819 1.225 5.964 1.837 9.477 1.837 3.717 0 6.902-.694 9.639-2.123 2.737-1.429 4.82-3.307 6.25-5.675 1.429-2.367 2.124-4.858 2.124-7.512 0-3.307-.776-5.96-2.288-7.92-1.552-2.001-3.431-3.47-5.596-4.409ZM225.103 414.622h13.969v45.195h8.578v-45.195h13.887v-6.982h-36.434v6.982ZM302.302 440.914c0 3.96-1.021 6.941-3.105 8.941-2.083 2.001-4.983 3.021-8.741 3.021-3.717 0-6.617-.979-8.659-3.021-2.083-2-3.104-4.981-3.104-8.941V407.64h-8.578v33.111c0 4.246.899 7.839 2.696 10.819 1.797 2.939 4.248 5.144 7.311 6.614 3.064 1.47 6.495 2.164 10.253 2.164 3.757 0 7.189-.735 10.293-2.164 3.104-1.47 5.596-3.634 7.434-6.614 1.838-2.94 2.777-6.573 2.777-10.819V407.64h-8.577v33.274ZM353.645 410.825c-4.166-2.123-9.067-3.185-14.622-3.185H321.99v52.177h17.033c5.555 0 10.415-1.021 14.622-3.103 4.167-2.082 7.393-5.062 9.681-8.982 2.287-3.919 3.431-8.492 3.431-13.799 0-5.308-1.144-9.962-3.431-13.922-2.288-4.001-5.514-7.063-9.681-9.186Zm-.571 37.071c-3.268 3.306-7.925 4.94-14.051 4.94h-8.496v-38.214h8.496c6.126 0 10.783 1.714 14.051 5.103 3.267 3.389 4.901 8.124 4.901 14.208 0 6.001-1.634 10.656-4.901 13.963ZM383.831 407.64h-8.578v52.177h8.578V407.64ZM432.354 410.375c-4.084-2.286-8.577-3.429-13.479-3.429-4.86 0-9.313 1.143-13.397 3.429-4.085 2.287-7.312 5.43-9.681 9.513-2.369 4.042-3.553 8.614-3.553 13.718 0 5.103 1.184 9.717 3.553 13.758 2.369 4.083 5.596 7.268 9.681 9.554 4.084 2.286 8.537 3.429 13.397 3.429 4.902 0 9.395-1.143 13.479-3.429 4.085-2.286 7.312-5.471 9.64-9.554 2.369-4.082 3.513-8.655 3.513-13.758 0-5.104-1.185-9.676-3.513-13.718-2.328-4.083-5.555-7.226-9.64-9.513Zm2.083 33.397c-1.511 2.939-3.635 5.185-6.331 6.736-2.695 1.592-5.8 2.368-9.231 2.368s-6.535-.776-9.231-2.368c-2.696-1.592-4.82-3.838-6.331-6.736-1.511-2.94-2.287-6.328-2.287-10.166s.776-7.227 2.287-10.125c1.511-2.899 3.635-5.144 6.331-6.696 2.696-1.551 5.8-2.327 9.231-2.327s6.536.776 9.231 2.327c2.696 1.552 4.82 3.797 6.331 6.696 1.512 2.898 2.288 6.287 2.288 10.125 0 3.878-.735 7.267-2.288 10.166ZM168.327 447.773a6.291 6.291 0 0 0-6.29 6.288 6.291 6.291 0 0 0 12.58 0 6.291 6.291 0 0 0-6.29-6.288ZM143.33 394.697v-67.936h-13.969v9.717c-2.247-3.062-5.392-5.634-9.395-7.716-4.003-2.083-8.618-3.103-13.765-3.103-5.841 0-11.15 1.429-15.97 4.287-4.82 2.857-8.619 6.899-11.396 12.084-2.819 5.185-4.208 11.146-4.208 17.842 0 6.695 1.39 12.738 4.208 18.004 2.777 5.308 6.576 9.431 11.396 12.371 4.82 2.98 10.129 4.45 15.97 4.45 5.106 0 9.64-1.062 13.643-3.225 4.003-2.123 7.189-4.777 9.517-7.962v11.146c0 6.451-1.716 11.391-5.147 14.82-3.431 3.43-7.965 5.104-13.52 5.104-4.779 0-8.863-1.062-12.335-3.226-3.431-2.123-5.678-4.94-6.74-8.41H77.895c.817 7.267 4.207 13.024 10.212 17.27 6.004 4.246 13.52 6.369 22.587 6.369 6.781 0 12.663-1.388 17.523-4.124 4.902-2.735 8.619-6.532 11.233-11.35 2.573-4.776 3.88-10.288 3.88-16.412Zm-16.828-22.496c-1.92 3.43-4.371 6.043-7.475 7.839-3.064 1.797-6.413 2.654-9.966 2.654-3.472 0-6.781-.898-9.885-2.736-3.105-1.837-5.637-4.45-7.516-7.961-1.92-3.47-2.859-7.512-2.859-12.125 0-4.614.94-8.574 2.86-11.963 1.919-3.347 4.41-5.879 7.474-7.634 3.063-1.756 6.372-2.613 9.966-2.613 3.554 0 6.862.898 9.967 2.654 3.063 1.796 5.555 4.368 7.475 7.757 1.919 3.388 2.859 7.389 2.859 12.003-.041 4.654-.981 8.655-2.9 12.125ZM175.353 358.403c0-6.777 1.389-11.554 4.207-14.33 2.778-2.736 6.903-4.124 12.336-4.124h3.512v-14.33c-4.615 0-8.618.939-11.967 2.858-3.35 1.919-6.046 4.532-8.088 7.961v-9.717h-13.847v66.834h13.847v-35.152ZM220.038 390.37c5.105 2.858 10.783 4.287 17.114 4.287 6.372 0 12.254-1.429 17.523-4.287 5.31-2.858 9.476-6.94 12.581-12.207 3.063-5.267 4.615-11.268 4.615-18.086 0-6.777-1.511-12.82-4.493-18.087-2.982-5.266-7.066-9.308-12.254-12.125-5.187-2.817-10.946-4.246-17.359-4.246-6.413 0-12.172 1.429-17.36 4.246-5.187 2.817-9.272 6.859-12.253 12.125-2.982 5.267-4.493 11.269-4.493 18.087 0 6.859 1.47 12.901 4.37 18.127 2.9 5.267 6.903 9.308 12.009 12.166Zm.367-42.582c1.798-3.348 4.208-5.879 7.23-7.594 3.023-1.715 6.331-2.531 9.885-2.531 3.553 0 6.862.857 9.966 2.531 3.064 1.715 5.555 4.246 7.393 7.594 1.879 3.348 2.778 7.471 2.778 12.33 0 4.858-.98 8.982-2.9 12.37-1.961 3.389-4.452 5.961-7.598 7.635-3.104 1.715-6.453 2.531-10.007 2.531-5.596 0-10.211-1.96-13.887-5.879-3.677-3.919-5.515-9.472-5.515-16.698 0-4.818.858-8.9 2.655-12.289ZM313.127 393.595l13.479-49.359 13.479 49.359h14.582l20.75-66.833h-13.602l-13.847 53.483-13.601-53.483h-14.419l-14.214 53.728-13.97-53.728h-14.051l20.873 66.833h14.541ZM435.868 336.479c-2.328-3.062-5.473-5.635-9.394-7.717-3.922-2.082-8.537-3.103-13.766-3.103-5.84 0-11.15 1.429-15.97 4.287-4.82 2.858-8.619 6.9-11.396 12.085-2.778 5.185-4.207 11.105-4.207 17.841 0 6.696 1.388 12.738 4.207 18.005 2.777 5.308 6.576 9.431 11.355 12.371 4.779 2.939 10.048 4.409 15.766 4.409 5.188 0 9.803-1.062 13.847-3.144 4.044-2.123 7.23-4.736 9.599-7.879v9.961h13.969v-66.833h-13.969v9.717h-.041Zm-2.859 35.723c-1.92 3.43-4.371 6.043-7.475 7.839-3.063 1.796-6.413 2.654-9.966 2.654-3.472 0-6.781-.899-9.885-2.736-3.104-1.837-5.637-4.45-7.516-7.961-1.919-3.47-2.859-7.512-2.859-12.126 0-4.613.94-8.573 2.859-11.962 1.92-3.348 4.371-5.92 7.475-7.635 3.064-1.755 6.372-2.612 9.967-2.612 3.553 0 6.862.898 9.966 2.653 3.063 1.797 5.555 4.369 7.475 7.757 1.92 3.389 2.859 7.39 2.859 12.004-.041 4.654-1.021 8.655-2.9 12.125ZM513.883 326.762l-19.524 50.952-18.83-50.952H460.13l26.346 65.731-13.602 32.539h14.337l41.009-98.27h-14.337ZM234.144 262.121c-8.479-41.992-.38-70.102 25.469-88.429 22.057-15.639 54.832-22.219 96.293-30.555l5.618-1.137 6.134 30.383-5.618 1.137c-37.876 7.613-67.791 13.642-84.471 25.457-11.132 7.889-20.438 20.256-13.028 57.012l-30.397 6.132Z" fill="#fff"/><path d="m242.38 300.875-6.134-30.383 5.617-1.137c37.877-7.613 67.792-13.641 84.472-25.457 11.132-7.889 20.438-20.256 13.028-57.012l30.397-6.132c8.479 41.993.379 70.103-25.469 88.429-22.057 15.64-54.832 22.219-96.293 30.556l-5.618 1.136Z" fill="#fff"/></svg>