<svg xmlns="http://www.w3.org/2000/svg" width="617.219" height="528.432"><g id="Grupo_12" data-name="Grupo 12" transform="translate(-968.932 -1315.894)"><g id="Grupo_9" data-name="Grupo 9" transform="translate(-98.818 -10.106)"><path id="Trazado_31" data-name="Trazado 31" d="M1145.957 1396.928s41.959 26.059 63.677 63.113 23.193 85.1 23.193 85.1" fill="none" stroke="#f63372" stroke-linecap="round" stroke-width="8"/><path id="Rectángulo_10" data-name="Rectángulo 10" transform="translate(1151 1435)" fill="#f4f4f4" d="M0 0h98v28H0z"/><text id="Aprendizaje" transform="translate(1380.183 1442.491)" font-size="21" font-family="Arial-BoldMT, Arial" font-weight="700"><tspan x="-59.514" y="0">Aprendizaje</tspan></text><text id="Metricas" transform="translate(1588 1471.942)" font-size="21" font-family="Arial-BoldMT, Arial" font-weight="700"><tspan x="-42.605" y="0">Metricas</tspan></text><text id="Producto" transform="translate(1632 1709.542)" font-size="21" font-family="Arial-BoldMT, Arial" font-weight="700"><tspan x="-46.081" y="0">Producto</tspan></text><text id="Datos" transform="translate(1586 1498.234)" font-size="21" font-family="Arial-BoldMT, Arial" font-weight="700"><tspan x="-29.172" y="0">Datos</tspan></text><text id="Definición_de_Producto_Viable" data-name="Definición de Producto Viable" transform="translate(1247.507 1676.5)" font-size="21" font-family="Arial-BoldMT, Arial" font-weight="700"><tspan x="-53.669" y="0">Definición </tspan><tspan x="-64.169" y="28">de Producto </tspan><tspan x="-30.741" y="56">Viable</tspan></text><text id="Exploracion" transform="translate(1194.75 1456.5)" font-size="21" font-family="Arial-BoldMT, Arial" font-weight="700"><tspan x="-60.098" y="0">Exploracion</tspan></text><text id="Idea" transform="translate(1102 1430)" font-size="21" font-family="Arial-BoldMT, Arial" font-weight="700"><tspan x="-21.01" y="0">Idea</tspan></text><text id="Desarrollo" transform="translate(1426 1850.432)" font-size="21" font-family="Arial-BoldMT, Arial" font-weight="700"><tspan x="-51.936" y="0">Desarrollo</tspan></text><g id="Grupo_6" data-name="Grupo 6" transform="translate(59 82)" fill="none" stroke-linecap="round"><g id="Trazado_37" data-name="Trazado 37" stroke-linejoin="round"><path d="M21.419 9.338c11.474 0 20.131 9.1 20.131 21.1s-6.894 13.023-10.232 19.989a35.971 35.971 0 0 0-1.387 5.549v1.787H11.974v-1.787a19.323 19.323 0 0 0-1.566-5.549C7.269 43.461 0 42.075 0 30.44S9.945 9.338 21.419 9.338Z" transform="translate(1022.225 1248.179)"/><path d="M21.419 12.338c-2.408 0-4.771.48-7.025 1.427a18.896 18.896 0 0 0-5.893 3.91 18.38 18.38 0 0 0-4.022 5.769A17.254 17.254 0 0 0 3 30.44c0 2.9.488 5.181 1.534 7.18.939 1.794 2.258 3.217 3.655 4.723 1.703 1.837 3.633 3.92 4.954 6.852a23.01 23.01 0 0 1 1.692 5.568h12.27c.285-1.502.876-4.315 1.507-5.632 1.356-2.83 3.203-4.811 4.833-6.559 1.376-1.476 2.676-2.87 3.591-4.662 1.033-2.022 1.514-4.396 1.514-7.47 0-5.033-1.753-9.643-4.935-12.981-3.147-3.302-7.478-5.12-12.196-5.12m0-3c11.474 0 20.13 9.1 20.13 21.101s-6.893 13.021-10.231 19.987c-.631 1.317-1.387 5.55-1.387 5.55v1.786H11.974v-1.787s-.238-2.602-1.566-5.549C7.27 43.461 0 42.075 0 30.44 0 18.806 9.945 9.338 21.419 9.338Z" fill="#131817" transform="translate(1022.225 1248.179)"/></g><path id="Línea_1" data-name="Línea 1" stroke="#131817" stroke-width="3" d="M1035.725 1308.5h15.226"/><path id="Línea_2" data-name="Línea 2" stroke="#131817" stroke-width="3" d="M1036.766 1312.5h13.145"/><path id="Línea_3" data-name="Línea 3" stroke="#131817" stroke-width="3" d="M1037.858 1316.5h10.96"/><path id="Línea_4" data-name="Línea 4" stroke="#131817" stroke-width="3" d="M1043.25 1245.5v8"/><path id="Línea_5" data-name="Línea 5" stroke="#131817" stroke-width="3" d="m1062.75 1252.5-5.5 5"/><path id="Línea_6" data-name="Línea 6" stroke="#131817" stroke-width="3" d="m1022.25 1252.5 5.5 5"/><path id="Línea_7" data-name="Línea 7" stroke="#131817" stroke-width="3" d="M1075.75 1276.5h-8.5"/><path id="Línea_8" data-name="Línea 8" stroke="#131817" stroke-width="3" d="M1018.75 1275.5h-8.5"/><path id="Línea_9" data-name="Línea 9" stroke="#131817" stroke-width="3" d="m1067.75 1299.5-5-5"/><path id="Línea_10" data-name="Línea 10" stroke="#131817" stroke-width="3" d="m1018.75 1299.5 5-5"/></g><g id="Grupo_8" data-name="Grupo 8" transform="translate(15.507 4)" fill="none" stroke="#131817"><g id="Rectángulo_7" data-name="Rectángulo 7" transform="translate(1204 1569.5)" stroke-width="3"><rect width="56" height="68" rx="10" stroke="none"/><rect x="1.5" y="1.5" width="53" height="65" rx="8.5"/></g><path id="Trazado_38" data-name="Trazado 38" d="M1246.2 1585.5h-25.175" stroke-linecap="round" stroke-width="3"/><path id="Línea_12" data-name="Línea 12" stroke-linecap="round" stroke-width="3" d="M1243.5 1594.5h-22.475"/><path id="Línea_13" data-name="Línea 13" stroke-linecap="round" stroke-width="3" d="M1248.5 1603.5h-27.475"/><path id="Línea_14" data-name="Línea 14" stroke-linecap="round" stroke-width="3" d="M1248.5 1612.5h-27.475"/><path id="Línea_15" data-name="Línea 15" stroke-linecap="round" stroke-width="3" d="M1243.5 1621.5h-22.475"/><g id="Elipse_1" data-name="Elipse 1" transform="translate(1213 1583.5)" stroke-width="1"><circle cx="2" cy="2" r="2" stroke="none"/><circle cx="2" cy="2" r="1.5"/></g><g id="Elipse_2" data-name="Elipse 2" transform="translate(1213 1592.5)" stroke-width="1"><circle cx="2" cy="2" r="2" stroke="none"/><circle cx="2" cy="2" r="1.5"/></g><g id="Elipse_3" data-name="Elipse 3" transform="translate(1213 1610.5)" stroke-width="1"><circle cx="2" cy="2" r="2" stroke="none"/><circle cx="2" cy="2" r="1.5"/></g><g id="Elipse_4" data-name="Elipse 4" transform="translate(1213 1601.5)" stroke-width="1"><circle cx="2" cy="2" r="2" stroke="none"/><circle cx="2" cy="2" r="1.5"/></g><g id="Elipse_5" data-name="Elipse 5" transform="translate(1213 1619.5)" stroke-width="1"><circle cx="2" cy="2" r="2" stroke="none"/><circle cx="2" cy="2" r="1.5"/></g></g><g id="Grupo_7" data-name="Grupo 7" transform="translate(8 574.432)"><g id="Grupo_4" data-name="Grupo 4" transform="translate(-291 -56)" fill="none" stroke="#131817"><g id="Rectángulo_6" data-name="Rectángulo 6" transform="translate(1677 1254)" stroke-width="3"><rect width="64" height="48" rx="10" stroke="none"/><rect x="1.5" y="1.5" width="61" height="45" rx="8.5"/></g><path id="Trazado_39" data-name="Trazado 39" d="m1701.163 1266.232-9.326 11.962 9.326 11.573" stroke-linecap="round" stroke-width="4"/><path id="Trazado_40" data-name="Trazado 40" d="m1716.837 1289.768 9.326-11.962-9.326-11.573" stroke-linecap="round" stroke-width="4"/></g></g><g id="Grupo_5" data-name="Grupo 5" transform="translate(-178.015 379)" fill="none"><g id="Rectángulo_8" data-name="Rectángulo 8" stroke="#131817" stroke-width="3"><path d="M0 0h61v39a5 5 0 0 1-5 5H5a5 5 0 0 1-5-5V0Z" stroke="none" transform="translate(1779 1257)"/><path d="M1782 1258.5h55a1.5 1.5 0 0 1 1.5 1.5v36a3.5 3.5 0 0 1-3.5 3.5h-51a3.5 3.5 0 0 1-3.5-3.5v-36a1.5 1.5 0 0 1 1.5-1.5Z"/></g><g id="Trazado_41" data-name="Trazado 41"><path d="M0 0h60.4L50.164 13.212H10.017Z" transform="translate(1779.381 1256.647)"/><path d="m6.04 3 5.467 7.212h37.186L54.278 3H6.039M0 0h60.396L50.164 13.212H10.017L0 0Z" fill="#131817" transform="translate(1779.381 1256.647)"/></g><path id="Trazado_42" data-name="Trazado 42" d="m1780.306 1257.726-11.29 11.118" stroke="#131817" stroke-width="3"/><path id="Trazado_43" data-name="Trazado 43" d="m1850.139 1268.812-11.29-11.118" stroke="#131817" stroke-width="3"/><path id="Línea_16" data-name="Línea 16" stroke="#131817" stroke-linecap="round" stroke-width="3" d="M1810.329 1233.5v8"/><path id="Línea_17" data-name="Línea 17" stroke="#131817" stroke-linecap="round" stroke-width="3" d="m1829.829 1240.5-5.5 5"/><path id="Línea_18" data-name="Línea 18" stroke="#131817" stroke-linecap="round" stroke-width="3" d="m1789.329 1240.5 5.5 5"/></g><g id="Grupo_3" data-name="Grupo 3" transform="translate(-181 55.5)" fill="none"><g id="Rectángulo_9" data-name="Rectángulo 9" transform="translate(1737 1339)" stroke="#131817" stroke-width="3"><rect width="64" height="48" rx="10" stroke="none"/><rect x="1.5" y="1.5" width="61" height="45" rx="8.5"/></g><path id="Trazado_44" data-name="Trazado 44" d="m1750.082 1376.843 9.695-13.833 16.549 7.95 10.512-17.043" stroke="#131817" stroke-width="3"/><g id="Polígono_1" data-name="Polígono 1"><path d="m5 0 5 8H0Z" transform="rotate(30 -1620.768 4003.758)"/><path d="M5 1.887 1.804 7h6.392L5 1.887M5 0l5 8H0l5-8Z" fill="#131817" transform="rotate(30 -1620.768 4003.758)"/></g></g><g id="Grupo_2" data-name="Grupo 2" transform="translate(-283.103 28.872)" fill="none" stroke="#131817" stroke-width="3"><path id="Trazado_45" data-name="Trazado 45" d="M1704.071 938.585s-1.889-3.49-7.2-1.87-9.56 3.371-9.845 7.309 1.564 3.577-1.987 5.011-4.274 4.028-4.51 6.622.169 3.643-1.539 5.951-.046 6.123 1.539 7.557-1.331-1.235-2.076 1.761-.323 4.574.876 6.016a17.4 17.4 0 0 0 3.761 2.928 5.757 5.757 0 0 0 0 5 8.255 8.255 0 0 0 5.493 4.367c1.341.177 1 2.038 2.225 2.991a7.524 7.524 0 0 0 5.462 1.793c3.042 0 6.981-3 7.57-4.785s.231-50.651.231-50.651Z" transform="translate(-45 393.907)"/><path id="Trazado_46" data-name="Trazado 46" d="M0 0a12.765 12.765 0 0 0 2.007 1.522 9.987 9.987 0 0 0 2.156.906" transform="translate(1635.654 1363.225)" stroke-linecap="round"/><path id="Trazado_47" data-name="Trazado 47" d="M1.184.238s1.232 3.13 3.789 3.726 5.34-1.451 5.34-1.451" transform="translate(1641.839 1353.009)" stroke-linecap="round"/><path id="Trazado_48" data-name="Trazado 48" d="M0 0s.387 1.9 1.428 2.5a4.674 4.674 0 0 0 2.451.47" transform="rotate(-74.99 1708.309 -390.741)" stroke-linecap="round"/><path id="Trazado_49" data-name="Trazado 49" d="M0 0s.532 2.607 1.962 3.441a6.422 6.422 0 0 0 3.367.645" transform="rotate(105.01 300.94 1318.082)" stroke-linecap="round"/><path id="Trazado_50" data-name="Trazado 50" d="M0 0s.532 2.607 1.962 3.441a6.422 6.422 0 0 0 3.367.645" transform="rotate(-165.02 915.302 580.148)" stroke-linecap="round"/><path id="Trazado_51" data-name="Trazado 51" d="M.079 0a6.836 6.836 0 0 0 .592 4.037 6.67 6.67 0 0 0 3.367 2.246" transform="rotate(165.02 734.888 782.05)" stroke-linecap="round"/><path id="Trazado_52" data-name="Trazado 52" d="M0 0a3.521 3.521 0 0 0 1.7 1.756 6.422 6.422 0 0 0 3.367.644" transform="rotate(-165.02 918.082 563.039)" stroke-linecap="round"/><path id="Trazado_53" data-name="Trazado 53" d="M0 0a2.649 2.649 0 0 0 1.406 2.184 3.591 3.591 0 0 0 2.913.244" transform="rotate(-165.02 913.09 559.3)" stroke-linecap="round"/><path id="Trazado_54" data-name="Trazado 54" d="M1678.187 938.585s1.889-3.49 7.2-1.87 9.56 3.371 9.845 7.309-1.564 3.577 1.987 5.011 4.274 4.028 4.51 6.622-.169 3.643 1.539 5.951.046 6.123-1.539 7.557 1.331-1.235 2.076 1.761.323 4.574-.876 6.016a17.4 17.4 0 0 1-3.761 2.928 5.757 5.757 0 0 1 0 5 8.255 8.255 0 0 1-5.493 4.367c-1.341.177-1 2.038-2.225 2.991a7.524 7.524 0 0 1-5.462 1.793c-3.042 0-6.981-3-7.57-4.785s-.231-50.651-.231-50.651Z" transform="translate(-13.686 393.907)"/><path id="Trazado_55" data-name="Trazado 55" d="M4.163 0a12.765 12.765 0 0 1-2.007 1.522A9.987 9.987 0 0 1 0 2.428" transform="translate(1683.755 1363.225)" stroke-linecap="round"/><path id="Trazado_56" data-name="Trazado 56" d="M10.313.238s-1.232 3.13-3.789 3.726-5.34-1.451-5.34-1.451" transform="translate(1670.237 1353.009)" stroke-linecap="round"/><path id="Trazado_57" data-name="Trazado 57" d="M0 2.987s.387-1.9 1.428-2.5A4.674 4.674 0 0 1 3.879.013" transform="rotate(-105.01 1360.866 37.222)" stroke-linecap="round"/><path id="Trazado_58" data-name="Trazado 58" d="M0 4.1S.532 1.5 1.962.664A6.422 6.422 0 0 1 5.33.018" transform="rotate(74.99 -53.792 1775.616)" stroke-linecap="round"/><path id="Trazado_59" data-name="Trazado 59" d="M0 4.1S.532 1.5 1.962.664A6.422 6.422 0 0 1 5.33.018" transform="rotate(-14.98 6047.63 -5666.658)" stroke-linecap="round"/><path id="Trazado_60" data-name="Trazado 60" d="M.079 6.283a6.836 6.836 0 0 1 .592-4.037A6.67 6.67 0 0 1 4.038 0" transform="rotate(14.98 -4254.283 7036.694)" stroke-linecap="round"/><path id="Trazado_61" data-name="Trazado 61" d="M.551 1.854S2.686.378 4.115.713A6.033 6.033 0 0 1 6.564 1.99" transform="rotate(-14.98 5947.961 -5641.557)" stroke-linecap="round"/><path id="Trazado_62" data-name="Trazado 62" d="M0 2.63A2.649 2.649 0 0 1 1.406.446 3.591 3.591 0 0 1 4.319.2" transform="rotate(-14.98 5894.962 -5684.12)" stroke-linecap="round"/><path id="Trazado_63" data-name="Trazado 63" d="M.551 1.854S2.686.378 4.115.713A6.033 6.033 0 0 1 6.564 1.99" transform="rotate(-14.98 5947.961 -5641.557)" stroke-linecap="round"/></g><path id="Trazado_64" data-name="Trazado 64" d="M1294.505 1751.865a198.509 198.509 0 0 0 31.352 24.034c17.124 10.279 37.143 17.1 37.143 17.1" fill="none" stroke="#f63372" stroke-linecap="round" stroke-width="8"/><path id="Trazado_65" data-name="Trazado 65" d="M1484.325 1800.575s26.187-4.903 50.01-17.996 45.29-34.37 45.29-34.37" fill="none" stroke="#f63372" stroke-linecap="round" stroke-width="8"/><path id="Trazado_66" data-name="Trazado 66" d="M1647.314 1590.925a198.509 198.509 0 0 0-3.805-39.321c-4.16-19.534-12.825-38.827-12.825-38.827" fill="none" stroke="#f63372" stroke-linecap="round" stroke-width="8"/><path id="Trazado_67" data-name="Trazado 67" d="M1530.598 1404.826a198.479 198.479 0 0 0-36.762-14.444c-19.294-5.152-40.414-6.181-40.414-6.181" fill="none" stroke="#f63372" stroke-linecap="round" stroke-width="7.9988"/><path id="Trazado_68" data-name="Trazado 68" d="M1303.958 1429.635a198.509 198.509 0 0 0-29.113 26.702c-13.097 15.079-23.29 33.61-23.29 33.61" fill="none" stroke="#f63372" stroke-linecap="round" stroke-width="8"/><g id="Polígono_2" data-name="Polígono 2" fill="#f63372"><path d="M26.145 23.5H.855L13.5 1.02 26.145 23.5Z" transform="scale(-1) rotate(-6.02 -15381.975 11071.654)"/><path d="M13.5 2.04 1.71 23h23.58L13.5 2.04m0-2.04L27 24H0L13.5 0Z" transform="scale(-1) rotate(-6.02 -15381.975 11071.654)"/></g><g id="Polígono_3" data-name="Polígono 3" fill="#f63372"><path d="M26.145 23.5H.855L13.5 1.02 26.145 23.5Z" transform="rotate(-149 837.723 578.17)"/><path d="M13.5 2.04 1.71 23h23.58L13.5 2.04m0-2.04L27 24H0L13.5 0Z" transform="rotate(-149 837.723 578.17)"/></g><g id="Polígono_4" data-name="Polígono 4" fill="#f63372"><path d="M26.145 23.5H.855L13.5 1.02 26.145 23.5Z" transform="rotate(-85 1477.353 -83.069)"/><path d="M13.5 2.04 1.71 23h23.58L13.5 2.04m0-2.04L27 24H0L13.5 0Z" transform="rotate(-85 1477.353 -83.069)"/></g><g id="Polígono_5" data-name="Polígono 5" fill="#f63372"><path d="M26.145 23.5H.855L13.5 1.02 26.145 23.5Z" transform="rotate(45.97 -1241.43 2729.414)"/><path d="M13.5 2.04 1.71 23h23.58L13.5 2.04m0-2.04L27 24H0L13.5 0Z" transform="rotate(45.97 -1241.43 2729.414)"/></g><g id="Polígono_6" data-name="Polígono 6" fill="#f63372"><path d="M26.145 23.5H.855L13.5 1.02 26.145 23.5Z" transform="rotate(-18 5564.559 -4344.956)"/><path d="M13.5 2.04 1.71 23h23.58L13.5 2.04m0-2.04L27 24H0L13.5 0Z" transform="rotate(-18 5564.559 -4344.956)"/></g><g id="Polígono_7" data-name="Polígono 7" fill="#f63372"><path d="M26.145 23.5H.855L13.5 1.02 26.145 23.5Z" transform="rotate(112 87.6 1357.624)"/><path d="M13.5 2.04 1.71 23h23.58L13.5 2.04m0-2.04L27 24H0L13.5 0Z" transform="rotate(112 87.6 1357.624)"/></g></g></g></svg>