<svg width="193" height="31" fill="none" xmlns="http://www.w3.org/2000/svg"><path d="M89.263 3.013c-.741 0-1.348.628-1.348 1.396V27.06c0 .768.607 1.396 1.348 1.396.742 0 1.349-.628 1.349-1.396V4.41c0-.768-.607-1.396-1.349-1.396ZM157.687 3.013c-6.781 0-12.296 5.708-12.296 12.729 0 7.02 5.515 12.729 12.296 12.729 6.782 0 12.296-5.709 12.296-12.73 0-7.02-5.514-12.728-12.296-12.728Zm0 22.652c-5.285 0-9.599-4.452-9.599-9.937 0-5.485 4.301-9.938 9.599-9.938 5.299 0 9.6 4.453 9.6 9.938s-4.301 9.937-9.6 9.937ZM69.808 5.804c2.818 0 5.474 1.284 7.307 3.504a1.315 1.315 0 0 0 1.901.153 1.428 1.428 0 0 0 .149-1.968C76.819 4.646 73.408 3 69.808 3c-6.782 0-12.296 5.709-12.296 12.729s5.514 12.729 12.296 12.729c3.6 0 7.01-1.633 9.357-4.494a1.428 1.428 0 0 0-.149-1.968 1.316 1.316 0 0 0-1.9.153c-1.834 2.233-4.49 3.503-7.308 3.503-5.285 0-9.6-4.452-9.6-9.937 0-5.485 4.315-9.91 9.6-9.91ZM139.122 25.665h-7.011V4.41c0-.768-.607-1.396-1.349-1.396-.741 0-1.348.628-1.348 1.396V27.06c0 .768.607 1.396 1.348 1.396h8.36c.741 0 1.348-.628 1.348-1.396 0-.768-.607-1.396-1.348-1.396ZM111.307 5.804c2.818 0 5.474 1.284 7.308 3.504a1.315 1.315 0 0 0 1.901.153 1.428 1.428 0 0 0 .148-1.968C118.318 4.646 114.907 3 111.307 3c-6.781 0-12.296 5.709-12.296 12.729s5.515 12.729 12.296 12.729c3.6 0 7.025-1.633 9.357-4.494a1.428 1.428 0 0 0-.148-1.968 1.315 1.315 0 0 0-1.901.153c-1.834 2.233-4.49 3.503-7.308 3.503-5.285 0-9.599-4.452-9.599-9.937 0-5.485 4.314-9.91 9.599-9.91ZM190.868 15.533c-1.132-1.173-2.642-1.996-4.098-2.806-2.454-1.34-3.937-2.26-3.937-3.726 0-.042 0-.112-.014-.14 0-.042-.067-1.075.876-2.052a3.217 3.217 0 0 1 4.652 0 1.31 1.31 0 0 0 1.901 0 1.424 1.424 0 0 0 0-1.968c-2.332-2.414-6.121-2.414-8.467.014-1.712 1.773-1.699 3.727-1.658 4.243.04 3.21 2.871 4.76 5.379 6.127 1.281.698 2.616 1.424 3.465 2.303 1.793 1.857 1.793 4.885 0 6.756a4.519 4.519 0 0 1-6.525 0 4.869 4.869 0 0 1-1.335-3.769c.054-.768-.499-1.437-1.241-1.507-.755-.056-1.388.516-1.456 1.284-.175 2.219.594 4.396 2.117 5.96a7.13 7.13 0 0 0 5.164 2.205c1.874 0 3.748-.74 5.164-2.206 2.858-2.972 2.858-7.76.013-10.719Z" fill="#2B2326"/><path d="M24.17 5.037c-2.266 2.344-3.87 5.47-5.407 8.5-2.589 5.066-4.369 8.15-7.2 8.15-.067 0-.202.014-.283.014-.081 0-2.076.154-3.964-1.814-2.562-2.652-2.575-6.979-.013-9.63a2.867 2.867 0 0 0 0-3.95 2.637 2.637 0 0 0-3.816 0c-4.652 4.829-4.652 12.687.013 17.516 3.425 3.545 7.2 3.503 8.184 3.433 6.202-.083 9.196-5.945 11.838-11.123 1.362-2.666 2.764-5.416 4.45-7.16 3.6-3.727 9.45-3.727 13.037 0 3.586 3.726 3.6 9.77 0 13.496-1.915 1.982-4.557 2.987-7.267 2.75-1.483-.126-2.791 1.018-2.899 2.554-.121 1.549.984 2.875 2.467 3 4.288.363 8.481-1.242 11.515-4.368 2.844-2.945 4.274-6.825 4.274-10.691 0-3.88-1.43-7.746-4.274-10.705-5.69-5.876-14.966-5.876-20.656.028Z" fill="#FF0062"/></svg>