<svg width="177" height="36" fill="none" xmlns="http://www.w3.org/2000/svg"><path d="M63.57 16.649v8.797c0 .668-.196 1.194-.59 1.574-.393.38-.935.572-1.627.572-.69 0-1.24-.191-1.643-.572-.407-.38-.609-.906-.609-1.574v-8.797c0-1.264-.258-2.186-.77-2.772-.513-.585-1.317-.876-2.415-.876-1.286 0-2.318.407-3.092 1.217s-1.16 1.895-1.16 3.254v7.974c0 .668-.202 1.194-.61 1.574-.406.38-.952.572-1.643.572-.691 0-1.233-.191-1.627-.572-.394-.38-.589-.906-.589-1.574V4.062c0-.619.209-1.121.625-1.502.417-.38.96-.572 1.627-.572.669 0 1.204.179 1.611.536.404.357.609.846.609 1.465v8.334a5.835 5.835 0 0 1 2.377-2.127c.99-.489 2.117-.734 3.38-.734 4.095-.003 6.145 2.395 6.145 7.187ZM84.722 23.051c.25.311.373.728.373 1.25 0 .741-.44 1.36-1.323 1.86-.81.452-1.73.816-2.755 1.09-1.025.275-2.004.41-2.933.41-2.814 0-5.044-.81-6.687-2.43-1.644-1.62-2.467-3.84-2.467-6.65 0-1.79.357-3.374 1.071-4.757.715-1.382 1.723-2.454 3.023-3.218 1.3-.764 2.771-1.144 4.415-1.144 1.574 0 2.944.347 4.114 1.039 1.168.69 2.074 1.67 2.719 2.933s.965 2.755.965 4.471c0 1.026-.453 1.538-1.359 1.538h-10.55c.142 1.644.609 2.854 1.396 3.632.787.773 1.931 1.16 3.433 1.16.764 0 1.435-.095 2.02-.287a19.886 19.886 0 0 0 1.985-.788c.714-.38 1.24-.572 1.574-.572.407-.003.734.152.986.463Zm-10.084-9.3c-.728.764-1.16 1.86-1.306 3.291h8.082c-.05-1.455-.406-2.556-1.071-3.307-.668-.75-1.598-1.128-2.788-1.128-1.22 0-2.193.38-2.917 1.145ZM103.354 9.872a1.951 1.951 0 0 1 1.055-.304c.549 0 1.042.185 1.485.556.44.37.661.83.661 1.375 0 .262-.073.536-.215.824l-9.763 20.455c-.406.81-1.038 1.217-1.895 1.217a2.194 2.194 0 0 1-1.448-.52c-.417-.347-.625-.78-.625-1.306 0-.26.073-.559.215-.893l2.43-5.113L88.6 12.32a1.817 1.817 0 0 1-.178-.824c0-.549.231-1.012.698-1.396.466-.38.995-.572 1.59-.572.404 0 .774.103 1.108.305.334.201.596.519.788.949l5.007 11.05 4.97-11.017c.192-.423.45-.741.771-.943ZM126.938 2.557c.43.38.645.883.645 1.501v21.388c0 .644-.202 1.157-.609 1.537-.407.38-.942.573-1.61.573-.668 0-1.204-.192-1.611-.573-.407-.38-.609-.893-.609-1.537v-.893a5.602 5.602 0 0 1-2.272 2.288c-.988.55-2.116.824-3.38.824-1.501 0-2.844-.38-4.024-1.145-1.181-.764-2.097-1.842-2.755-3.237-.655-1.396-.983-3-.983-4.809 0-1.812.328-3.396.983-4.756.655-1.359 1.567-2.407 2.735-3.148 1.167-.738 2.513-1.108 4.041-1.108 1.263 0 2.385.261 3.364.787a5.456 5.456 0 0 1 2.252 2.216V3.989c0-.596.195-1.079.588-1.449.394-.37.923-.556 1.591-.556.678 0 1.227.192 1.654.573Zm-4.951 20.17c.774-.979 1.161-2.371 1.161-4.183 0-1.813-.387-3.202-1.161-4.168-.774-.965-1.865-1.448-3.271-1.448-1.432 0-2.54.476-3.327 1.432-.787.952-1.181 2.325-1.181 4.114 0 1.812.394 3.218 1.181 4.22.787 1.002 1.882 1.502 3.291 1.502 1.428 0 2.53-.49 3.307-1.469ZM145.214 9.925c.357.31.536.774.536 1.396 0 .645-.155 1.12-.466 1.432-.311.31-.87.512-1.68.608l-1.072.106c-1.405.142-2.437.622-3.092 1.432-.655.81-.982 1.822-.982 3.04v7.507c0 .69-.215 1.223-.645 1.59-.43.37-.966.556-1.611.556s-1.174-.185-1.591-.556c-.416-.37-.625-.9-.625-1.59V11.605c0-.668.209-1.18.625-1.538.417-.357.936-.536 1.555-.536.618 0 1.121.172 1.501.52.381.347.572.84.572 1.485v1.432c.453-1.049 1.128-1.859 2.021-2.431a6.2 6.2 0 0 1 2.986-.966l.5-.036c.622-.05 1.111.08 1.468.39ZM164.918 10.104c.407.38.609.893.609 1.538v13.877c0 .621-.208 1.12-.625 1.5-.417.381-.959.573-1.627.573-.645 0-1.158-.178-1.538-.536-.38-.357-.572-.846-.572-1.465v-.893c-.549.953-1.287 1.687-2.219 2.2-.93.512-1.978.77-3.149.77-4.293 0-6.436-2.407-6.436-7.223v-8.797c0-.645.202-1.157.609-1.538.403-.38.942-.572 1.61-.572.692 0 1.241.192 1.644.572.407.38.609.893.609 1.538v8.834c0 1.24.251 2.16.75 2.755.5.595 1.287.892 2.362.892 1.24 0 2.235-.41 2.986-1.233.751-.824 1.128-1.915 1.128-3.271v-7.983c0-.645.202-1.158.608-1.538.404-.38.943-.573 1.611-.573.688 0 1.237.192 1.64.573ZM173.163 19.724c-.251-.238-.4-.585-.446-1.038l-1.323-13.914-.037-.357c0-.737.255-1.33.771-1.77.513-.439 1.161-.66 1.948-.66.833 0 1.515.257 2.037.77.523.513.738 1.197.645 2.057l-1.323 13.877c-.046.453-.195.8-.446 1.038a1.28 1.28 0 0 1-.913.358 1.291 1.291 0 0 1-.913-.36Zm-.985 7.097c-.5-.512-.751-1.15-.751-1.915 0-.763.251-1.398.751-1.914.499-.513 1.131-.77 1.895-.77s1.395.257 1.895.77c.499.512.75 1.15.75 1.915 0 .764-.251 1.402-.75 1.914-.5.513-1.131.771-1.895.771-.761 0-1.393-.255-1.895-.77Z" fill="#393A3E"/><path d="M34.475 15.617C33.718 7.621 27.398 1.11 19.451.133 14.083-.525 8.83 1.277 5.04 5.081 1.251 8.88-.535 14.139.14 19.507c.995 7.907 7.487 14.2 15.438 14.961a17.373 17.373 0 0 0 7.745-1.008c1.611 1.505 3.651 2.292 5.97 2.292a2.84 2.84 0 0 0 2.414-1.34c.523-.83.582-1.858.162-2.748a5.432 5.432 0 0 1-.294-.956c-.47-2.08.238-4.015.92-5.271a17.219 17.219 0 0 0 1.98-9.82Zm-5.592 17.466c-.004-.007-.004-.01-.007-.017 0 .007.003.013.007.017Zm.698-9.214c-.946 1.753-1.928 4.491-1.234 7.57.086.377.182.708.271.976-1.445-.152-2.652-.81-3.591-1.962l-.807-.988-1.161.529a14.046 14.046 0 0 1-7.167 1.184C9.47 30.563 4.224 25.48 3.421 19.093c-.55-4.349.896-8.605 3.962-11.677C10.448 4.34 14.7 2.885 19.047 3.417c6.42.787 11.522 6.049 12.134 12.511a13.91 13.91 0 0 1-1.6 7.94Z" fill="#F0216C"/></svg>