<svg xmlns="http://www.w3.org/2000/svg" xmlns:xlink="http://www.w3.org/1999/xlink" width="122.899" height="48.261" viewBox="0 0 122.899 48.261">
  <defs>
    <clipPath id="clip-path">
      <rect id="Rectángulo_1" data-name="Rectángulo 1" width="122.899" height="48.261" fill="none"/>
    </clipPath>
  </defs>
  <g id="Grupo_4" data-name="Grupo 4" transform="translate(-17.326 -9.734)">
    <g id="Grupo_3" data-name="Grupo 3" transform="translate(17.326 9.734)">
      <g id="Grupo_2" data-name="Grupo 2" clip-path="url(#clip-path)">
        <path id="Trazado_14" data-name="Trazado 14" d="M104.955,57.474l-.128-.645c-.1-.675-.2-1.35-.292-2.026-.068-.5-.022-.553.485-.577.277-.013.555-.01.833,0,.529.019.576.055.655.576.133.865.254,1.731.377,2.6.139.972.271,1.944.414,2.915a.785.785,0,0,0,.173.526c.2-.134.237-.358.324-.545q1.276-2.761,2.541-5.527c.115-.25.209-.5.559-.541.59-.061.765.034.892.622.381,1.752.751,3.506,1.129,5.258a1.426,1.426,0,0,0,.226.679c.231-.149.262-.4.345-.6.712-1.761,1.416-3.525,2.125-5.287.269-.668.273-.668.976-.674.3,0,.6-.011.9.011.391.029.454.115.309.489-.278.716-.584,1.421-.874,2.133-.064.157-.109.322-.163.484a.613.613,0,0,1,.069.543,46.215,46.215,0,0,1-2.111,4.375,7.3,7.3,0,0,1-3.357-.04c-.341-.089-.339-.408-.418-.658-.168-.526-.211-1.084-.408-1.763-.355.729-.711,1.318-1.055,1.916-.173.3-.229.72-.664.818-1.082-.065-2.182.244-3.245-.169a4.2,4.2,0,0,1-.418-1.651c-.15-.857-.279-1.719-.4-2.581-.036-.253-.1-.513.207-.658" transform="translate(-76.833 -39.856)" fill="#161615"/>
        <path id="Trazado_15" data-name="Trazado 15" d="M168.088,22.563H195.4c1.181,0,1.079-.035,1.081,1.08q.006,3.525,0,7.049c0,.213-.006.427-.02.64a.268.268,0,0,1-.276.288.286.286,0,0,1-.328-.306c-.013-.192-.017-.384-.017-.576q0-3.268,0-6.537c0-.192-.008-.384-.009-.577a.362.362,0,0,0-.4-.4c-.278-.01-.555-.012-.833-.012H140.942c-.256,0-.513.005-.769-.006-.231-.01-.518.012-.5-.335s.309-.289.534-.3c.17-.012.342,0,.513,0h27.371" transform="translate(-102.682 -16.586)" fill="#161615"/>
        <path id="Trazado_16" data-name="Trazado 16" d="M320.659,61.726c.352-1.053.819-2.061,1.234-3.089.5-1.227,1-2.449,1.509-3.672.292-.705.294-.705,1.083-.709.363,0,.726-.008,1.089,0,.5.018.543.044.621.535q.265,1.676.5,3.356c.135.972.328,1.936.391,2.917.131.943.007,1.1-.921,1.1a1.682,1.682,0,0,1-1.26-.28,6.429,6.429,0,0,1-.18-.838c-.048-.833-.2-1.654-.293-2.545-.337,1.053-1.082,1.864-1.2,2.933-.04.172-.012.364-.153.505a3.446,3.446,0,0,1-2.161.157.3.3,0,0,1-.252-.379" transform="translate(-235.737 -39.885)" fill="#161615"/>
        <path id="Trazado_17" data-name="Trazado 17" d="M435.875,62a3.96,3.96,0,0,1,3.445-4.106,3.8,3.8,0,0,1,1.274-.039c.307.062.415-.083.445-.376q.127-1.241.29-2.478c.1-.721.111-.724.838-.734.107,0,.213,0,.32,0,.911,0,.919,0,.8.881q-.44,3.363-.892,6.724a1.563,1.563,0,0,1-1.947.256c-.409-.344-.283-.788-.207-1.212.043-.244.161-.48-.043-.7-.595-.391-.888.089-1.231.426-.6.283-.6.959-.914,1.428a.97.97,0,0,1-.281.122c-.637-.034-1.3.2-1.9-.188" transform="translate(-320.443 -39.892)" fill="#161615"/>
        <path id="Trazado_18" data-name="Trazado 18" d="M273.244,67.55c-.324.2-.409.635-.761.838a.75.75,0,0,1,.059-.716,4.128,4.128,0,0,1,.933-1.514,1.344,1.344,0,0,0,.4-.845c.058-.487.12-.973.179-1.46.088-.73.106-.749.813-.757.277,0,.554,0,.832.007s.385.144.353.41q-.035.286-.063.572c-.027.28.087.392.376.336a3.411,3.411,0,0,1,.95-.106,2.9,2.9,0,0,1,2.611,2.271,3.568,3.568,0,0,1,.019,1.772,2.476,2.476,0,0,1-1.725.121c-.56-.105-.665-.573-.65-1.071-.006-.066-.012-.134-.019-.2a.93.93,0,0,0-1.016-.9c-.557.043-.6.426-.559.86-.038.162-.064.325-.087.489a6.236,6.236,0,0,0-.149.634.461.461,0,0,1-.417.338,5.063,5.063,0,0,1-1.855,0,.353.353,0,0,1-.182-.352c.037-.2.232-.361.156-.592a.262.262,0,0,0-.194-.136" transform="translate(-200.269 -46.386)" fill="#161615"/>
        <path id="Trazado_19" data-name="Trazado 19" d="M204.348,71.3a3.918,3.918,0,0,1,1.039-2.544,3.48,3.48,0,0,1,3.629-.919,2.408,2.408,0,0,1,1.383,1.251,4.379,4.379,0,0,1,.387,2.425c-.04.407-.1.447-.535.457-.6.013-1.191.013-1.786.019a3.089,3.089,0,0,1-2.074.253,9.756,9.756,0,0,0-1.384-.089c-.693-.03-.758-.123-.659-.852" transform="translate(-150.204 -49.74)" fill="#161615"/>
        <path id="Trazado_20" data-name="Trazado 20" d="M149.92,71.552a4.1,4.1,0,0,1,3.627-3.142,16.646,16.646,0,0,1,2.687-.078c.44.01.516.1.462.564-.108.933-.248,1.862-.374,2.792-.13.711-.249.813-1,.821a1.622,1.622,0,0,1-.977-.173c-.311-.215-.224-.547-.249-.845a.931.931,0,0,0,0-.19c-.052-.262.369-.64-.174-.78a.937.937,0,0,0-1.084.495.5.5,0,0,1-.112.153,1.929,1.929,0,0,0-.64.854c-.116.261-.271.486-.6.489-.377.008-.753.008-1.129-.008a.557.557,0,0,1-.566-.307l.011-.132c.125-.151-.019-.364.117-.513" transform="translate(-110.123 -50.224)" fill="#161615"/>
        <path id="Trazado_21" data-name="Trazado 21" d="M386.545,72.21a4.182,4.182,0,0,1,3.144-3.677,13.911,13.911,0,0,1,3.37-.18c.37.007.44.114.386.567-.11.929-.249,1.855-.376,2.782-.131.755-.132.771-.922.725-.367-.021-.759.168-1.1-.109-.242-.236-.193-.543-.2-.835a1.27,1.27,0,0,0,.006-.187c-.033-.255.315-.582-.118-.758a1.014,1.014,0,0,0-1.13.477.654.654,0,0,1-.1.161,2.138,2.138,0,0,0-.639.834c-.094.178-.138.4-.388.453-.659.031-1.349.3-1.93-.254" transform="translate(-284.178 -50.238)" fill="#161615"/>
        <path id="Trazado_22" data-name="Trazado 22" d="M274.37,92.406c-.111.755-.23,1.509-.329,2.266a.544.544,0,0,1-.568.555,2.267,2.267,0,0,1-1.312.1c-.4-.023-.367-.382-.323-.629.25-1.383.378-2.783.618-4.168.076-.441.111-.891.214-1.327.195-.284.493-.179.75-.188.438-.015.878-.016,1.316,0,.41.1.864.038,1.227.316.046.322.279.188.435.154a4.041,4.041,0,0,1,1.571-.033.865.865,0,0,1,.667.333,2.858,2.858,0,0,1-2.4,1.9,5.239,5.239,0,0,1-.754.093,1.489,1.489,0,0,0-1.117.632" transform="translate(-199.831 -65.432)" fill="#161615"/>
        <path id="Trazado_23" data-name="Trazado 23" d="M81.3,19.155l.377-2.832c.189-.745.369-1.491.57-2.233a.517.517,0,0,0-.189-.617,3.342,3.342,0,0,1-.912-1.143c-.066-.129-.114-.288-.283-.328-.557-.13-.6-.589-.706-1.087a.908.908,0,0,1,.858.66,3.5,3.5,0,0,0,.936,1.434c.4.4.492.382.687-.137a18.966,18.966,0,0,1,1.383-2.956,13.936,13.936,0,0,1,1.691-2.33,1.516,1.516,0,0,0,.414-.845.656.656,0,0,0-.293-.757,2.482,2.482,0,0,1-.82-1.768,3.16,3.16,0,0,1,1.419.927.623.623,0,0,1,.051.725,1.031,1.031,0,0,0-.116.836c.479-.13.73-.558,1.1-.809.407-.274.8-.574,1.211-.838a11.707,11.707,0,0,0,1.2-.722,3.278,3.278,0,0,1,1.268-.691,1.128,1.128,0,0,1-.447.9c-.212.221-.229.364.019.564a2.392,2.392,0,0,1,.69.874c-.745-.071-1.375-.116-1.778-.722a.25.25,0,0,0-.372-.105c-.153.075-.308.148-.456.233a11.758,11.758,0,0,0-4.36,4.5c-.261.454-.192.564.322.554a7.763,7.763,0,0,0,.892-.079.581.581,0,0,0,.536-.377.948.948,0,0,1,.65-.543c.229.19-.228.551.265.656a4.66,4.66,0,0,1-1.1.4c-.131.049-.332.065-.18.293.139.207.024.262-.163.269a1.135,1.135,0,0,1-.614-.139.844.844,0,0,0-1.365.458A20.138,20.138,0,0,0,82.371,15.6a1.661,1.661,0,0,0-.037.317c0,.191.091.284.284.217.161-.056.315-.132.472-.2.086,0,.1.083.141.132.2.047.409.09.611.145.053.015.095.07.143.108-.408.378-.739.46-1.1.278-.461-.233-.534-.2-.711.334a1.26,1.26,0,0,0-.107.678q.064.043.038.078a.065.065,0,0,1-.049.033,6.867,6.867,0,0,0-.19,1.323c-.02.1-.026.212-.043.317-.025.152-.059.306-.259.3s-.227-.157-.239-.313c-.005-.064-.015-.127-.022-.19Z" transform="translate(-58.932 -2.68)" fill="#161615"/>
        <path id="Trazado_24" data-name="Trazado 24" d="M219.306,117.818c-.234,0-.469,0-.7,0-.667-.008-.678-.01-.6-.7.088-.8.2-1.606.3-2.409.072-.57.141-1.141.218-1.711.071-.524.129-.588.633-.595a9.551,9.551,0,0,1,1.148.049,2.262,2.262,0,0,1,1.276.537,3.12,3.12,0,0,1,.229,4.127,2.136,2.136,0,0,1-1.474.675c-.339.026-.681,0-1.022,0v.021" transform="translate(-160.245 -82.636)" fill="#161615"/>
        <path id="Trazado_25" data-name="Trazado 25" d="M416.133,70.787c.106-.738.206-1.477.319-2.213.1-.65.108-.651.766-.664.128,0,.256,0,.385,0,.753.005.753.006.884.76.25-.117.379-.349.559-.517a1.254,1.254,0,0,1,1.293-.341c.706.207.816.423.545,1.1q-.322.8-.646,1.6c-.081.172-.208.162-.37.12-.915-.24-1.138-.127-1.492.733-.07.232-.039.524-.363.6l-.232.043a3.613,3.613,0,0,1-1.263.064.6.6,0,0,1-.562-.347c.02-.322-.073-.664.176-.943" transform="translate(-305.8 -49.81)" fill="#161615"/>
        <path id="Trazado_26" data-name="Trazado 26" d="M179.59,58.914a1.24,1.24,0,0,0,.1-.671c-.055-.123-.095-.245.03-.353q.182-1.324.363-2.648c.015-.105.018-.212.033-.317.09-.626.133-.665.761-.683,1.273-.037,1.279-.036,1.124,1.209-.211,1.688-.431,3.375-.652,5.062a4.293,4.293,0,0,1-.1.433,1.36,1.36,0,0,1-1.928-.12,5.235,5.235,0,0,1,.272-1.912" transform="translate(-131.83 -39.87)" fill="#161615"/>
        <path id="Trazado_27" data-name="Trazado 27" d="M247.545,87.056c.043.369-.01.806.4.989.44.2.8-.087,1.15-.323a1.309,1.309,0,0,0,.393-.4c.076-.1.1-.239.235-.284a6.967,6.967,0,0,0,1.584-.141c.169-.035.322-.108.474.028q.008.255.016.51c.039.031.051.06.035.087s-.03.039-.045.039a7.677,7.677,0,0,0-.272,1.54c-.047.306-.118.582-.488.635a1.326,1.326,0,0,1-1.537.227,1.607,1.607,0,0,0-1.15.035,2.08,2.08,0,0,1-2.85-1.043,2.747,2.747,0,0,1,.034-2.145.314.314,0,0,1,.355.044,1.154,1.154,0,0,0,1.193.165c.169-.048.322-.107.469.037" transform="translate(-180.332 -63.795)" fill="#161615"/>
        <path id="Trazado_28" data-name="Trazado 28" d="M328.617,111.507c-.209-.173-.51-.22-.7-.5a1.512,1.512,0,0,1,1.4-.186.691.691,0,0,0,.754-.123,15.415,15.415,0,0,0,1.334-1.094,2.009,2.009,0,0,0,.457-.685,22.952,22.952,0,0,0,.846-2.139c.061-.178.113-.4.38-.319a.4.4,0,0,1,.278.506,3.462,3.462,0,0,1-.326.831,28.115,28.115,0,0,1-3.667,5.755,4.161,4.161,0,0,0-.613,2.226c-.025.141.094.219.179.316a1.406,1.406,0,0,1,.229,1.527c-.253-.017-.312-.261-.463-.4-.1-.085-.18-.115-.252.023-.129.058-.161.007-.129-.115a12.155,12.155,0,0,1,.226-1.642,1.594,1.594,0,0,0,0-.754c-.273.04-.374.247-.511.395a17.785,17.785,0,0,1-4.461,3.6c-.206.113-.4.213-.434.5s-.286.4-.536.488a4.028,4.028,0,0,1-1.265.168,1.783,1.783,0,0,1,1.374-1.18,1.493,1.493,0,0,0,.873-.324c.928-.61,1.765-1.338,2.646-2.01.152-.075.022-.3.188-.364a2.063,2.063,0,0,0,.579-.388,22.869,22.869,0,0,0,3.758-4.65.6.6,0,0,0,.158-.529,7.982,7.982,0,0,0-1.226.8,1.307,1.307,0,0,1-.962.387c-.084,0-.089-.078-.122-.128" transform="translate(-236.249 -78.255)" fill="#161615"/>
        <path id="Trazado_29" data-name="Trazado 29" d="M155.318,87.041c-.026.6-.133,1.184-.212,1.775a.529.529,0,0,1-.53.526.982.982,0,0,1-1.1.3,3.706,3.706,0,0,0-1.738.087,2.546,2.546,0,0,1-2.941-2.372.366.366,0,0,1,.107-.289,4.21,4.21,0,0,1,1.972-.191c.125-.02.285-.077.37.011.6.626,1.173.4,1.746-.032a.321.321,0,0,0,.243-.312.3.3,0,0,1,.331-.3c.423.619,1.168.537,1.754.8" transform="translate(-109.389 -63.401)" fill="#161615"/>
        <path id="Trazado_30" data-name="Trazado 30" d="M442.142,87.206a9.514,9.514,0,0,1-.117,1.2c-.018.53-.21.9-.783.969-.025.173-.153.244-.3.3a4.386,4.386,0,0,1-4.864-1.646c-.163-.271-.351-.549-.121-.878.546-.554,1.288-.3,1.928-.468a.521.521,0,0,1,.622.145,1.272,1.272,0,0,0,1.391.345c.189-.122.108-.311.126-.477.024-.214.073-.42.363-.4a1.859,1.859,0,0,0,1.356.634c.184-.007.28.163.4.279" transform="translate(-320.429 -63.44)" fill="#161615"/>
        <path id="Trazado_31" data-name="Trazado 31" d="M323.161,80.545a2.283,2.283,0,0,0,1.581.2c.457-.039.446-.423.475-.758a8.086,8.086,0,0,1,.256,1.8c.15.467-.065.669-.511.7a10.455,10.455,0,0,1-1.32,0,12.986,12.986,0,0,0-3.444.27c-.53-.032-1.061.05-1.589-.011-.32-.037-.594-.135-.453-.557a8.059,8.059,0,0,1,.638-1.54,3.2,3.2,0,0,0,2.309-.108,1.7,1.7,0,0,1,2.058.007" transform="translate(-233.872 -58.805)" fill="#161615"/>
        <path id="Trazado_32" data-name="Trazado 32" d="M258.579,118.5c-.262-.048-.263.228-.456.18a.788.788,0,0,1,.208-.582,2.271,2.271,0,0,0,.492-1.289c.034-.436.23-.55.646-.487.138.021.271.066.262.221-.025.411.226.347.5.345a1.251,1.251,0,0,1,1.233.852,2.439,2.439,0,0,1-.763,2.654,1.669,1.669,0,0,1-1.023.313.442.442,0,0,0-.5.457c-.033.318-.075.637-.138.95s-.215.383-.563.351c-.3-.028-.339-.222-.312-.451.1-.827.207-1.652.307-2.478.041-.337.07-.675.107-1.036" transform="translate(-189.763 -85.508)" fill="#161615"/>
        <path id="Trazado_33" data-name="Trazado 33" d="M210.064,88.14a2.45,2.45,0,0,1-.665,2.293,2.367,2.367,0,0,1-2.213.68,3.21,3.21,0,0,1-2.907-1.674c-.164-.3-.393-.633-.158-1.015.25-.239.553-.106.836-.121a3.312,3.312,0,0,0,1.293-.1.42.42,0,0,1,.421.025,2.642,2.642,0,0,0,2.5.02c.289-.116.569-.309.9-.106" transform="translate(-149.991 -64.734)" fill="#161615"/>
        <path id="Trazado_34" data-name="Trazado 34" d="M179.022,71.031a.7.7,0,0,0,.667.285l1.144,0c.16.235.251.039.328-.066.3-.411.6-.831.893-1.248.31-.434.627-.861.927-1.3a.753.753,0,0,1,.7-.362c.447.012.9-.009,1.342.011.369.016.422.122.205.428-.419.591-.86,1.166-1.291,1.749-.063.085-.114.179-.171.269.059.794-.522,1.158-1.048,1.56a.487.487,0,0,1-.42.086,17.735,17.735,0,0,0-2.929,0c-.28.026-.508-.012-.612-.314.116-.361-.181-.822.267-1.1" transform="translate(-131.416 -50.243)" fill="#161615"/>
        <path id="Trazado_35" data-name="Trazado 35" d="M359.244,71.887c.452-1.1.988-2.169,1.509-3.241a1.105,1.105,0,0,1,1.295-.288.467.467,0,0,1,.16.337c.14.926.333,1.844.391,2.781.11.878.022.98-.852.992-.167,0-.333,0-.5-.013a5.433,5.433,0,0,1-.587,0c-.356-.017-.711.046-1.067-.006s-.493-.211-.349-.559" transform="translate(-264.067 -50.179)" fill="#161615"/>
        <path id="Trazado_36" data-name="Trazado 36" d="M434.3,86.087a3.047,3.047,0,0,0,2.493,2.173,8.251,8.251,0,0,0,2.656-.018c.2.653.083.9-.544.991a8.3,8.3,0,0,1-3.241-.082,2.962,2.962,0,0,1-1.845-4.4c.19.153.108.409.234.563.48.13.434.429.248.772" transform="translate(-318.638 -62.307)" fill="#fff"/>
        <path id="Trazado_37" data-name="Trazado 37" d="M324.706,88.719c.055-.35.324-.338.581-.341q1.364-.014,2.728-.024a1.351,1.351,0,0,1,.516.9c-.02.953,0,.989.978,1.373.13.051.214.126.205.275.1,1.016.1,1.016-.935,1.014-.106,0-.213,0-.32,0-.6-.024-.691-.1-.8-.682-.043-.23-.077-.462-.121-.692-.108-.557-.2-.646-.752-.662s-1.108-.006-1.662-.008a.7.7,0,0,1-.678-.266c-.413-.443-.1-.672.261-.887" transform="translate(-238.38 -64.956)" fill="#fff"/>
        <path id="Trazado_38" data-name="Trazado 38" d="M147.988,86.2a2.266,2.266,0,0,0,3.553,1.887c.235-.128.47-.372.59.127.034.14.256.117.4.123.318.013.637.024.955.036a2.388,2.388,0,0,1-.26,1.028l-1.776-.006c-.13-.091-.231-.229-.4-.252a6.584,6.584,0,0,1-.906.275,3.064,3.064,0,0,1-1.273-.009,1.764,1.764,0,0,1-.906-.517c-.226-.1-.29-.314-.375-.515a2.084,2.084,0,0,1-.274-.892c.006-.361,0-.722.022-1.082a2.589,2.589,0,0,1,.5-1.484.878.878,0,0,1,.146,1.281" transform="translate(-108.303 -62.427)" fill="#fff"/>
        <path id="Trazado_39" data-name="Trazado 39" d="M244.831,80.2a3.045,3.045,0,0,0,.035,1.633,1.72,1.72,0,0,0,1.794,1.32,2.629,2.629,0,0,0,1.379-.43c.209-.139.417-.281.619-.417.051.041.107.064.108.089.016.6.015.595.577.611.3.009.593.023.889.034-.126.99-.166,1.026-1.146,1.021-.381,0-.769.049-.983-.407-.077-.164-.272-.044-.4.02a4.279,4.279,0,0,1-1.207.414,2.47,2.47,0,0,1-.89-.005,1.52,1.52,0,0,1-1.4-1.629,4.77,4.77,0,0,1,.045-.829q.237-1.583.5-3.162c.048-.286.039-.61.335-.8.31.064.281.324.316.546a2.135,2.135,0,0,1-.084.767c-.01.072-.02.144-.028.216-.2.313.05.836-.463,1" transform="translate(-179.534 -57.097)" fill="#fff"/>
        <path id="Trazado_40" data-name="Trazado 40" d="M390.187,88.364c-.005.085,0,.171-.016.255-.088.656-.194.769-.854.762-.43,0-.9.134-1.256-.283-.134-.156-.323-.008-.47.064a2.821,2.821,0,0,1-1.492.271,2.018,2.018,0,0,1-1.966-1.628,3.556,3.556,0,0,1,.406-2.892c.477.158.236.609.371.906a8.087,8.087,0,0,0,.3,1.038,1.841,1.841,0,0,0,2.021,1.24,2.258,2.258,0,0,0,.775-.28c.437-.27.845-.507,1.242.072.105.153.343.145.532.175s.4.029.408.3" transform="translate(-282.307 -62.426)" fill="#fff"/>
        <path id="Trazado_41" data-name="Trazado 41" d="M202.825,84.777a2.922,2.922,0,0,0,2.922,2.295,7.726,7.726,0,0,0,2.2-.364,1.1,1.1,0,0,1-1.011,1.118,6.654,6.654,0,0,1-2.4.147,3.655,3.655,0,0,1-2.078-1.151c-.315-.038-.45-.18-.285-.495a9,9,0,0,1-.124-1.754,2.66,2.66,0,0,1,.513-1.588c.35.558.661,1.122.269,1.792" transform="translate(-148.534 -61.009)" fill="#fff"/>
        <path id="Trazado_42" data-name="Trazado 42" d="M373.79,72.085c.477-1.161,1.082-2.261,1.619-3.393a.557.557,0,0,1,.554-.349c.361,0,.723-.014,1.084,0,.425.021.475.106.283.517-.305.655-.63,1.3-.947,1.949a2.125,2.125,0,0,1-.976,1.816,9.84,9.84,0,0,1-1.256.005c-.327-.049-.511-.189-.361-.549" transform="translate(-274.762 -50.241)" fill="#161615"/>
        <path id="Trazado_43" data-name="Trazado 43" d="M305.04,121.222A2.084,2.084,0,0,1,307,118.844c1.227-.164,1.276-.12,1.139,1.1-.073.656-.158,1.31-.243,1.964-.073.563-.184.659-.749.577a1.541,1.541,0,0,0-.682.018.984.984,0,0,1-1.331-.727,3.337,3.337,0,0,1-.093-.55" transform="translate(-224.258 -87.321)" fill="#161615"/>
        <path id="Trazado_44" data-name="Trazado 44" d="M187.189,121.112l-.37.645a.128.128,0,0,1-.126.137,3.7,3.7,0,0,1-.729.389,1.308,1.308,0,0,1-1.727-.871,3.837,3.837,0,0,1-.122-1.453,3.015,3.015,0,0,1,.529-.944,1.511,1.511,0,0,1,1.5-.509,1.456,1.456,0,0,1,1.085,1.146,3.48,3.48,0,0,1-.041,1.459" transform="translate(-135.35 -87.092)" fill="#161615"/>
        <path id="Trazado_45" data-name="Trazado 45" d="M392.728,92.313c-.319-.01-.638-.019-.957-.031-.148-.006-.367.018-.4-.125-.127-.5-.363-.248-.592-.119a3.146,3.146,0,0,1-.766.312,2.055,2.055,0,0,1-2.553-1.436c.1-.36.414-.318.675-.314a2.816,2.816,0,0,0,1.4-.3,1.573,1.573,0,0,1,.982.184.553.553,0,0,0,.574.164A6.723,6.723,0,0,1,392.7,90.6a.765.765,0,0,1,.655.307,5.76,5.76,0,0,1-.1.92.483.483,0,0,1-.526.483" transform="translate(-284.848 -66.375)" fill="#161615"/>
        <path id="Trazado_46" data-name="Trazado 46" d="M275.158,121.275c-.047.817-.137.921-.864,1.045a1.453,1.453,0,0,1-1.8-1.2,2.642,2.642,0,0,1,.1-1.509,1.58,1.58,0,0,1,1.035-1.054c1.181-.371,1.883.506,1.8,1.607-.018.246-.187.314-.4.316-.383.005-.767,0-1.15.013-.167,0-.364-.019-.436.183a.537.537,0,0,0,.121.537.786.786,0,0,0,.811.242c.248-.044.461-.224.778-.18" transform="translate(-200.284 -87.096)" fill="#161615"/>
        <path id="Trazado_47" data-name="Trazado 47" d="M247.12,72.2c0-.044.007-.088.01-.132.114-.216-.008-.467.1-.684l.006-.589c.092-.631.182-1.263.278-1.894.078-.514.122-.554.654-.571.3-.01.6-.014.894,0,.425.025.492.093.441.509-.1.823-.227,1.644-.342,2.465-.129.207.017.457-.107.665q-.01.114-.019.227a1.532,1.532,0,0,1-1.912,0" transform="translate(-181.677 -50.232)" fill="#161615"/>
        <path id="Trazado_48" data-name="Trazado 48" d="M239.035,121.237c.06.77-.049.922-.751,1.063a1.48,1.48,0,0,1-1.9-1.373,2.694,2.694,0,0,1,.144-1.385,1.65,1.65,0,0,1,1.021-.993,1.28,1.28,0,0,1,1.324.215,1.553,1.553,0,0,1,.455,1.4c-.023.252-.206.3-.411.3-.384.007-.768.005-1.152.014-.168,0-.363-.012-.428.2a.542.542,0,0,0,.113.483.786.786,0,0,0,.856.282c.248-.045.458-.226.725-.207" transform="translate(-173.766 -87.087)" fill="#161615"/>
        <path id="Trazado_49" data-name="Trazado 49" d="M178.428,82.375a2.514,2.514,0,0,0,1,.027c.947.011,1.894,0,2.841,0,.484-.013.5.276.414.636l.516.888c.159.35.009.515-.336.563a7.784,7.784,0,0,1-1.381-.019c-.564.3-.608-.376-.953-.515-.23.074-.089.415-.332.485a.925.925,0,0,1-.318.073c-.294.011-.588.009-.881,0-.793-.024-.877-.116-.876-.933,0-.084,0-.167.011-.251.182-.293-.175-.751.293-.955" transform="translate(-130.952 -60.56)" fill="#161615"/>
        <path id="Trazado_50" data-name="Trazado 50" d="M263.057,71.076q.133-.976.266-1.953c.1-.76.121-.778.856-.788,1.18-.016,1.193-.015,1.041,1.162-.117.9-.189,1.816-.39,2.709a2.952,2.952,0,0,1-1.606.2c-.324.012-.369-.285-.369-.555.068-.257-.029-.558.2-.773" transform="translate(-193.244 -50.236)" fill="#161615"/>
        <path id="Trazado_51" data-name="Trazado 51" d="M348.518,70.818c-.121-.627-.249-1.253-.359-1.882-.093-.538-.056-.574.506-.59.277-.008.554.008.831,0a.459.459,0,0,1,.523.436c.156.966.369,1.923.462,2.9.079.676-.019.8-.641.841A2.337,2.337,0,0,1,348.7,72.3c-.331-.46-.584-.929-.185-1.48" transform="translate(-255.929 -50.245)" fill="#161615"/>
        <path id="Trazado_52" data-name="Trazado 52" d="M346.87,77.671l.3,1.274a2.086,2.086,0,0,1,.575,1.218,8.591,8.591,0,0,0,.266,1.332,3.4,3.4,0,0,0,.131.8.54.54,0,0,1-.207.605c.257.213.571.132.863.164.2.023.254.114.186.3a1.055,1.055,0,0,1-1.348.648.5.5,0,0,1-.343-.348c-.067-.225-.127-.452-.185-.68q-.554-2.205-1.1-4.412c-.042-.166-.083-.332-.115-.5-.051-.27.07-.409.34-.414.213,0,.427,0,.64,0" transform="translate(-254.281 -57.097)" fill="#fff"/>
        <path id="Trazado_53" data-name="Trazado 53" d="M184.983,86.018c-.18-.418.119-.732.21-1.157a9.9,9.9,0,0,1,.972,1.284,1.072,1.072,0,0,1,.7.539c.379.6.7,1.263,1.5,1.43.083.017.1.127.1.215.148.208.306.41.441.627.118.188.065.348-.165.367a7.4,7.4,0,0,1-1.6-.013.855.855,0,0,1-.541-.418q-.854-1.117-1.711-2.234a.2.2,0,0,1-.123-.13c0-.2.161-.334.22-.511" transform="translate(-135.833 -62.388)" fill="#fff"/>
        <path id="Trazado_54" data-name="Trazado 54" d="M295.684,119.216c.048-.376.1-.756.146-1.137.026-.211,0-.387-.262-.422a.275.275,0,0,1-.268-.354c.034-.205.023-.468.308-.49.325-.025.427-.223.493-.49.076-.311.333-.28.568-.275a.3.3,0,0,1,.325.372.318.318,0,0,0,.31.392c.216.034.249.2.238.388s-.037.415-.285.43c-.408.025-.47.291-.495.612-.022.276-.073.55-.088.826-.013.237.072.442.351.429s.4.065.4.349c0,.263-.005.5-.309.632a.962.962,0,0,1-1.394-.746c-.028-.167-.025-.34-.037-.517" transform="translate(-217.092 -85.313)" fill="#161615"/>
        <path id="Trazado_55" data-name="Trazado 55" d="M250.069,118.468a1.436,1.436,0,0,1,.7.2.628.628,0,0,1,.151.743c-.077.115-.178.078-.282.053-.212-.051-.474-.279-.626,0s.144.459.31.635a1.484,1.484,0,0,1,.548,1.169,1.08,1.08,0,0,1-.683.992,1.4,1.4,0,0,1-1.337-.178c-.248-.162-.143-.424-.06-.64.092-.239.277-.109.435-.077.216.044.476.236.629-.048.14-.26-.126-.417-.266-.591a3.752,3.752,0,0,1-.5-.657,1.093,1.093,0,0,1,.986-1.6" transform="translate(-182.833 -87.095)" fill="#161615"/>
        <path id="Trazado_56" data-name="Trazado 56" d="M192.348,90.811a1.4,1.4,0,0,1-1.538-.936c-.215-.434-.552-.8-.753-1.248a3.3,3.3,0,0,1,1.184-.118.792.792,0,0,0,.732-.271,9.979,9.979,0,0,1,.892,1.3,2.918,2.918,0,0,0,.493.652l.285.495a4.11,4.11,0,0,1-1.3.127" transform="translate(-139.725 -64.87)" fill="#161615"/>
        <path id="Trazado_57" data-name="Trazado 57" d="M269.834,81.822a.594.594,0,0,1,.01-.126,5.258,5.258,0,0,1,1.227-1.805.781.781,0,0,0,.279-.671c.116-.1.164-.437.4-.116-.12.209.014.456-.1.666l-.034.386a1.3,1.3,0,0,1-.229,1.669q-.261,1.9-.521,3.8c-.075.549-.152,1.1-.215,1.647-.052.454,0,.511.471.54.3.019.6.028.893.041-.241.345-.608.246-.936.251-1.059.014-1.06.007-.895-1.059q.414-2.676.829-5.351c.013-.084.029-.168.04-.252.016-.124.06-.268-.069-.348s-.242.03-.331.116a5.04,5.04,0,0,0-.385.424.414.414,0,0,1-.437.191" transform="translate(-198.375 -58.055)" fill="#fff"/>
        <path id="Trazado_58" data-name="Trazado 58" d="M215.205,85.434a4.112,4.112,0,0,1-2.273.746,1.837,1.837,0,0,1-1.457-.524c-.344.012-.41-.235-.462-.5a.628.628,0,0,1,.617-.53,13.432,13.432,0,0,0,1.76-.26c.318,0,.636,0,.954.014.6.016.682.087.8.673.026.124.039.251.059.377" transform="translate(-155.132 -62.027)" fill="#fff"/>
        <path id="Trazado_59" data-name="Trazado 59" d="M317.85,88.671a4.655,4.655,0,0,1-.261.887c-.25.41-.275.928-.621,1.292h0a4.759,4.759,0,0,0-1.511-.1c-.578-.03-.634-.093-.416-.647a13.608,13.608,0,0,1,.766-1.811c.184.262.462.251.736.258a3.663,3.663,0,0,1,1.306.124" transform="translate(-231.524 -64.908)" fill="#161615"/>
        <path id="Trazado_60" data-name="Trazado 60" d="M362.156,82.955c.051-.138.119-.238.281-.124a1.769,1.769,0,0,1,.519,1.361,10.811,10.811,0,0,1,.233,1.358c-.008.376.333.786-.112,1.117.258.207.569.128.859.161.219.025.3.126.22.346a1.094,1.094,0,0,1-1.48.563.714.714,0,0,1-.3-.536c-.14-.622-.27-1.246-.41-1.867a1.284,1.284,0,0,0-.188-.606c-.26-.086-.282.309-.52.265-.4-.3-.036-.534.059-.792.2-.468.293-1.011.841-1.245" transform="translate(-265.452 -60.859)" fill="#fff"/>
        <path id="Trazado_61" data-name="Trazado 61" d="M366.484,82.5a6.51,6.51,0,0,1-.256-1.41c.256,0,.512.006.768,0,.625-.016.656-.046.777-.675.042.159.091.316.124.477.069.329.215.222.372.072a.732.732,0,0,0,.68.256,2.649,2.649,0,0,1,1,.132c.127.585-.24.95-.591,1.321a7.008,7.008,0,0,1-2.34.12.678.678,0,0,1-.534-.291" transform="translate(-269.242 -59.119)" fill="#161615"/>
        <path id="Trazado_62" data-name="Trazado 62" d="M354.576,81.613a4.5,4.5,0,0,1-.608,1.3,5.878,5.878,0,0,1-2.448.138.591.591,0,0,1-.5-.4,6.1,6.1,0,0,1-.257-1.283,2.683,2.683,0,0,0,1.072.122.522.522,0,0,0,.589-.53c.133.2.067.486.236.673.246-.055.249-.292.389-.4a.716.716,0,0,0,.666.264,2.26,2.26,0,0,1,.862.124" transform="translate(-257.872 -59.517)" fill="#161615"/>
        <path id="Trazado_63" data-name="Trazado 63" d="M320.327,119.678c-.377-.044-.626.146-.706.611-.094.546-.153,1.1-.226,1.647a.387.387,0,0,1-.411.392c-.394.014-.5-.07-.452-.477.1-.911.211-1.822.334-2.731.061-.452.344-.628.771-.43.222.1.35.151.543-.021a.479.479,0,0,1,.646,0c.24.175.129.394.035.573-.107.2-.069.623-.534.432" transform="translate(-234.169 -87.152)" fill="#161615"/>
        <path id="Trazado_64" data-name="Trazado 64" d="M285.42,121.779c.111-.853.221-1.76.351-2.664.064-.445.346-.62.766-.428.214.1.339.175.535-.009a.449.449,0,0,1,.637.008c.212.175.116.385.04.583-.1.268-.141.583-.6.4-.285-.114-.477.15-.566.394a3.813,3.813,0,0,0-.15.747c-.056.378-.1.759-.146,1.138-.023.176-.075.322-.285.368-.411.09-.6-.059-.585-.537" transform="translate(-209.833 -87.154)" fill="#161615"/>
        <path id="Trazado_65" data-name="Trazado 65" d="M178.984,87.233a.49.49,0,0,0,0,.117c-.054.376-.12.749-.158,1.127-.032.318-.168.513-.5.54-.362.415-.827.328-1.285.259a.344.344,0,0,1-.306-.394,16.434,16.434,0,0,1,.388-3c.014-.07.1-.057.16-.077.006.085.01.171.018.255.057.573.119.635.713.659a2.7,2.7,0,0,1,.946.131.371.371,0,0,1,.026.386" transform="translate(-129.929 -63.079)" fill="#161615"/>
        <path id="Trazado_66" data-name="Trazado 66" d="M423.049,77.493a2.517,2.517,0,0,1,.516-.711c.485-.484.773-.514,1.328-.138.119.081.2.221.37.218a.283.283,0,0,1,.182.446q-.3.626-.619,1.247c-.1.2-.263.315-.456.148a1.207,1.207,0,0,0-1.418-.056c-.245-.161-.177-.337-.023-.516h0c.154-.191-.017-.443.119-.637" transform="translate(-310.825 -56.158)" fill="#fff"/>
        <path id="Trazado_67" data-name="Trazado 67" d="M129.881,83.453a1.828,1.828,0,0,0,.689.126h2.623c.162.446-.171.712-.374,1.025l-.284.508a4.264,4.264,0,0,1-2.39.2,1.528,1.528,0,0,1-.264-1.857" transform="translate(-95.329 -61.353)" fill="#161615"/>
        <path id="Trazado_68" data-name="Trazado 68" d="M176.263,74.88A22.3,22.3,0,0,0,175.9,77.6c-.041.358.053.426.447.454.319.023.64.025.959.036-.005.085,0,.171-.016.255-.089.656-.194.751-.853.77-1.183.034-1.187.02-1-1.157.36-2.231.707-4.464,1.062-6.7.016-.1,0-.211.083-.293-.033-.076.127.017.045.04s0-.022.016.062l.026.125c.007.587-.186,1.156-.154,1.744a2.815,2.815,0,0,0-.131,1.026,2.3,2.3,0,0,0-.124.907" transform="translate(-128.912 -52.158)" fill="#fff"/>
        <path id="Trazado_69" data-name="Trazado 69" d="M131.05,89.457a5.864,5.864,0,0,1,2.319-.023c-.115.491-.42.914-.506,1.415-.2.726-.715.874-1.378.752-.632-.252-.445-.885-.612-1.348a.611.611,0,0,1,.177-.8" transform="translate(-96.163 -65.673)" fill="#161615"/>
        <path id="Trazado_70" data-name="Trazado 70" d="M413.479,78.7l-.044.843c0,.326.287.591.195.936-.1.609-.18,1.22-.31,1.823-.036.843-.036.844.763,1.075.151.043.287.089.278.284s-.036.38-.067.568a.53.53,0,0,1-.182.327,2.727,2.727,0,0,1-1.614.034c-.212-.158-.149-.377-.116-.586q.253-1.6.51-3.208c.114-.713.225-1.426.343-2.138.013-.078.048-.185.162-.123.045.024.057.109.084.166" transform="translate(-303.146 -57.724)" fill="#fff"/>
        <path id="Trazado_71" data-name="Trazado 71" d="M206.148,83.007l.165.477c-.313.346-.732.252-1.123.265a2.2,2.2,0,0,1-.929-.126,6.556,6.556,0,0,1-.269-1.792l.122-.416c.037.393.27.535.645.541a3.6,3.6,0,0,1,1.444.145c.3.321-.216.593-.055.906" transform="translate(-149.97 -59.855)" fill="#161615"/>
        <path id="Trazado_72" data-name="Trazado 72" d="M281.457,94.338a.639.639,0,0,1,0-.064c.034-.931.034-.914.968-.91a3.7,3.7,0,0,0,3.237-1.595c-.009-.11.037-.158.149-.132.117.507-.208.848-.48,1.187a4.006,4.006,0,0,1-3.169,1.513c-.234.007-.467,0-.7,0" transform="translate(-206.918 -67.364)" fill="#fff"/>
        <path id="Trazado_73" data-name="Trazado 73" d="M149.448,84.754a7.408,7.408,0,0,1-.146-1.281l.13-.514a5.847,5.847,0,0,1,1.776.126.345.345,0,0,1,.276.165c.056.134.07.282.129.417a1.131,1.131,0,0,1-.068.833,1.078,1.078,0,0,1-.181.114,5.429,5.429,0,0,1-1.916.14" transform="translate(-109.763 -60.986)" fill="#161615"/>
        <path id="Trazado_74" data-name="Trazado 74" d="M288.5,87.24l-.149.132c-1.069-.18-2.152-.1-3.237-.192l.579-.176c.109-.612.644-.839,1.059-1.176a1.141,1.141,0,0,1,.325-.061,4.4,4.4,0,0,1,1.26-.113.656.656,0,0,1,.69.442,4.254,4.254,0,0,1-.526,1.145" transform="translate(-209.605 -62.967)" fill="#161615"/>
        <path id="Trazado_75" data-name="Trazado 75" d="M436.072,84.777a2.465,2.465,0,0,1-.248-.772q.007-.452.015-.9a3.631,3.631,0,0,1,1.927,0c.517.56.57.829.256,1.291a.669.669,0,0,1-.623.244,6.2,6.2,0,0,0-1.326.144" transform="translate(-320.407 -60.997)" fill="#161615"/>
        <path id="Trazado_76" data-name="Trazado 76" d="M167.922,83.228a2.1,2.1,0,0,1-.868.126c-.74-.005-.811-.066-.923-.8-.189-.361-.368-.722.125-1,.361,0,.723-.013,1.083.006a.762.762,0,0,0,.852-.511,6.257,6.257,0,0,1-.131,1.154c-.129.2.028.448-.111.647q-.015.188-.029.375" transform="translate(-121.993 -59.588)" fill="#161615"/>
        <path id="Trazado_77" data-name="Trazado 77" d="M367.2,88.293h2.931c.121.461-.2.728-.45,1.028l-.2.25a1.773,1.773,0,0,1-2.074.024,5.92,5.92,0,0,1-.2-1.3" transform="translate(-269.953 -64.911)" fill="#161615"/>
        <path id="Trazado_78" data-name="Trazado 78" d="M351.732,87.338a4.915,4.915,0,0,0,1.634.124,3.567,3.567,0,0,1,1.315.14l-.292.739-.268.4a1.593,1.593,0,0,1-2.131-.12,6.256,6.256,0,0,1-.258-1.282" transform="translate(-258.585 -64.209)" fill="#161615"/>
        <path id="Trazado_79" data-name="Trazado 79" d="M454.03,84.71c-.32,0-.64.005-.959,0-.724-.012-.757-.046-.85-.8-.2-.37-.374-.737.139-1.009a3.06,3.06,0,0,0,1.912.023,11.269,11.269,0,0,1-.243,1.79" transform="translate(-332.317 -60.944)" fill="#161615"/>
        <path id="Trazado_80" data-name="Trazado 80" d="M246.714,82.969h1.912a7.7,7.7,0,0,1-.142,1.289.722.722,0,0,1-.692.376c-.213,0-.427.008-.64.006-.471-.006-.471-.008-.584-.541a3.258,3.258,0,0,1,.146-1.128" transform="translate(-181.271 -60.996)" fill="#161615"/>
        <path id="Trazado_81" data-name="Trazado 81" d="M177.879,122.533c.132-1.058.333-2.107.384-3.174-.035-.028-.046-.054-.03-.077s.028-.033.042-.033l.124-.38c.085,0,.171-.006.255,0,.485.04.511.065.508.524,0,.191-.011.383-.017.574-.216.847-.23,1.724-.369,2.583a1.071,1.071,0,0,1-.9-.018" transform="translate(-130.772 -87.387)" fill="#161615"/>
        <path id="Trazado_82" data-name="Trazado 82" d="M262.306,81.424c.074.306.311.291.55.288a3.191,3.191,0,0,1,1.25.119,4.836,4.836,0,0,1-.133,1.16.55.55,0,0,1-.627.39,3.929,3.929,0,0,1-1.417-.148.275.275,0,0,1,0-.34,1.216,1.216,0,0,0,.07-.552c.144-.291-.147-.731.307-.918" transform="translate(-192.52 -59.861)" fill="#161615"/>
        <path id="Trazado_83" data-name="Trazado 83" d="M401.561,87.878H399.45a.993.993,0,0,1-.825-.258c-.022-.5.464-.565.716-.832.369-.047.151-.69.632-.624.369.051.736.111,1.11.127.248.01.5.037.628.311a4.99,4.99,0,0,1-.148,1.274" transform="translate(-293.059 -63.343)" fill="#161615"/>
        <path id="Trazado_84" data-name="Trazado 84" d="M141.564,71.8l.374-1.025c.617-1.288,1.109-2.629,1.678-3.938a3.36,3.36,0,0,1,.382-.8c.612.092.646.13.382.651q-1.265,2.495-2.553,4.977c-.048.093-.081.274-.263.139" transform="translate(-104.074 -48.542)" fill="#fff"/>
        <path id="Trazado_85" data-name="Trazado 85" d="M415.054,87.722a9.617,9.617,0,0,1,.251-1.95c.581.256,1.3.037,1.811.541a5.359,5.359,0,0,1-.142,1.282,1.357,1.357,0,0,1-1.921.126" transform="translate(-305.137 -63.057)" fill="#161615"/>
        <path id="Trazado_86" data-name="Trazado 86" d="M386.161,84.508a5.228,5.228,0,0,1-.127-1.026l.135-.514h1.9a.31.31,0,0,1,.258.346,2.4,2.4,0,0,1,.052.6.67.67,0,0,1-.6.711,2.341,2.341,0,0,1-1.619-.119" transform="translate(-283.803 -60.995)" fill="#161615"/>
        <path id="Trazado_87" data-name="Trazado 87" d="M340.639,93.436c-.3-.014-.592-.038-.888-.038a.463.463,0,0,1-.528-.492,6.4,6.4,0,0,1-.109-1.008,2.436,2.436,0,0,1,2.039.253c.038.16.09.319.113.482.1.7.071.725-.627.8" transform="translate(-249.304 -67.486)" fill="#161615"/>
        <path id="Trazado_88" data-name="Trazado 88" d="M404.668,82.849l-1.14-.008a.72.72,0,0,1-.671-.273c-.21-.367-.386-.73.123-1.008a2.71,2.71,0,0,1,1.192-.1.572.572,0,0,0,.736-.411,4.909,4.909,0,0,1-.135,1.157c-.121.2.03.443-.108.639Z" transform="translate(-296.017 -59.588)" fill="#161615"/>
        <path id="Trazado_89" data-name="Trazado 89" d="M293.839,80.551a8.316,8.316,0,0,0-2.068-.132c-.078-.792-.307-1.6.285-2.311a1.751,1.751,0,0,1,.124.547c.066.522.137.585.673.609a3.568,3.568,0,0,1,1.239.132,2.408,2.408,0,0,1-.254,1.154" transform="translate(-214.423 -57.423)" fill="#161615"/>
        <path id="Trazado_90" data-name="Trazado 90" d="M340.683,88.467c-.425,0-.85,0-1.274,0a1.033,1.033,0,0,1-.765-.252l-.174-1.014c.443-.006.886-.014,1.33-.018.3,0,.549-.065.636-.4a2.081,2.081,0,0,1,.131.89c.11.161,0,.364.1.528q.009.132.018.265" transform="translate(-248.834 -63.802)" fill="#161615"/>
        <path id="Trazado_91" data-name="Trazado 91" d="M414.669,92.784a6.59,6.59,0,0,0,1.921-.126,5.662,5.662,0,0,1-.091.89.489.489,0,0,1-.532.509c-.335-.009-.671-.01-1.005-.029-.4-.024-.447-.067-.428-.443a2.03,2.03,0,0,1,.135-.8" transform="translate(-304.752 -68.12)" fill="#161615"/>
        <path id="Trazado_92" data-name="Trazado 92" d="M417.814,83.829c-.395,0-.79-.008-1.185,0a.541.541,0,0,1-.627-.538,2.2,2.2,0,0,1,.12-.895,4.872,4.872,0,0,0,1.815.153q.012.258.023.516l-.048,0c-.1.212.029.455-.092.663a.288.288,0,0,1-.008.105" transform="translate(-305.835 -60.573)" fill="#161615"/>
        <path id="Trazado_93" data-name="Trazado 93" d="M352.708,92.178a7.661,7.661,0,0,0,2.131.12c-.03.078-.055.159-.09.235-.517,1.147-.517,1.147-1.792,1.039l-.249-1.394" transform="translate(-259.302 -67.767)" fill="#161615"/>
        <path id="Trazado_94" data-name="Trazado 94" d="M211.9,113.481a1.459,1.459,0,0,1,1.131-1.367c.107-.017.225-.03.294.066a.272.272,0,0,1-.037.35,2.352,2.352,0,0,1-.238.21.356.356,0,0,0-.075.552.674.674,0,0,1,.113.227.628.628,0,0,1-.319.754.56.56,0,0,1-.742-.3,1.039,1.039,0,0,1-.127-.489" transform="translate(-155.784 -82.414)" fill="#161615"/>
        <path id="Trazado_95" data-name="Trazado 95" d="M339.663,113.246a1.458,1.458,0,0,1-1.166,1.409c-.106.012-.22.026-.282-.084a.261.261,0,0,1,.04-.3,1.8,1.8,0,0,1,.232-.216c.2-.175.291-.364.09-.6a.517.517,0,0,1-.088-.169.62.62,0,0,1,.327-.8.594.594,0,0,1,.76.4,2.085,2.085,0,0,1,.086.358" transform="translate(-248.625 -82.675)" fill="#161615"/>
        <path id="Trazado_96" data-name="Trazado 96" d="M205.5,113.555a1.461,1.461,0,0,1,1.128-1.46c.1-.017.221-.038.293.063a.274.274,0,0,1-.045.35c-.08.1-.191.168-.28.259-.127.13-.206.275-.074.451.013.017.024.035.035.053a.656.656,0,0,1-.046.876.473.473,0,0,1-.584.108.764.764,0,0,1-.429-.7" transform="translate(-151.078 -82.399)" fill="#161615"/>
        <path id="Trazado_97" data-name="Trazado 97" d="M333.186,113.308a1.379,1.379,0,0,1-1.009,1.313c-.138.037-.311.113-.408-.04a.311.311,0,0,1,.1-.4c.061-.058.13-.108.193-.165a.382.382,0,0,0,.079-.559.637.637,0,0,1,.058-.868.487.487,0,0,1,.589-.088.782.782,0,0,1,.4.8" transform="translate(-243.88 -82.666)" fill="#161615"/>
        <path id="Trazado_98" data-name="Trazado 98" d="M367.961,93.143l2.074-.024c-.557,1.256-.329,1.236-1.893,1.148l-.181-1.124" transform="translate(-270.516 -68.459)" fill="#161615"/>
        <path id="Trazado_99" data-name="Trazado 99" d="M194.193,79.542l-.414-.636,1.03-1.289a3.729,3.729,0,0,1,.943.064,5.952,5.952,0,0,1-1.56,1.86" transform="translate(-142.462 -57.062)" fill="#fff"/>
        <path id="Trazado_100" data-name="Trazado 100" d="M376.566,81.52l.45-1.028a3.544,3.544,0,0,0,.533-1.151,15.709,15.709,0,0,0,.914-1.659c.494.059.529.084.347.39-.639,1.076-1.3,2.142-1.955,3.206a1.227,1.227,0,0,1-.289.243" transform="translate(-276.842 -57.11)" fill="#fff"/>
        <path id="Trazado_101" data-name="Trazado 101" d="M328.384,140.586a.647.647,0,0,1-.187.364c-.16-.177-.354-.092-.536-.062a4.582,4.582,0,0,1-1.457-.01,2.016,2.016,0,0,0-1.236.048.971.971,0,0,1-.962-.174.823.823,0,0,1,1.116-.333,2.867,2.867,0,0,0,1.472.309c.12.006.274.031.331-.117s-.051-.242-.13-.337a1.842,1.842,0,0,0-.24-.207c.077-.222.223-.239.409-.138.167.659.383.819.99.73.144-.021.287-.048.43-.072" transform="translate(-238.201 -102.829)" fill="#161615"/>
        <path id="Trazado_102" data-name="Trazado 102" d="M211.866,84.908a.9.9,0,0,1,.055-.906l2.028,0c0,.032,0,.063,0,.095a1.229,1.229,0,0,1-1.241.525c-.307-.023-.639-.044-.838.284" transform="translate(-155.688 -61.756)" fill="#fff"/>
        <path id="Trazado_103" data-name="Trazado 103" d="M338.6,126.6c-.691.454-1.185-.024-1.716-.375.546-.207,1.084-.481,1.635-.016.006.135.182.234.081.391" transform="translate(-247.668 -92.594)" fill="#161615"/>
        <path id="Trazado_104" data-name="Trazado 104" d="M345.053,151.023a.5.5,0,0,1,.069.733,2.854,2.854,0,0,1-.788.812,1.5,1.5,0,0,1,.328-1.553.319.319,0,0,1,.391.007" transform="translate(-253.076 -110.976)" fill="#161615"/>
        <path id="Trazado_105" data-name="Trazado 105" d="M105.306,0a1.952,1.952,0,0,1-.449,1.326.362.362,0,0,1-.507.117.375.375,0,0,1-.119-.558A1.891,1.891,0,0,1,105.306,0" transform="translate(-76.572)" fill="#161615"/>
        <path id="Trazado_106" data-name="Trazado 106" d="M261.552,80.7l-.153.25-.25.154c.129-.856.254-1.712.388-2.567.024-.151.063-.335.266-.12q-.013.362-.027.724a2.828,2.828,0,0,0-.133,1.012c-.093.172,0,.376-.091.547" transform="translate(-191.991 -57.58)" fill="#fff"/>
        <path id="Trazado_107" data-name="Trazado 107" d="M180.439,113.064a.455.455,0,0,1,.443.454.5.5,0,0,1-.376.582.48.48,0,0,1-.489-.482.516.516,0,0,1,.422-.554" transform="translate(-132.343 -83.122)" fill="#161615"/>
        <path id="Trazado_108" data-name="Trazado 108" d="M87.3,26.329a1.1,1.1,0,0,1-.164.609.279.279,0,0,1-.331.119.27.27,0,0,1-.177-.3,1.386,1.386,0,0,1,.3-.685c.059-.083.123-.186.248-.135.086.035.1.13.109.214.008.063.008.126.012.181" transform="translate(-63.687 -19.056)" fill="#161615"/>
        <path id="Trazado_109" data-name="Trazado 109" d="M95.329,43.589a1.053,1.053,0,0,1-.138.942.3.3,0,0,1-.433.133c-.163-.089-.144-.252-.082-.39a1.312,1.312,0,0,1,.654-.685" transform="translate(-69.57 -32.046)" fill="#161615"/>
        <path id="Trazado_110" data-name="Trazado 110" d="M332.837,138.283l-.409.138a1.083,1.083,0,0,1-.433-.791c.433.08.763.2.843.652" transform="translate(-244.074 -101.183)" fill="#161615"/>
        <path id="Trazado_111" data-name="Trazado 111" d="M81.793,26.607c-.036-.392-.395-.792.016-1.192.381.428,0,.814-.016,1.192" transform="translate(-60 -18.684)" fill="#161615"/>
        <path id="Trazado_112" data-name="Trazado 112" d="M343.138,126.311l-.081-.391a.623.623,0,0,0,.658.032,2.794,2.794,0,0,0,.86-.39l.122.128a4.9,4.9,0,0,1-1.559.62" transform="translate(-252.207 -92.311)" fill="#161615"/>
        <path id="Trazado_113" data-name="Trazado 113" d="M346.226,147.987l-.391-.007c.359-.3.286-.791.5-1.157l.129.115-.235,1.049" transform="translate(-254.249 -107.941)" fill="#161615"/>
        <path id="Trazado_114" data-name="Trazado 114" d="M91.359,49.184l-.141-.132a.871.871,0,0,1,.613-.353l-.471.485" transform="translate(-67.061 -35.802)" fill="#161615"/>
        <path id="Trazado_115" data-name="Trazado 115" d="M180.481,67.709l-.03.353a.727.727,0,0,1-.095-.411c.006-.057.036-.082.071-.05a.33.33,0,0,1,.054.108" transform="translate(-132.591 -49.689)" fill="#fff"/>
        <path id="Trazado_116" data-name="Trazado 116" d="M410.256,86.062a1.235,1.235,0,0,1,.108-.639,1.2,1.2,0,0,1-.108.639" transform="translate(-301.608 -62.801)" fill="#161615"/>
        <path id="Trazado_117" data-name="Trazado 117" d="M173.529,86.057a1.209,1.209,0,0,1,.111-.647,1.189,1.189,0,0,1-.111.647" transform="translate(-127.571 -62.791)" fill="#161615"/>
        <path id="Trazado_118" data-name="Trazado 118" d="M422.857,85.577a1.409,1.409,0,0,1,.092-.663,1.142,1.142,0,0,1-.092.663" transform="translate(-310.87 -62.427)" fill="#161615"/>
        <path id="Trazado_119" data-name="Trazado 119" d="M254.393,80.266a1.211,1.211,0,0,1,.107-.665,1.278,1.278,0,0,1-.107.665" transform="translate(-187.019 -58.521)" fill="#161615"/>
        <path id="Trazado_120" data-name="Trazado 120" d="M149.942,80.537a.994.994,0,0,1-.117.513.832.832,0,0,1,.117-.513" transform="translate(-110.145 -59.209)" fill="#161615"/>
        <path id="Trazado_121" data-name="Trazado 121" d="M346.481,90.674a1.03,1.03,0,0,1-.1-.528,1,1,0,0,1,.1.528" transform="translate(-254.65 -66.273)" fill="#161615"/>
        <path id="Trazado_122" data-name="Trazado 122" d="M109.053,115c.427.01.854.03,1.281.03l42.946.006c.256,0,.513,0,.769.01.169.008.369.012.38.247.013.282-.216.276-.4.287-.234.014-.47.01-.7.01l-43.779.005q-4.551,0-9.1,0c-.956,0-.959,0-.959-.953q0-5.928,0-11.855c0-.107,0-.214,0-.32.019-.572.02-.572.628-.616a1.065,1.065,0,0,1,.065.624c.005,2.112-.073,4.228.027,6.336.078,1.648.038,3.253.034,4.909a1.286,1.286,0,0,0,1.28,1.164c.767.053,1.424.053,2.2.056,1.83.049,3.567.053,5.342.06" transform="translate(-73.134 -74.877)" fill="#161615"/>
        <path id="Trazado_123" data-name="Trazado 123" d="M7.138,58.911,6.759,61.5a.681.681,0,0,1-.789.685c-.149,0-.3.01-.447.008-.883-.012-.985-.116-.986-1a12.044,12.044,0,0,0,.178-2.652A1.23,1.23,0,0,1,5.1,57.391a.565.565,0,0,0,.022-.06c.249-1.034.191-1.11-.839-1.113-.554,0-1.109.01-1.662-.01-.413-.015-.467-.1-.462-.512.015-1.358.078-1.421,1.444-1.42l6.267,0c.192,0,.383.006.575.011.3.008.408.175.37.463-.043.317-.064.637-.118.951-.075.437-.137.5-.585.507-.575.015-1.151.005-1.726.007-.171,0-.341.007-.511.006a.409.409,0,0,0-.466.411c-.031.3-.074.591-.112.887-.075.528-.1.892-.162,1.39" transform="translate(-1.589 -39.902)" fill="#161615"/>
        <path id="Trazado_124" data-name="Trazado 124" d="M35.478,61.607,35.345,62c-.16.356-1.021.2-1.535.24-.338.025-.429-.277-.425-.58a28.852,28.852,0,0,1,.586-3.732q.184-1.361.368-2.721c.023-.169.046-.338.072-.506a.436.436,0,0,1,.485-.4c.32,0,.641-.017.96,0,.457.022.519.091.463.548-.12.974-.26,1.945-.385,2.919a1.353,1.353,0,0,0,.008.8c.268.044.408-.15.582-.256a3.083,3.083,0,0,1,1.319-.456,1.741,1.741,0,0,1,2,1.682,6.966,6.966,0,0,1-.132,2.228.532.532,0,0,1-.66.57c-.495-.046-1.038.134-1.438-.327-.236-.295-.088-.641-.129-.962,0-.083.01-.167.01-.25,0-.283.254-.646-.242-.772a1.179,1.179,0,0,0-1.159.566c-.045.157,0,.338-.135.473-.164.181-.12.545-.484.548" transform="translate(-24.544 -39.912)" fill="#161615"/>
        <path id="Trazado_125" data-name="Trazado 125" d="M61,70.932a3.54,3.54,0,0,1,4.2-3.186,2.435,2.435,0,0,1,1.836,1.436,4.445,4.445,0,0,1,.371,2.308c-.036.43-.114.5-.57.5-.66,0-1.32-.034-1.98.03-.477.463-1.105.2-1.649.341a11.6,11.6,0,0,1-1.532-.06c-.7-.03-.738-.085-.728-.8A1.194,1.194,0,0,1,61,70.932" transform="translate(-44.801 -49.756)" fill="#161615"/>
        <path id="Trazado_126" data-name="Trazado 126" d="M159.288,118.067a1.017,1.017,0,0,0,1.52.09.939.939,0,0,1,.167-.089c.5-.262.931.016.985.64a13.493,13.493,0,0,1-.363,3.205c-.3.05-.61.165-.89-.072a17.727,17.727,0,0,0,.347-2.479.835.835,0,0,0-.083-.3.5.5,0,0,1-.385-.1.941.941,0,0,0-.65.913c-.07.672-.167,1.341-.253,2.011a1.062,1.062,0,0,1-.9-.028c.1-.76.2-1.519.289-2.279.027-.228.08-.5-.2-.607s-.485.075-.667.264a.78.78,0,0,0-.207.457,19.477,19.477,0,0,0-.239,2.155,1,1,0,0,1-.9.043l.006.005a.5.5,0,0,1-.014-.508c.006-.078.011-.156.017-.234.127-.2-.011-.452.1-.659l.025-.365c.126-.206-.01-.452.1-.66q.013-.182.026-.363c.125-.207-.011-.455.1-.663l.015-.2a.839.839,0,0,1,.9-.038c.017.136.048.265.228.175s.362-.2.543-.3c.118-.14.244-.116.374-.02" transform="translate(-115.268 -86.729)" fill="#161615"/>
        <path id="Trazado_127" data-name="Trazado 127" d="M66.61,88.18c.114.011.221.048.2.185-.1.511-.2,1.021-.311,1.53-.047.223-.247.327-.39.474a3.486,3.486,0,0,1-5.256-1.218c-.09-.21-.214-.421-.05-.651a1.113,1.113,0,0,1,.946-.375,2.619,2.619,0,0,0,1.053-.08c.119-.051.25-.11.363-.019a2.608,2.608,0,0,0,2.731.15c.244-.086.48-.189.718.005" transform="translate(-44.638 -64.679)" fill="#161615"/>
        <path id="Trazado_128" data-name="Trazado 128" d="M119.791,113.978l.032-.486c.122-.21-.015-.461.106-.672l.018-.34a.3.3,0,0,1,.324-.243,10.224,10.224,0,0,1,1.583.046,1.857,1.857,0,0,1,1.169,1.045,2.422,2.422,0,0,1,0,1.144,1.889,1.889,0,0,1-1.3,1.174c-.351.2-.821-.171-1.127.237q-.014.236-.029.472c-.1.171,0,.377-.1.548l-.146.763a1.158,1.158,0,0,1-1.026-.039l.006-.05c.131-.2-.008-.446.1-.651l.027-.368c.127-.2-.01-.451.1-.658q.013-.183.026-.366c.128-.206-.013-.454.105-.661l.024-.361c.109-.164.005-.366.1-.533" transform="translate(-87.706 -82.507)" fill="#161615"/>
        <path id="Trazado_129" data-name="Trazado 129" d="M3.514,66.04c-.014.939-.224,1.855-.317,2.784-.03.3-.053.592-.079.888-.2.653.275,1.294.033,1.947a5.085,5.085,0,0,0-.086,1.018c.071.4-.338.75-.09,1.172s.685.269,1.03.392a.239.239,0,0,1,.166.244c-.007.128,0,.257-.022.383-.072.509-.18.612-.7.636-.32.015-.641.016-.961,0-.484-.025-.569-.109-.5-.595.132-.952.292-1.9.443-2.848q.271-1.708.546-3.415c.014-.084.023-.169.031-.254.062-.634.019-.684-.649-.694-.534-.007-1.068,0-1.6,0a3.307,3.307,0,0,1-.509-.039A.267.267,0,0,1,0,67.4a2.792,2.792,0,0,1,.16-1.068c.12-.289.407-.276.663-.278.9-.007,1.794-.007,2.691-.009" transform="translate(0 -48.551)" fill="#fff"/>
        <path id="Trazado_130" data-name="Trazado 130" d="M103.281,66.181l.8,4.741a2.23,2.23,0,0,1,.554,1.473,3.848,3.848,0,0,0,.388,1.6c.171.23.562.273.559.653-.082.173-.159.348-.247.517-.208.4-.572.391-.945.353-.353-.036-.425-.3-.482-.584-.32-1.611-.648-3.221-.972-4.832-.222-1.109-.447-2.217-.659-3.328-.125-.654-.009-.777.636-.7a2.347,2.347,0,0,1,.367.105" transform="translate(-75.16 -48.563)" fill="#fff"/>
        <path id="Trazado_131" data-name="Trazado 131" d="M201.335,165.03a3.848,3.848,0,0,1-.694,2.294,2,2,0,0,1-1.991.9,1.306,1.306,0,0,1-1.174-.945,3.777,3.777,0,0,1,1.064-3.629,1.98,1.98,0,0,1,1.687-.407,1.3,1.3,0,0,1,1.018.959,2.568,2.568,0,0,1,.089.824" transform="translate(-145.088 -119.983)" fill="#161615"/>
        <path id="Trazado_132" data-name="Trazado 132" d="M121.376,76.323l.435,2.143c.016.013.033.025.048.04.2.195.6-.021.7.3.075.25-.208.443-.248.693a1.667,1.667,0,0,1-1.025.008c-.422-1.6-.841-3.2-1.269-4.8-.064-.237-.032-.614-.287-.657-.325-.054-.36.352-.492.573-.36.6-.691,1.217-1.041,1.824-.09.157-.138.377-.4.349a.306.306,0,0,1-.159-.243,2.216,2.216,0,0,1,.941-1.537l1.7-3.559c.368,1.117.446,2.176.756,3.175a13.011,13.011,0,0,0,.335,1.684" transform="translate(-86.49 -52.539)" fill="#fff"/>
        <path id="Trazado_133" data-name="Trazado 133" d="M59.3,85.277a2.859,2.859,0,0,0,2.751,2.157,4.783,4.783,0,0,0,1.761-.218,1.628,1.628,0,0,1,.614-.144c-.054.745-.524,1.05-1.2,1.171a7.077,7.077,0,0,1-2.212.12,2.915,2.915,0,0,1-2.56-3.358,2.114,2.114,0,0,1,.568-1.512,1.756,1.756,0,0,1,.277,1.784" transform="translate(-42.958 -61.382)" fill="#fff"/>
        <path id="Trazado_134" data-name="Trazado 134" d="M146.148,121.061l.063-.01c.2-.026.4-.325.6-.056.115.156-.124.733-.315.836a1.681,1.681,0,0,1-1.647.048,1.412,1.412,0,0,1-.761-1.306,3.724,3.724,0,0,1,.049-1.075,1.992,1.992,0,0,1,1.451-1.388.4.4,0,0,1,.512.02c.908.365,1.01,1.149,1.026,1.977-.414.227-.861.056-1.29.108-.249.03-.51-.063-.751.064a.642.642,0,0,0,.363.774.955.955,0,0,0,.7.008" transform="translate(-105.922 -86.771)" fill="#161615"/>
        <path id="Trazado_135" data-name="Trazado 135" d="M182.057,167.563c.524,0,1.012-.006,1.5,0,.183,0,.418-.031.419.261a.327.327,0,0,1-.364.356c-1.016,0-2.033,0-3.054,0-.012-.3.178-.4.3-.525.6-.612,1.19-1.225,1.731-1.887a4.249,4.249,0,0,0,.675-1.007.606.606,0,0,0-.517-.93,2.123,2.123,0,0,0-1.069.134c-.095.034-.211.1-.3,0s-.035-.244.01-.361a.456.456,0,0,1,.282-.245,2.3,2.3,0,0,1,1.748-.044,1.064,1.064,0,0,1,.632,1.369,2.3,2.3,0,0,1-.478.9c-.395.476-.809.936-1.209,1.408-.119.14-.312.234-.314.572" transform="translate(-132.742 -119.954)" fill="#161615"/>
        <path id="Trazado_136" data-name="Trazado 136" d="M41.288,77.61a1.857,1.857,0,0,1,.13-.755,2.28,2.28,0,0,1,1.464-.793c.6-.044.808.195.752.823q-.021.489-.042.979a3.354,3.354,0,0,1,.045,1.874,3.207,3.207,0,0,1-.089.939c-.086.467.041.794.566.87.183.026.4.03.412.3,0,.106,0,.213-.016.319-.071.586-.175.68-.765.708-1.283.059-1.319.027-1.134-1.226.124-.842.271-1.681.407-2.522.017-.105.04-.209.051-.315.093-.9-.337-1.234-1.189-.931-.454.161-.454.161-.591-.27" transform="translate(-30.354 -55.915)" fill="#fff"/>
        <path id="Trazado_137" data-name="Trazado 137" d="M215.359,167.511a5.237,5.237,0,0,0,1.119.05c.171.007.341,0,.512.01.132.007.265.035.28.2a.323.323,0,0,1-.24.394.772.772,0,0,1-.189.024q-1.407,0-2.814-.006c-.063,0-.128-.014-.171-.141.04-.2.254-.328.409-.488A26.768,26.768,0,0,0,216.1,165.5a2.954,2.954,0,0,0,.469-.759.608.608,0,0,0-.545-.914,2.06,2.06,0,0,0-1.006.123c-.115.042-.269.122-.35-.01a.366.366,0,0,1,.109-.459.5.5,0,0,1,.159-.1,2.279,2.279,0,0,1,1.8-.055,1.059,1.059,0,0,1,.608,1.374,3.07,3.07,0,0,1-.519.949c-.346.461-.747.875-1.136,1.3-.135.148-.355.253-.329.563" transform="translate(-157.22 -119.954)" fill="#161615"/>
        <path id="Trazado_138" data-name="Trazado 138" d="M71.6,85.552a4.384,4.384,0,0,1-2.247.644,1.668,1.668,0,0,1-1.458-.644c-.439-.04-.421-.329-.35-.644a1.431,1.431,0,0,1,1.047-.3,2.479,2.479,0,0,0,1.1-.184c.423-.007.846-.028,1.268-.017.525.014.626.121.652.639.008.168-.006.338-.01.507" transform="translate(-49.632 -62.051)" fill="#fff"/>
        <path id="Trazado_139" data-name="Trazado 139" d="M133.863,122.306q0-.244,0-.489c.12-.211-.014-.462.1-.673l.024-.35c.12-.212-.015-.465.106-.677q.011-.173.022-.346c.1-.17.006-.374.1-.546l.15-.64a.87.87,0,0,1,.769-.005c.047.105.044.285.236.2.113-.051.2-.152.314-.211a.479.479,0,0,1,.533.072c.181.129.125.3.064.456a2.445,2.445,0,0,1-.234.515c-.147.214-.346.012-.517.027a.585.585,0,0,0-.5.5,2.883,2.883,0,0,0-.033.566c-.117.214.014.467-.106.681q-.011.174-.022.349c-.116.169.024.4-.127.558l.011-.012a1.43,1.43,0,0,1-.889.026" transform="translate(-98.412 -87.113)" fill="#161615"/>
        <path id="Trazado_140" data-name="Trazado 140" d="M31.477,67.175c-.115.95-.232,1.9-.343,2.85-.032.274-.044.551-.066.826-.042.566.294,1.115.072,1.692-.036.094-.031.206-.061.3-.031.166-.023.337-.047.505-.108.726-.19,1.433.846,1.533.081.008.1.124.1.213-.126.993-.16,1.024-1.145,1.019-.085,0-.171,0-.256,0-.562-.028-.642-.105-.561-.655.241-1.625.5-3.249.748-4.873.189-1.216.385-2.431.589-3.723,0,.006.162.1.079.123s0-.022.015.062c.009.042.018.083.027.125" transform="translate(-22.049 -49.158)" fill="#fff"/>
        <path id="Trazado_141" data-name="Trazado 141" d="M236.977,164.087c-.332,1.144-.5,2.323-.758,3.484-.051.228-.1.457-.149.685-.068.292-.279.342-.537.319a.242.242,0,0,1-.254-.292,3.448,3.448,0,0,1,.06-.378c.249-1.207.494-2.414.751-3.619.137-.641.3-.71.924-.429a.14.14,0,0,1-.036.23" transform="translate(-172.969 -120.348)" fill="#161615"/>
        <path id="Trazado_142" data-name="Trazado 142" d="M33.556,91.311c-.34-.013-.68-.029-1.02-.04-.293-.01-.43-.157-.4-.449a9.878,9.878,0,0,1,.244-1.7c.624-.159,1.257-.432,1.821.148a10.316,10.316,0,0,1-.168,1.552.507.507,0,0,1-.481.489" transform="translate(-23.624 -65.37)" fill="#161615"/>
        <path id="Trazado_143" data-name="Trazado 143" d="M48.932,84.528a9.378,9.378,0,0,1,.248-1.923,3.713,3.713,0,0,0,1.595.149c.162.006.248-.135.339-.248a18.047,18.047,0,0,1-.264,2.047,1.822,1.822,0,0,1-1.819.363.274.274,0,0,1-.1-.387" transform="translate(-35.943 -60.656)" fill="#161615"/>
        <path id="Trazado_144" data-name="Trazado 144" d="M48.369,90.143c.355.314.777.1,1.167.146a1.5,1.5,0,0,0,.751-.121c-.066.517-.136,1.033-.2,1.551a.489.489,0,0,1-.539.485c-.335-.009-.671-.022-1.006-.027s-.455-.17-.412-.482a9.26,9.26,0,0,1,.236-1.55" transform="translate(-35.38 -66.271)" fill="#161615"/>
        <path id="Trazado_145" data-name="Trazado 145" d="M34.894,84.123a5.417,5.417,0,0,1-1.821-.148,10.741,10.741,0,0,1,.261-2.059c.067.3.28.318.534.3a2.915,2.915,0,0,1,1.248.1,6.929,6.929,0,0,1-.221,1.811" transform="translate(-24.314 -60.223)" fill="#161615"/>
        <path id="Trazado_146" data-name="Trazado 146" d="M62.725,81.657a1.269,1.269,0,0,0,.132.628.975.975,0,0,1-.809.266,2.9,2.9,0,0,0-1.119.128,4.377,4.377,0,0,1-.277-1.785,2.8,2.8,0,0,1,.136-.935c.04,1.032.04,1.034,1.079,1.056.378.008.756.008,1.135.011.178.329-.135.442-.276.63" transform="translate(-44.59 -58.785)" fill="#161615"/>
        <path id="Trazado_147" data-name="Trazado 147" d="M10.718,81.851a9.241,9.241,0,0,1,.253-1.945c.08.765.12.81.873.809.427,0,.9.108,1.179-.375a9.858,9.858,0,0,1-.243,1.788c-.56.505-1.212.328-1.839.22-.231-.04-.311-.258-.222-.5" transform="translate(-7.854 -58.745)" fill="#161615"/>
        <path id="Trazado_148" data-name="Trazado 148" d="M112.312,89.72c0,.081,0,.162-.005.242a7.258,7.258,0,0,0-.748,1.665c-.4.021-.878.376-1.14-.249l-.251-1.781a2.108,2.108,0,0,1,2.144.123" transform="translate(-80.993 -65.699)" fill="#161615"/>
        <path id="Trazado_149" data-name="Trazado 149" d="M10.3,87.25a.719.719,0,0,0,.67.275l1.392,0a6.422,6.422,0,0,1-.146,1.284,1.728,1.728,0,0,1-1.864.315.76.76,0,0,1-.183-.869A2.6,2.6,0,0,1,10.3,87.25" transform="translate(-7.433 -64.144)" fill="#161615"/>
        <path id="Trazado_150" data-name="Trazado 150" d="M9.7,91.055c.144.609.194.661.792.674a3.016,3.016,0,0,0,1.256-.121c-.033.274-.07.547-.1.82a.456.456,0,0,1-.514.445c-.4-.008-.8-.005-1.2-.026-.426-.023-.5-.091-.448-.49a5.654,5.654,0,0,1,.209-1.3" transform="translate(-6.965 -66.941)" fill="#161615"/>
        <path id="Trazado_151" data-name="Trazado 151" d="M68.442,84.619a.522.522,0,0,1,.276-.63l1.645.016,0,.113c-.017.34-.212.481-.536.483-.463,0-.926.011-1.39.017" transform="translate(-50.306 -61.747)" fill="#fff"/>
        <path id="Trazado_152" data-name="Trazado 152" d="M173.409,117.894a1.1,1.1,0,0,0-.985-.64c-.116-.252-.088-.416.242-.389a.26.26,0,0,1,.12.034,13.318,13.318,0,0,1,1.432.876.252.252,0,0,1-.011.11l-.8.008" transform="translate(-126.716 -85.914)" fill="#fff"/>
        <path id="Trazado_153" data-name="Trazado 153" d="M123.65,112.107l-1.267-.009a.764.764,0,0,0-.64.2.5.5,0,0,1,.457-.293,3.806,3.806,0,0,1,1.45.1" transform="translate(-89.502 -82.331)" fill="#9c9c9c"/>
        <path id="Trazado_154" data-name="Trazado 154" d="M147.9,126.053c.2-.166.438-.107.663-.118a8.842,8.842,0,0,0,1.378-.054,1.347,1.347,0,0,1-.846.172c-.4,0-.8,0-1.195,0" transform="translate(-108.732 -92.545)" fill="#9c9c9c"/>
        <path id="Trazado_155" data-name="Trazado 155" d="M87.317,56.47a.266.266,0,0,1,.011-.111c.032.025.067.047.1.075.1.1.229.191.153.361a.114.114,0,0,1-.1.045c-.167-.072-.126-.238-.159-.371" transform="translate(-64.192 -41.434)" fill="#949494"/>
        <path id="Trazado_156" data-name="Trazado 156" d="M111.116,96.97c.311.4.742.249,1.14.249l-.142.158c-.2-.007-.408-.008-.611-.021a.372.372,0,0,1-.387-.386" transform="translate(-81.69 -71.29)" fill="#fff"/>
        <path id="Trazado_157" data-name="Trazado 157" d="M124.21,125.371c.061-.194.222-.222.391-.227.245-.007.491-.007.736-.01-.356.171-.77.069-1.127.237" transform="translate(-91.316 -91.995)" fill="#9c9c9c"/>
        <path id="Trazado_158" data-name="Trazado 158" d="M133.359,117.526q0-.572,0-1.144a1.4,1.4,0,0,1,0,1.144" transform="translate(-98.039 -85.561)" fill="#9c9c9c"/>
        <path id="Trazado_159" data-name="Trazado 159" d="M119.3,132.615a3.111,3.111,0,0,0,1.026.039.911.911,0,0,1-1.026-.039" transform="translate(-87.706 -97.495)" fill="#9c9c9c"/>
        <path id="Trazado_160" data-name="Trazado 160" d="M241.7,164.522l.036-.23c.1.051.268.082.217.23-.045.131-.166.037-.253,0" transform="translate(-177.69 -120.783)" fill="#161615"/>
        <path id="Trazado_161" data-name="Trazado 161" d="M177.879,132.711l.9.018a.813.813,0,0,1-.9-.018" transform="translate(-130.772 -97.566)" fill="#9c9c9c"/>
        <path id="Trazado_162" data-name="Trazado 162" d="M171.583,132.588a3.487,3.487,0,0,0,.89.072.783.783,0,0,1-.89-.072" transform="translate(-126.144 -97.475)" fill="#9c9c9c"/>
        <path id="Trazado_163" data-name="Trazado 163" d="M159.406,118.5a4.049,4.049,0,0,0-.9.038.724.724,0,0,1,.9-.038" transform="translate(-116.531 -87.02)" fill="#949494"/>
        <path id="Trazado_164" data-name="Trazado 164" d="M164.325,132.689a4.016,4.016,0,0,0,.9.028.811.811,0,0,1-.9-.028" transform="translate(-120.808 -97.55)" fill="#9c9c9c"/>
        <path id="Trazado_165" data-name="Trazado 165" d="M157.057,132.689a3.561,3.561,0,0,0,.9-.043.8.8,0,0,1-.9.043" transform="translate(-115.464 -97.518)" fill="#9c9c9c"/>
        <path id="Trazado_166" data-name="Trazado 166" d="M133.864,132.817l.889-.026a.948.948,0,0,1-.889.026" transform="translate(-98.414 -97.625)" fill="#9c9c9c"/>
        <path id="Trazado_167" data-name="Trazado 167" d="M136.529,118.512l-.769,0a.7.7,0,0,1,.769,0" transform="translate(-99.807 -87.045)" fill="#949494"/>
        <path id="Trazado_168" data-name="Trazado 168" d="M171.123,121.7a.343.343,0,0,1,.385.1c-.2.25-.276.013-.385-.1" transform="translate(-125.805 -89.455)" fill="#949494"/>
        <path id="Trazado_169" data-name="Trazado 169" d="M158.158,119.794a1.438,1.438,0,0,1-.1.663,1.391,1.391,0,0,1,.1-.663" transform="translate(-116.197 -88.07)" fill="#9c9c9c"/>
        <path id="Trazado_170" data-name="Trazado 170" d="M133.959,128.5a1.366,1.366,0,0,1-.1.673,1.376,1.376,0,0,1,.1-.673" transform="translate(-98.405 -94.471)" fill="#9c9c9c"/>
        <path id="Trazado_171" data-name="Trazado 171" d="M157.188,127.54a1.411,1.411,0,0,1-.1.658,1.4,1.4,0,0,1,.1-.658" transform="translate(-115.484 -93.764)" fill="#9c9c9c"/>
        <path id="Trazado_172" data-name="Trazado 172" d="M137.725,127.52a1.328,1.328,0,0,1,.105-.681,1.382,1.382,0,0,1-.105.681" transform="translate(-101.248 -93.249)" fill="#9c9c9c"/>
        <path id="Trazado_173" data-name="Trazado 173" d="M119.911,126.091a1.394,1.394,0,0,1-.1.658,1.4,1.4,0,0,1,.1-.658" transform="translate(-88.079 -92.699)" fill="#9c9c9c"/>
        <path id="Trazado_174" data-name="Trazado 174" d="M134.446,124.624a1.425,1.425,0,0,1-.106.677,1.371,1.371,0,0,1,.106-.677" transform="translate(-98.761 -91.62)" fill="#9c9c9c"/>
        <path id="Trazado_175" data-name="Trazado 175" d="M149.966,129.459a.647.647,0,0,1-.7-.008l.7.008" transform="translate(-109.74 -95.169)" fill="#9c9c9c"/>
        <path id="Trazado_176" data-name="Trazado 176" d="M119.423,129.966a1.37,1.37,0,0,1-.1.651,1.411,1.411,0,0,1,.1-.651" transform="translate(-87.721 -95.548)" fill="#9c9c9c"/>
        <path id="Trazado_177" data-name="Trazado 177" d="M84.072,61.425a.925.925,0,0,1-.121-.142c-.028-.049-.054-.119.035-.139.013,0,.05.059.06.1a1.5,1.5,0,0,1,.025.186h0" transform="translate(-61.7 -44.951)" fill="#949494"/>
        <path id="Trazado_178" data-name="Trazado 178" d="M193.879,131.034,194,130.9c.026.048.087.118.072.141-.056.089-.131.025-.2,0" transform="translate(-142.535 -96.232)" fill="#949494"/>
        <path id="Trazado_179" data-name="Trazado 179" d="M157.673,123.67a1.456,1.456,0,0,1-.1.66,1.4,1.4,0,0,1,.1-.66" transform="translate(-115.84 -90.919)" fill="#9c9c9c"/>
        <path id="Trazado_180" data-name="Trazado 180" d="M120.4,122.212a1.393,1.393,0,0,1-.105.66,1.377,1.377,0,0,1,.105-.66" transform="translate(-88.435 -89.847)" fill="#9c9c9c"/>
        <path id="Trazado_181" data-name="Trazado 181" d="M121.373,114.463a1.368,1.368,0,0,1-.106.672,1.367,1.367,0,0,1,.106-.672" transform="translate(-89.151 -84.15)" fill="#9c9c9c"/>
        <path id="Trazado_182" data-name="Trazado 182" d="M150.312,118.142l-.512-.02a.416.416,0,0,1,.512.02" transform="translate(-110.129 -86.783)" fill="#949494"/>
        <path id="Trazado_183" data-name="Trazado 183" d="M165.184,118.064l-.374.02c.121-.076.239-.213.374-.02" transform="translate(-121.164 -86.725)" fill="#949494"/>
        <path id="Trazado_184" data-name="Trazado 184" d="M120.882,118.837a1.06,1.06,0,0,1-.1.533,1.2,1.2,0,0,1,.1-.533" transform="translate(-88.797 -87.366)" fill="#9c9c9c"/>
        <path id="Trazado_185" data-name="Trazado 185" d="M123.718,128.359a1.046,1.046,0,0,1,.1-.548,1.2,1.2,0,0,1-.1.548" transform="translate(-90.952 -93.963)" fill="#9c9c9c"/>
        <path id="Trazado_186" data-name="Trazado 186" d="M134.926,121.256a1.1,1.1,0,0,1-.1.545,1.211,1.211,0,0,1,.1-.545" transform="translate(-99.123 -89.144)" fill="#9c9c9c"/>
        <path id="Trazado_187" data-name="Trazado 187" d="M156.836,130.911q.007.254.015.508a.467.467,0,0,1-.015-.508" transform="translate(-115.252 -96.243)" fill="#9c9c9c"/>
        <path id="Trazado_188" data-name="Trazado 188" d="M137.179,131.287l.127-.558a1.053,1.053,0,0,1-.127.558" transform="translate(-100.851 -96.109)" fill="#9c9c9c"/>
        <path id="Trazado_189" data-name="Trazado 189" d="M111.613,86.07a8.021,8.021,0,0,1-2.144-.123,9.758,9.758,0,0,1-.252-1.539.914.914,0,0,0,.438.062,9.616,9.616,0,0,1,2.734.062,5.033,5.033,0,0,1-.776,1.537" transform="translate(-80.294 -62.049)" fill="#161615"/>
        <path id="Trazado_190" data-name="Trazado 190" d="M329.358,70.366l1.489-3.845.161.015c.166,1.138.315,2.278.415,3.426.04.216.19.519-.132.576-.413.074-.885.115-1.04-.532a1.05,1.05,0,0,1-.686.535c-.117.016-.274.043-.206-.175" transform="translate(-242.124 -48.905)" fill="#fff"/>
        <path id="Trazado_191" data-name="Trazado 191" d="M329.236,77.732c.293.1.363-.131.453-.316a3.735,3.735,0,0,1,.449-.876c.233.045.207.218.237.351s.043.292.077.435c.061.252.133.51.468.5.316-.011.329-.273.38-.5.08.229.188.458-.01.682A15.376,15.376,0,0,0,329.233,78a.186.186,0,0,1,0-.272" transform="translate(-242.002 -56.271)" fill="#fff"/>
        <path id="Trazado_192" data-name="Trazado 192" d="M445.909,77.293a2.671,2.671,0,0,0-.139,1.009c-.168.377-.063.81-.242,1.185-.439.207-.492-.1-.559-.41-.083-.382.227-.842-.158-1.148-.346-.275-.735.015-1.106.026-.505.014-.454-.315-.356-.652-.024-.1-.146-.189-.081-.294.264-.426.38-.959.864-1.23a3.463,3.463,0,0,1,1.155-.259.9.9,0,0,0,.513-.236c.244-.048.292.077.28.289-.034.576-.189,1.139-.17,1.719" transform="translate(-325.865 -55.339)" fill="#fff"/>
        <path id="Trazado_193" data-name="Trazado 193" d="M443.28,82.937c.018.287.115.454.443.319a2.593,2.593,0,0,1,1.066-.187c.529.013.6.088.55.6-.035.34-.094.677-.135,1.016-.024.2,0,.392.256.434a1.848,1.848,0,0,1-1.7-.392,2.776,2.776,0,0,1-.349-.364,6.282,6.282,0,0,1-.256-1.291l.124-.137" transform="translate(-325.797 -60.973)" fill="#fff"/>
        <path id="Trazado_194" data-name="Trazado 194" d="M448.25,75.275a.465.465,0,0,1-.534.483c-.378,0-.756.008-1.134.012a2.11,2.11,0,0,1,1.668-.5" transform="translate(-328.316 -55.33)" fill="#fff"/>
        <path id="Trazado_195" data-name="Trazado 195" d="M284.584,81.9a2.4,2.4,0,0,1-1.137.922c-.211,0-.423,0-.634-.006a.543.543,0,0,1-.538-.263,1.352,1.352,0,0,1,.015-1.483,1.378,1.378,0,0,0,.232-.562,1.617,1.617,0,0,1,.129-.548,3.669,3.669,0,0,1,1.244.434,1.274,1.274,0,0,1,.689,1.507" transform="translate(-207.364 -58.782)" fill="#fff"/>
        <path id="Trazado_196" data-name="Trazado 196" d="M286.223,78.862c-.048-.116-.1-.231-.144-.349a1.4,1.4,0,0,0-1.228-1.035.554.554,0,0,1-.561-.557l.044-.481a1.35,1.35,0,0,1,2.268.005l.034-.014a5.021,5.021,0,0,1-.285,2.311l-.128.119" transform="translate(-209.003 -55.747)" fill="#fff"/>
        <path id="Trazado_197" data-name="Trazado 197" d="M277.85,82.028a13.214,13.214,0,0,1-.247,2.045,3.264,3.264,0,0,1-1.9,0,7.993,7.993,0,0,1,.229-1.669,4.046,4.046,0,0,1,1.32-.118.551.551,0,0,0,.6-.259" transform="translate(-202.692 -60.305)" fill="#161615"/>
        <path id="Trazado_198" data-name="Trazado 198" d="M286.726,74.824a2.4,2.4,0,0,0-2.268-.005c.011-.106.016-.212.033-.316.132-.792.663-1.074,1.42-.747a1.352,1.352,0,0,1,.815,1.069" transform="translate(-209.127 -54.125)" fill="#fff"/>
        <path id="Trazado_199" data-name="Trazado 199" d="M276.676,80.145a1.2,1.2,0,0,1,.1-.666,1.219,1.219,0,0,1-.1.666" transform="translate(-203.399 -58.431)" fill="#161615"/>
        <path id="Trazado_200" data-name="Trazado 200" d="M213.635,74.61a1.278,1.278,0,0,1,.516-.7.949.949,0,0,1,1.022-.1,1.039,1.039,0,0,1,.535,1.069,16.584,16.584,0,0,1-1.814-.017.322.322,0,0,1-.258-.248" transform="translate(-157.059 -54.183)" fill="#fff"/>
        <path id="Trazado_201" data-name="Trazado 201" d="M213.434,77.13a4.534,4.534,0,0,1,2.072.265c-.028.191-.171.222-.325.223-.5,0-1.009.016-1.512,0-.352-.013-.358-.048-.235-.486" transform="translate(-156.858 -56.703)" fill="#fff"/>
        <path id="Trazado_202" data-name="Trazado 202" d="M159.319,78.243a2.786,2.786,0,0,0-.125,1c-.148.263-.023.642-.35.829-.444.1-.43-.218-.451-.5-.065-.845-.233-.957-1.038-.666-.351.127-.713.326-.8-.279l-.052-.255a2.466,2.466,0,0,0,.33-.679,1.691,1.691,0,0,1,.552-.759,3.2,3.2,0,0,1,1.206-.379c.683-.061.834.105.772.817q-.021.435-.042.871" transform="translate(-115.055 -56.273)" fill="#fff"/>
        <path id="Trazado_203" data-name="Trazado 203" d="M161.808,76.469a.525.525,0,0,0-.642-.534c-.445.031-.891.064-1.337.1a2.113,2.113,0,0,1,1.646-.712c.278-.025.45.085.443.4a1.752,1.752,0,0,1-.11.752" transform="translate(-117.502 -55.37)" fill="#fff"/>
        <path id="Trazado_204" data-name="Trazado 204" d="M396.294,78.2a2.584,2.584,0,0,0-.123,1.008c-.152.26-.022.641-.356.822-.346.043-.428-.162-.454-.455-.087-.973-.164-1.016-1.122-.683-.213.074-.436.224-.633-.024a.25.25,0,0,1,0-.3q0-.186,0-.371a2.548,2.548,0,0,1,.751-1.307,2.96,2.96,0,0,1,1.155-.384c.691-.1.881.1.826.824l-.038.866" transform="translate(-289.331 -56.23)" fill="#fff"/>
        <path id="Trazado_205" data-name="Trazado 205" d="M398.546,76.484c-.036-.391-.255-.542-.642-.546-.451,0-.891.083-1.338.106a2.042,2.042,0,0,1,1.614-.711c.389-.031.463.064.473.474a1.439,1.439,0,0,1-.106.677" transform="translate(-291.546 -55.379)" fill="#fff"/>
        <path id="Trazado_206" data-name="Trazado 206" d="M222.8,119.448c-.106,0-.213,0-.319,0-.245-.01-.335-.149-.306-.381.119-.95.235-1.9.357-2.85.033-.255.2-.348.447-.35a1.527,1.527,0,0,1,1.39.958,2.246,2.246,0,0,1,.012,1.684,1.482,1.482,0,0,1-1.581.941" transform="translate(-163.333 -85.182)" fill="#fff"/>
        <path id="Trazado_207" data-name="Trazado 207" d="M423.431,80.563a.872.872,0,0,1-.119.637,1.255,1.255,0,0,1,.119-.637" transform="translate(-311.208 -59.228)" fill="#161615"/>
        <path id="Trazado_208" data-name="Trazado 208" d="M156.638,83.7c.187.21.383.12.578.015a2.094,2.094,0,0,1,1.1-.269c.475.022.6.16.566.639-.026.355-.18.714.043,1.058a1.158,1.158,0,0,1-.432.259,1.194,1.194,0,0,1-1.757-.427.768.768,0,0,0-.022-.122c-.125-.249.03-.535-.1-.783l.021-.369" transform="translate(-115.141 -61.344)" fill="#fff"/>
        <path id="Trazado_209" data-name="Trazado 209" d="M263.055,122.87c.036-.273.088-.651.134-1.031.025-.2.078-.378.3-.439a.533.533,0,0,1,.569.192,1.414,1.414,0,0,1-.392,1.853c-.439.208-.652.047-.612-.576" transform="translate(-193.388 -89.235)" fill="#fff"/>
        <path id="Trazado_210" data-name="Trazado 210" d="M247.23,79.889a1.237,1.237,0,0,1-.1.684,1.237,1.237,0,0,1,.1-.684" transform="translate(-181.679 -58.732)" fill="#161615"/>
        <path id="Trazado_211" data-name="Trazado 211" d="M386.5,86.586a2.887,2.887,0,0,1,1.049-.132c.613-.018.643-.048.762-.66.439.17.644.767.5,1.45.023.356-.242.352-.472.358-.529.014-1.058.01-1.587.013a1.8,1.8,0,0,1-.25-1.027" transform="translate(-284.147 -63.073)" fill="#161615"/>
        <path id="Trazado_212" data-name="Trazado 212" d="M308.487,123.584a1.223,1.223,0,0,1,.8-1.254c.349-.1.49,0,.468.356-.02.319-.063.637-.108.954-.062.439-.336.69-.706.664-.314-.022-.458-.248-.458-.72" transform="translate(-226.792 -89.906)" fill="#fff"/>
        <path id="Trazado_213" data-name="Trazado 213" d="M188.814,122.7a1.472,1.472,0,0,1-.259.978.537.537,0,0,1-1-.193,1.631,1.631,0,0,1,.149-1.232.605.605,0,0,1,.607-.382c.318.047.44.3.489.591a1.905,1.905,0,0,1,.018.237" transform="translate(-137.841 -89.593)" fill="#fff"/>
        <path id="Trazado_214" data-name="Trazado 214" d="M393.847,85.5c-.393-.405-.362-.956-.5-1.45l.1-.378c.19.261.386.081.562-.008a2.28,2.28,0,0,1,1.179-.236c.406.023.472.1.45.517a3.147,3.147,0,0,0-.074.951,1.651,1.651,0,0,0,.1.235,4.137,4.137,0,0,1-.917.476l-.9-.108" transform="translate(-289.18 -61.334)" fill="#fff"/>
        <path id="Trazado_215" data-name="Trazado 215" d="M277.334,121.994c-.155-.032-.365.052-.421-.174-.044-.178.232-.427.457-.436a.382.382,0,0,1,.4.386c-.033.285-.273.188-.439.224" transform="translate(-203.576 -89.239)" fill="#fff"/>
        <path id="Trazado_216" data-name="Trazado 216" d="M241.229,122c-.15-.034-.392.057-.383-.207.009-.244.2-.368.433-.4a.372.372,0,0,1,.411.386c-.05.273-.289.183-.461.216" transform="translate(-177.064 -89.249)" fill="#fff"/>
        <path id="Trazado_217" data-name="Trazado 217" d="M185.16,89.753q-.013-.193-.026-.386l.122-.137a.967.967,0,0,1-.1.524" transform="translate(-136.106 -65.599)" fill="#161615"/>
        <path id="Trazado_218" data-name="Trazado 218" d="M156.587,85.8a1.888,1.888,0,0,1,.1.783,1.438,1.438,0,0,1-.1-.783" transform="translate(-115.111 -63.08)" fill="#161615"/>
        <path id="Trazado_219" data-name="Trazado 219" d="M262.658,85.795a1.021,1.021,0,0,1,.091-.547.941.941,0,0,1-.091.547" transform="translate(-193.097 -62.672)" fill="#161615"/>
        <path id="Trazado_220" data-name="Trazado 220" d="M70.058,74.671a4.629,4.629,0,0,1,.3-.49,1.034,1.034,0,0,1,1.079-.4.925.925,0,0,1,.707.817,2.327,2.327,0,0,1,.029.317,17.328,17.328,0,0,1-1.771-.013.413.413,0,0,1-.342-.234" transform="translate(-51.505 -54.225)" fill="#fff"/>
        <path id="Trazado_221" data-name="Trazado 221" d="M69.818,77.146a4.168,4.168,0,0,1,2.113.247.24.24,0,0,1-.265.214c-.545.007-1.091.013-1.636.006-.38-.005-.332-.225-.212-.467" transform="translate(-51.265 -56.7)" fill="#fff"/>
        <path id="Trazado_222" data-name="Trazado 222" d="M124.859,116.909c.034-.326.048-.559.086-.789.075-.461.275-.57.707-.4a.787.787,0,0,1,.439,1.048.888.888,0,0,1-1.056.479.283.283,0,0,1-.175-.334" transform="translate(-91.79 -85.018)" fill="#fff"/>
        <path id="Trazado_223" data-name="Trazado 223" d="M200.568,167.95a3.766,3.766,0,0,1,.512-1.886,2.246,2.246,0,0,1,.177-.265,1.05,1.05,0,0,1,1.152-.489c.452.189.489.6.5,1.014a3.815,3.815,0,0,1-.5,2.08,2.456,2.456,0,0,1-.137.215,1.083,1.083,0,0,1-1.126.556c-.382-.114-.567-.464-.579-1.1,0-.043,0-.085,0-.128" transform="translate(-147.452 -121.496)" fill="#fff"/>
        <path id="Trazado_224" data-name="Trazado 224" d="M149.068,122c-.154-.031-.363.049-.416-.178-.042-.178.233-.423.457-.43a.379.379,0,0,1,.4.385c-.039.277-.274.19-.442.223" transform="translate(-109.282 -89.244)" fill="#fff"/>
      </g>
    </g>
  </g>
</svg>
