<svg xmlns="http://www.w3.org/2000/svg" viewBox="0 0 1143.27 324.93"><defs><style>.cls-1,.cls-3{fill:#f6393a;}.cls-2{fill:#fff;}.cls-3{opacity:0.51;}.cls-4{fill:#12054e;}</style></defs><g id="Layer_2" data-name="Layer 2"><g id="Layer_1-2" data-name="Layer 1"><polygon class="cls-1" points="221.03 293.35 221.03 31.58 1101.44 31.58 1101.44 224.25 1143.27 224.25 1143.27 0 179.2 0 179.2 324.93 578.66 324.93 578.66 293.35 221.03 293.35"/><path class="cls-2" d="M320.56,167.28h51.37a5.29,5.29,0,0,1,5.35,5.15v65.45a4.44,4.44,0,0,1-4.56,4.36h-4.17a4.36,4.36,0,0,1-4.36-4.16l-1.39-18.64c-9.52,15.66-25.78,25.18-49.38,25.18-41.05,0-70.6-31.13-70.6-71.79s29.55-72,70.6-72c20.63,0,38.48,7.93,51,21a5.28,5.28,0,0,1-1,8.13l-7.54,5a5.4,5.4,0,0,1-6.74-.79c-8.53-8.93-20.63-14.68-35.7-14.68-32.33,0-50.37,26.38-50.37,53.35s18,53.35,50.37,53.35c29.15,0,44.82-18.25,48-40.86H320.56a5.33,5.33,0,0,1-5.35-5.35v-7.54A5.29,5.29,0,0,1,320.56,167.28Z"/><path class="cls-2" d="M408.22,103.42h9.32a5.33,5.33,0,0,1,5.36,5.35V236.89a5.33,5.33,0,0,1-5.36,5.35h-9.32a5.33,5.33,0,0,1-5.35-5.35V108.77A5.33,5.33,0,0,1,408.22,103.42Z"/><path class="cls-2" d="M539.51,203.57c0,19.44-13.29,41.05-49,41.05-19.24,0-39.27-7.73-47.8-25.78a5.16,5.16,0,0,1,3.37-7.14l9.32-3a5.25,5.25,0,0,1,6.35,2.58C465.54,219,475.26,226,490.92,226c15.08,0,28.36-6.54,28.36-20.82,0-18.84-16.85-19.64-38.87-25-28-6.75-34.31-21.42-34.31-39.47,0-23.4,20-39.86,45.81-39.86,17.85,0,32.93,8.72,39.87,24.19a5.34,5.34,0,0,1-3.57,7.34l-9.32,2.18a5.32,5.32,0,0,1-5.95-2.77c-4-7.54-12.1-13.69-27.17-12.3-10.91,1.19-19.64,10.12-19.84,21.22,0,17.65,16.86,20.43,34.51,24.4C527.41,171.44,539.51,181.16,539.51,203.57Z"/><path class="cls-2" d="M651.37,242.24h-11.7a9.67,9.67,0,0,1-6.75-3l-53.74-61.88v59.5a5.29,5.29,0,0,1-5.16,5.35H564.7a5.32,5.32,0,0,1-5.35-5.35V108.77a5.32,5.32,0,0,1,5.35-5.35H574a5.29,5.29,0,0,1,5.16,5.35v60.89l50.37-62.87a9,9,0,0,1,6.94-3.37h10.32a4.4,4.4,0,0,1,3.37,7.14L600.2,172l54.54,62.87A4.41,4.41,0,0,1,651.37,242.24Z"/><path class="cls-2" d="M793,237.48,744.58,108a6.85,6.85,0,0,0-6.54-4.56h-12.7A6.85,6.85,0,0,0,718.8,108l-48.19,129.5a3.42,3.42,0,0,0,3.17,4.76h16.35l10.15-28.19,31.41-89.41,33.9,95.67H714.65l-7.89,21.93H789.6A3.6,3.6,0,0,0,793,237.48Z"/><path class="cls-2" d="M905.82,242.24H894.91a8.35,8.35,0,0,1-7.73-4.76l-26.38-49a47.84,47.84,0,0,1-5.35.2h-23v48.19a5.29,5.29,0,0,1-5.16,5.35H818a5.33,5.33,0,0,1-5.35-5.35V108.77a5.33,5.33,0,0,1,5.35-5.35h37.49c31.73,0,49.78,18.64,49.78,42.64,0,16.66-8.73,30.93-25,37.88l29.35,51.76A4.37,4.37,0,0,1,905.82,242.24Zm-50.37-71.59c19,0,29.55-9.72,29.55-24.59s-10.51-24.6-29.55-24.6h-23v49.19Z"/><path class="cls-2" d="M1042.86,172.83c0,39.27-25.18,69.41-72.38,69.41H936.56a5.33,5.33,0,0,1-5.35-5.35V108.77a5.33,5.33,0,0,1,5.35-5.35h33.92C1017.68,103.42,1042.86,133.56,1042.86,172.83Zm-20,0c0-31.14-19.43-51.37-52.35-51.37H951V224.2h19.44C1003.4,224.2,1022.83,204,1022.83,172.83Z"/><path class="cls-2" d="M1078.56,232.33a12.4,12.4,0,1,1-12.49-12.3A12.44,12.44,0,0,1,1078.56,232.33Z"/><polygon class="cls-3" points="179.2 2.26 174.06 279.27 16.43 284.6 16.43 80.04 179.2 2.26"/><polygon class="cls-3" points="179.2 2.26 175.31 257.9 41.02 253.76 31.58 50.57 179.2 2.26"/><polygon class="cls-3" points="179.2 0 212.87 235.91 78.58 231.77 69.14 28.58 179.2 0"/><polygon class="cls-1" points="179.2 0 179.2 324.93 0 324.93 0 108.15 179.2 0"/><path class="cls-4" d="M0,316.64s22.75-16.82,14.7-63.27H0Z"/><path class="cls-4" d="M101.11,324.93s-11.34-24.16-22.56-28.22c7.69,12.09,6.44,22.75,4.92,28.22Z"/><path class="cls-4" d="M80.29,283.55l-7.16-9.09S59.78,284.71,52.82,269c0,0,10.64-11,5.22-39.85s-22-38.31-22-38.31-8.7,20.6,3.78,29.89l-3.37,8.71L14.7,253.37S30.06,295.58,0,324.93H79.86c5.57-12.3-1.31-28.22-1.31-28.22S74.68,289,80.29,283.55Z"/><circle class="cls-4" cx="110.03" cy="151.73" r="11.57"/><rect class="cls-4" x="99.81" y="103.94" width="2.6" height="50.97" transform="translate(-34.34 36.54) rotate(-17.56)"/><rect class="cls-4" x="122.78" y="155.35" width="2.6" height="32.05" transform="translate(-81.2 120.12) rotate(-40.07)"/><rect class="cls-4" x="143.52" y="117.86" width="2.6" height="65.99" transform="translate(1.65 303.27) rotate(-92.96)"/><rect class="cls-4" x="79" y="133.08" width="2.6" height="44.46" transform="translate(-61.47 257.65) rotate(-98.48)"/><rect class="cls-4" x="82.67" y="143.54" width="2.6" height="58.5" transform="translate(169.71 0.87) rotate(52.42)"/><rect class="cls-4" x="129.17" y="119.09" width="2.6" height="35.86" transform="translate(159.5 -49.94) rotate(52.42)"/><rect class="cls-4" x="94.05" y="152.22" width="2.6" height="103.34" transform="translate(136.66 425.15) rotate(-165.51)"/><circle class="cls-4" cx="143.87" cy="126.71" r="6.82"/><circle class="cls-4" cx="83.28" cy="250.18" r="7.25"/><circle class="cls-4" cx="69.56" cy="184.63" r="8.02"/><circle class="cls-4" cx="124.76" cy="173.38" r="5.71"/><path class="cls-4" d="M83.92,105.29a8.17,8.17,0,0,0,15.16-6.12Z"/><circle class="cls-4" cx="91.89" cy="153.59" r="3.43"/><circle class="cls-4" cx="169.31" cy="149.58" r="4.75"/><path class="cls-4" d="M164,201.25l24.47-39.53c-7.4-53.11-60.07-64.86-60.07-64.86C26.55,86,31.62,178.56,31.62,190.69s11.1,16.1,11.1,16.1c4.3,47.36,30.85,75,38.39,83.24s28.36,7.74,28.36,7.74l38.92-71.3-2-5.43.13-5.42,1.68-2.32,9.22-1.41L164,201.25Zm15.33-36.91-19.67,27.84c-2.23-4.38-4.49-8.69-4.49-8.69s10.35-38.92-39-58.86c-40.24-16.27-64.3,19.72-71.8,33.54.08-2.13.22-4.28.44-6.46C51.79,81.63,171.94,91.64,179.34,164.34ZM85.39,252.77C67,222.38,66.51,170.59,66.51,170.59s3-44.27,43.52-40.56,32.18,54.41,32.18,54.41l-6.08-3.71-16.77,25.68c6.88,13.18,0,42.81,0,42.81h0l-14.77,20.9A158.12,158.12,0,0,1,85.39,252.77Zm57.83-37.32.85-2.79,2.34-1.73Z"/><path class="cls-4" d="M193.08,163.59c-3.91-2.2-36.23,8.29-35.94,19.9s-3.33,18.72-7.47,20.6-8.88-7.51-8.88-7.51l-8.87,8.87,4.5,4.5c3.67,31.73-29.86,71-29.86,71a150.17,150.17,0,0,0,1.9,16.3c1.65,10,10.16,4.89,10.16,4.89l23-26.61s-2.9-2.9-.67-4.25,5.9.48,5.9.48l1.93-1.64s8.8-9.48,11.8-11.51,9.77-.29,11.51-.49,3-4.25,3.2-7.06-.39-16.12-.71-24.08,1.91-5.74,12.1-19.75S193.08,163.59,193.08,163.59Zm-30.24,56.86c-1.59,3.06-3.06,3.86-3.06,3.86a3.26,3.26,0,0,1-4.39,0L151,218.52s-1.73-3.13.47-3.46,11,1.46,11,1.46S164.44,217.39,162.84,220.45Z"/></g></g></svg>