<svg xmlns="http://www.w3.org/2000/svg" xmlns:xlink="http://www.w3.org/1999/xlink" width="1368" height="1039" viewBox="0 0 1368 1039">
  <defs>
    <clipPath id="clip-path">
      <rect id="Rectángulo_17" data-name="Rectángulo 17" width="1368" height="1039" transform="translate(435 -2)" fill="none" stroke="#707070" stroke-width="1"/>
    </clipPath>
  </defs>
  <g id="Enmascarar_grupo_1" data-name="Enmascarar grupo 1" transform="translate(-435 2)" clip-path="url(#clip-path)">
    <g id="Grupo_11" data-name="Grupo 11" transform="translate(-280.297 -2.422)">
      <path id="Trazado_2" data-name="Trazado 2" d="M-248.449-3.457,1113.746.318V1034.709l-99.376-91.086S909.417,822.283,902.763,688.474c-13.308-267.617,284.348-385.141,192.3-609.074-17.021-41.394-324.067,163.983-577.12-26.748C434.181-10.465,131.55,99.02-32.848,56.83S-248.449-3.457-248.449-3.457Z" transform="translate(969.551 0.879)" fill="#6aedf7"/>
      <path id="Trazado_1" data-name="Trazado 1" d="M-177.294,0H1104.693V1039.207S938.612,584.927,949.763,454.28s54.418-210.83,94.163-252.534,62.385-80.138,34.127-137.875c-74.8-152.831-723.038,131.276-827.346,61.689S-177.294,0-177.294,0Z" transform="translate(978.604 -1.427)" fill="#fdd300"/>
      <path id="Trazado_1-2" data-name="Trazado 1" d="M1079.758,1039.707c-2.957-6.168-11.8-24.382-24.555-48.52-9.248-17.508-18.71-34.662-28.123-50.984-11.767-20.4-23.49-39.56-34.844-56.936-6.567-10.05-12.686-20.328-18.186-30.549a379.411,379.411,0,0,1-16.4-34.474,345.076,345.076,0,0,1-13.281-38.206,320.46,320.46,0,0,1-8.837-41.745,309.224,309.224,0,0,1-3.064-45.092,315.068,315.068,0,0,1,4.037-48.25,342.533,342.533,0,0,1,12.468-51.219,397.684,397.684,0,0,1,22.231-54c16.8-33.721,33.014-83.081,48.2-146.711,12.147-50.888,23.668-110.97,34.244-178.577,9.409-60.147,16.312-115.24,20.446-150.866,2.674-23.04,4.565-41.127,5.66-52.017V1039.707ZM636.549,113c-11.174,0-22.128-.369-32.56-1.1-10.8-.754-21.35-1.914-31.346-3.449-10.333-1.586-20.369-3.616-29.827-6.034a255.37,255.37,0,0,1-28-8.854C468.563,75.846,412.624,59.874,348.547,46.093,297.295,35.07,240.75,25.417,180.482,17.4,126.865,10.269,80.165,5.781,50.43,3.272,35.452,2.008,23.157,1.105,14.269.5H1077.975c-5.047,2.275-19.013,8.476-39.422,16.781-15.178,6.176-30.9,12.29-46.717,18.172-19.776,7.352-39.771,14.361-59.429,20.83-50.034,16.467-98.214,29.587-143.2,39-26.707,5.586-52.571,9.908-76.873,12.848A635.744,635.744,0,0,1,636.549,113Z" transform="translate(1003.539 -1.927)" fill="#f63372"/>
    </g>
  </g>
</svg>
