<svg xmlns="http://www.w3.org/2000/svg" xmlns:xlink="http://www.w3.org/1999/xlink" viewBox="0 0 1366 768"><defs><style>.cls-1,.cls-27,.cls-28{fill:none;}.cls-2{fill:url(#linear-gradient);}.cls-3{fill:url(#linear-gradient-2);}.cls-4{fill:#e93b27;}.cls-5{isolation:isolate;}.cls-6{clip-path:url(#clip-path);}.cls-7{fill:#081f27;}.cls-8{fill:#072d3f;}.cls-9{fill:#e6e5bf;}.cls-10{fill:#f2b21b;}.cls-11{fill:#efc950;}.cls-12{fill:#c1c1c1;}.cls-13{fill:#d5d5d5;}.cls-14{fill:#f5f5f5;}.cls-15,.cls-22,.cls-26{fill:#230753;}.cls-15{opacity:0.15;}.cls-15,.cls-20,.cls-22,.cls-25{mix-blend-mode:multiply;}.cls-16{fill:#e2e2e2;}.cls-17{fill:#ffde6e;}.cls-18{fill:#f4911e;}.cls-19{fill:#f8ad40;}.cls-20{fill:#fdd483;}.cls-21{fill:#f3f1ec;}.cls-22,.cls-25{opacity:0.1;}.cls-23{fill:#dcdcdc;}.cls-24{fill:#e34337;}.cls-27,.cls-28{stroke-miterlimit:10;stroke-width:0.99px;}.cls-27{stroke:url(#Unnamed_Pattern_2);}.cls-28{stroke:#72727c;}.cls-29{fill:#72727c;}.cls-30{fill:url(#linear-gradient-3);}.cls-31{fill:url(#linear-gradient-4);}.cls-32{fill:url(#linear-gradient-5);}.cls-33{fill:url(#linear-gradient-6);}.cls-34{fill:url(#linear-gradient-7);}.cls-35{fill:url(#linear-gradient-8);}.cls-36{fill:url(#linear-gradient-9);}.cls-37{fill:url(#linear-gradient-10);}.cls-38{fill:url(#linear-gradient-11);}.cls-39{fill:url(#linear-gradient-12);}.cls-40{fill:url(#linear-gradient-13);}.cls-41{fill:url(#linear-gradient-14);}.cls-42{fill:url(#linear-gradient-15);}.cls-43{fill:url(#linear-gradient-16);}.cls-44{fill:url(#linear-gradient-17);}.cls-45{clip-path:url(#clip-path-2);}.cls-46{fill:url(#linear-gradient-19);}.cls-47{fill:url(#linear-gradient-20);}.cls-48{fill:url(#linear-gradient-21);}.cls-49{fill:url(#linear-gradient-22);}.cls-50{fill:blue;}.cls-51,.cls-52{fill:#fff;}.cls-51{opacity:0.57;}.cls-53{fill:url(#linear-gradient-23);}.cls-54{fill:url(#linear-gradient-24);}.cls-55{fill:url(#linear-gradient-25);}.cls-56{fill:url(#linear-gradient-26);}.cls-57{fill:url(#linear-gradient-27);}.cls-58{fill:url(#linear-gradient-28);}.cls-59{fill:url(#linear-gradient-29);}.cls-60{fill:url(#linear-gradient-30);}.cls-61{fill:url(#linear-gradient-31);}.cls-62{fill:url(#linear-gradient-32);}.cls-63{fill:url(#linear-gradient-33);}.cls-64{fill:url(#linear-gradient-34);}.cls-65{fill:url(#linear-gradient-35);}.cls-66{fill:url(#linear-gradient-36);}.cls-67{fill:url(#linear-gradient-37);}.cls-68{fill:url(#linear-gradient-38);}.cls-69{fill:url(#linear-gradient-39);}.cls-70{fill:url(#linear-gradient-40);}.cls-71{fill:url(#linear-gradient-41);}.cls-72{fill:url(#linear-gradient-42);}.cls-73{fill:url(#linear-gradient-43);}.cls-74{fill:url(#linear-gradient-44);}.cls-75{fill:url(#linear-gradient-45);}.cls-76{fill:url(#linear-gradient-46);}.cls-77{fill:url(#linear-gradient-47);}.cls-78{fill:url(#linear-gradient-48);}.cls-79{fill:url(#linear-gradient-49);}.cls-80{fill:url(#linear-gradient-50);}.cls-81{fill:url(#linear-gradient-51);}.cls-82{fill:url(#linear-gradient-52);}.cls-83{fill:url(#linear-gradient-53);}.cls-84{fill:url(#linear-gradient-54);}.cls-85{fill:url(#linear-gradient-55);}.cls-86{fill:url(#linear-gradient-56);}.cls-87{fill:url(#linear-gradient-57);}.cls-88{fill:url(#linear-gradient-58);}.cls-89{fill:url(#linear-gradient-59);}.cls-90{fill:url(#linear-gradient-60);}.cls-91{fill:url(#linear-gradient-61);}.cls-92{fill:url(#linear-gradient-62);}.cls-93{fill:url(#linear-gradient-63);}.cls-94{fill:url(#linear-gradient-64);}.cls-95{fill:url(#linear-gradient-65);}.cls-96{fill:url(#linear-gradient-66);}.cls-97{fill:url(#linear-gradient-67);}.cls-98{fill:url(#linear-gradient-68);}.cls-99{fill:url(#linear-gradient-69);}.cls-100{fill:url(#linear-gradient-70);}.cls-101{fill:url(#linear-gradient-71);}.cls-102{fill:url(#linear-gradient-72);}.cls-103{fill:url(#linear-gradient-73);}.cls-104{fill:url(#linear-gradient-74);}.cls-105{fill:url(#linear-gradient-75);}.cls-106{fill:url(#linear-gradient-76);}.cls-107{fill:url(#linear-gradient-77);}.cls-108{fill:url(#linear-gradient-78);}.cls-109{fill:url(#linear-gradient-79);}.cls-110{fill:url(#linear-gradient-80);}.cls-111{fill:url(#linear-gradient-81);}.cls-112{fill:url(#linear-gradient-82);}.cls-113{fill:url(#linear-gradient-83);}.cls-114{clip-path:url(#clip-path-3);}.cls-115{fill:url(#linear-gradient-85);}.cls-116{fill:url(#linear-gradient-86);}.cls-117{fill:url(#linear-gradient-87);}.cls-118{fill:url(#linear-gradient-88);}.cls-119{fill:url(#linear-gradient-89);}.cls-120{fill:url(#linear-gradient-90);}.cls-121{fill:url(#linear-gradient-91);}</style><linearGradient id="linear-gradient" x1="981.93" y1="143.25" x2="1002.69" y2="183.47" gradientUnits="userSpaceOnUse"><stop offset="0" stop-color="#2b3582"/><stop offset="1" stop-color="#150e42"/></linearGradient><linearGradient id="linear-gradient-2" x1="788.25" y1="456.35" x2="810.45" y2="499.36" xlink:href="#linear-gradient"/><clipPath id="clip-path"><path class="cls-1" d="M1366,689.67V0c-52.81,11.53-103,42.84-127.65,90.89-15.52,30.27-21.85,67.64-49,88.19-22.73,17.23-54.54,20.62-81.94,12.69s-32.81-10-59-21.23c-40.91-17.55-92-17.89-135.18-7.24S838.73,206,827,249c-12.63,46.51,5.59,103.25-26,139.71-35.27,40.78-129.93.65-169.06,37.77-25,23.72-28.76,62.49-23.61,96.58s.78,81.52-15.21,101.63c-17.95,22.57-95.19,47.08-108.18,65Z"/></clipPath><pattern id="Unnamed_Pattern_2" data-name="Unnamed Pattern 2" width="800" height="800" patternUnits="userSpaceOnUse" viewBox="0 0 800 800"><rect class="cls-1" width="800" height="800"/><rect class="cls-4" width="800" height="800"/></pattern><linearGradient id="linear-gradient-3" x1="1356.05" y1="602.43" x2="1379.54" y2="578.37" gradientTransform="translate(-483.6 114.97) rotate(-19.76)" gradientUnits="userSpaceOnUse"><stop offset="0" stop-color="#53d8ff"/><stop offset="1" stop-color="#3840f7"/></linearGradient><linearGradient id="linear-gradient-4" x1="1355.11" y1="587.56" x2="1327.63" y2="609.58" gradientTransform="translate(-483.6 114.97) rotate(-19.76)" gradientUnits="userSpaceOnUse"><stop offset="0" stop-color="#fdf53f"/><stop offset="1" stop-color="#d93c65"/></linearGradient><linearGradient id="linear-gradient-5" x1="1342.29" y1="595.19" x2="1354.44" y2="590.54" xlink:href="#linear-gradient-4"/><linearGradient id="linear-gradient-6" x1="1369.35" y1="567.78" x2="1381.7" y2="563.05" xlink:href="#linear-gradient-4"/><linearGradient id="linear-gradient-7" x1="-932.13" y1="539.42" x2="-890.58" y2="539.42" gradientTransform="matrix(-0.97, 0.23, 0.23, 0.97, 97.96, -24.39)" xlink:href="#linear-gradient-4"/><linearGradient id="linear-gradient-8" x1="1425.6" y1="733.31" x2="1416.86" y2="561.42" xlink:href="#linear-gradient-3"/><linearGradient id="linear-gradient-9" x1="-1921.05" y1="-730.79" x2="-1875.81" y2="-730.79" gradientTransform="matrix(-0.87, -0.49, -0.49, 0.87, -863.24, -30.21)" xlink:href="#linear-gradient-4"/><linearGradient id="linear-gradient-10" x1="-986.74" y1="377.72" x2="-940.01" y2="441.06" gradientTransform="matrix(-0.99, 0.16, 0.16, 0.99, 45.15, -22.74)" xlink:href="#linear-gradient-3"/><linearGradient id="linear-gradient-11" x1="1442.35" y1="682.92" x2="1443.31" y2="597.72" xlink:href="#linear-gradient-4"/><linearGradient id="linear-gradient-12" x1="1401.59" y1="703.11" x2="1402.59" y2="614.11" xlink:href="#linear-gradient-4"/><linearGradient id="linear-gradient-13" x1="1452.44" y1="508.01" x2="1402.23" y2="678.51" xlink:href="#linear-gradient-3"/><linearGradient id="linear-gradient-14" x1="1424.07" y1="544.72" x2="1403.07" y2="561.55" xlink:href="#linear-gradient-4"/><linearGradient id="linear-gradient-15" x1="1433.24" y1="586.26" x2="1405.77" y2="608.28" xlink:href="#linear-gradient-4"/><linearGradient id="linear-gradient-16" x1="1383.38" y1="584.39" x2="1397.96" y2="534.9" xlink:href="#linear-gradient-4"/><linearGradient id="linear-gradient-17" x1="1720.23" y1="-889.68" x2="1568.8" y2="-764.74" gradientTransform="matrix(-0.71, 0.7, 0.7, 0.71, 2793.22, -429.08)" xlink:href="#linear-gradient-3"/><clipPath id="clip-path-2"><path class="cls-2" d="M991,133c9.65.92,17.26,9.58,15.61,22.64-.94,7.47-9,13.23-15.67,16.8a26.71,26.71,0,0,1-19.23-7.88c-6.07-6.13-10-13.68-9.37-21.57C970.13,138.52,982.77,132.21,991,133Z"/></clipPath><linearGradient id="linear-gradient-19" x1="403.75" y1="791.93" x2="371.72" y2="813.85" gradientTransform="matrix(-0.71, 0.7, 0.7, 0.71, 714.82, -687.52)" gradientUnits="userSpaceOnUse"><stop offset="0" stop-color="#f9b776"/><stop offset="1" stop-color="#f47960"/></linearGradient><linearGradient id="linear-gradient-20" x1="11990.78" y1="1401.4" x2="11967.84" y2="1431.76" gradientTransform="matrix(-1, -0.07, -0.07, 1, 13040.29, -385.78)" xlink:href="#linear-gradient-19"/><linearGradient id="linear-gradient-21" x1="-1847.88" y1="1385.15" x2="-1860.63" y2="1447.68" gradientTransform="translate(2931.17 -1119.2) rotate(4.15)" gradientUnits="userSpaceOnUse"><stop offset="0" stop-color="#cb236d"/><stop offset="1" stop-color="#4c246d"/></linearGradient><linearGradient id="linear-gradient-22" x1="11958.11" y1="1425.1" x2="11975.96" y2="1406.79" gradientTransform="matrix(-1, -0.07, -0.07, 1, 13040.29, -385.78)" xlink:href="#linear-gradient-19"/><linearGradient id="linear-gradient-23" x1="1107.06" y1="453.67" x2="1152.23" y2="453.67" gradientTransform="matrix(0.99, 0.1, -0.1, 0.99, -19.79, -171.37)" xlink:href="#linear-gradient"/><linearGradient id="linear-gradient-24" x1="1138.77" y1="425.97" x2="1390.31" y2="425.97" gradientTransform="matrix(1, -0.06, 0.06, 1, -95.31, 5.27)" xlink:href="#linear-gradient-3"/><linearGradient id="linear-gradient-25" x1="1367.02" y1="383.97" x2="885.24" y2="625.79" gradientTransform="matrix(1, -0.06, 0.06, 1, -95.31, 5.27)" xlink:href="#linear-gradient-3"/><linearGradient id="linear-gradient-26" x1="1149.04" y1="423.29" x2="1373.78" y2="423.29" gradientTransform="matrix(1, -0.06, 0.06, 1, -95.31, 5.27)" xlink:href="#linear-gradient-3"/><linearGradient id="linear-gradient-27" x1="1175.8" y1="453.54" x2="1413.76" y2="299.88" gradientTransform="matrix(1, -0.06, 0.06, 1, -95.31, 5.27)" xlink:href="#linear-gradient-3"/><linearGradient id="linear-gradient-28" x1="1201.58" y1="493.45" x2="1439.53" y2="339.79" gradientTransform="matrix(1, -0.06, 0.06, 1, -95.31, 5.27)" xlink:href="#linear-gradient-3"/><linearGradient id="linear-gradient-29" x1="1167.32" y1="440.4" x2="1405.27" y2="286.74" gradientTransform="matrix(1, -0.06, 0.06, 1, -95.31, 5.27)" xlink:href="#linear-gradient-3"/><linearGradient id="linear-gradient-30" x1="1192.73" y1="479.75" x2="1430.69" y2="326.09" gradientTransform="matrix(1, -0.06, 0.06, 1, -95.31, 5.27)" xlink:href="#linear-gradient-3"/><linearGradient id="linear-gradient-31" x1="1184.21" y1="466.54" x2="1422.16" y2="312.88" gradientTransform="matrix(1, -0.06, 0.06, 1, -95.31, 5.27)" xlink:href="#linear-gradient-3"/><linearGradient id="linear-gradient-32" x1="1184.89" y1="467.61" x2="1422.84" y2="313.95" gradientTransform="matrix(1, -0.06, 0.06, 1, -95.31, 5.27)" xlink:href="#linear-gradient-3"/><linearGradient id="linear-gradient-33" x1="1176.84" y1="455.15" x2="1414.8" y2="301.49" gradientTransform="matrix(1, -0.06, 0.06, 1, -95.31, 5.27)" xlink:href="#linear-gradient-3"/><linearGradient id="linear-gradient-34" x1="1160.12" y1="429.25" x2="1398.08" y2="275.59" gradientTransform="matrix(1, -0.06, 0.06, 1, -95.31, 5.27)" xlink:href="#linear-gradient-3"/><linearGradient id="linear-gradient-35" x1="1223.25" y1="527" x2="1461.2" y2="373.34" gradientTransform="matrix(1, -0.06, 0.06, 1, -95.31, 5.27)" xlink:href="#linear-gradient-3"/><linearGradient id="linear-gradient-36" x1="1213.53" y1="511.96" x2="1451.49" y2="358.3" gradientTransform="matrix(1, -0.06, 0.06, 1, -95.31, 5.27)" xlink:href="#linear-gradient-3"/><linearGradient id="linear-gradient-37" x1="1194.34" y1="482.23" x2="1432.29" y2="328.57" gradientTransform="matrix(1, -0.06, 0.06, 1, -95.31, 5.27)" xlink:href="#linear-gradient-3"/><linearGradient id="linear-gradient-38" x1="1203.89" y1="497.02" x2="1441.84" y2="343.36" gradientTransform="matrix(1, -0.06, 0.06, 1, -95.31, 5.27)" xlink:href="#linear-gradient-3"/><linearGradient id="linear-gradient-39" x1="-2441.38" y1="-1443" x2="-2396.2" y2="-1443" gradientTransform="matrix(0.99, -0.1, -0.1, -0.99, 3195.96, -1325.55)" xlink:href="#linear-gradient"/><linearGradient id="linear-gradient-40" x1="-2409.66" y1="-1470.7" x2="-2158.12" y2="-1470.7" gradientTransform="matrix(-0.72, -0.7, -0.7, 0.72, -1805.92, -292.36)" xlink:href="#linear-gradient-3"/><linearGradient id="linear-gradient-41" x1="-2181.41" y1="-1512.71" x2="-2663.21" y2="-1270.88" gradientTransform="matrix(-0.72, -0.7, -0.7, 0.72, -1805.92, -292.36)" xlink:href="#linear-gradient-3"/><linearGradient id="linear-gradient-42" x1="-2399.4" y1="-1473.39" x2="-2174.64" y2="-1473.39" gradientTransform="matrix(-0.72, -0.7, -0.7, 0.72, -1805.92, -292.36)" xlink:href="#linear-gradient-3"/><linearGradient id="linear-gradient-43" x1="-2372.63" y1="-1443.14" x2="-2134.67" y2="-1596.81" gradientTransform="matrix(-0.72, -0.7, -0.7, 0.72, -1805.92, -292.36)" xlink:href="#linear-gradient-3"/><linearGradient id="linear-gradient-44" x1="-2346.85" y1="-1403.23" x2="-2108.89" y2="-1556.89" gradientTransform="matrix(-0.72, -0.7, -0.7, 0.72, -1805.92, -292.36)" xlink:href="#linear-gradient-3"/><linearGradient id="linear-gradient-45" x1="-2381.11" y1="-1456.27" x2="-2143.15" y2="-1609.94" gradientTransform="matrix(-0.72, -0.7, -0.7, 0.72, -1805.92, -292.36)" xlink:href="#linear-gradient-3"/><linearGradient id="linear-gradient-46" x1="-2355.7" y1="-1416.92" x2="-2117.74" y2="-1570.59" gradientTransform="matrix(-0.72, -0.7, -0.7, 0.72, -1805.92, -292.36)" xlink:href="#linear-gradient-3"/><linearGradient id="linear-gradient-47" x1="-2364.23" y1="-1430.13" x2="-2126.27" y2="-1583.8" gradientTransform="matrix(-0.72, -0.7, -0.7, 0.72, -1805.92, -292.36)" xlink:href="#linear-gradient-3"/><linearGradient id="linear-gradient-48" x1="-2363.54" y1="-1429.07" x2="-2125.58" y2="-1582.73" gradientTransform="matrix(-0.72, -0.7, -0.7, 0.72, -1805.92, -292.36)" xlink:href="#linear-gradient-3"/><linearGradient id="linear-gradient-49" x1="-2371.59" y1="-1441.53" x2="-2133.63" y2="-1595.19" gradientTransform="matrix(-0.72, -0.7, -0.7, 0.72, -1805.92, -292.36)" xlink:href="#linear-gradient-3"/><linearGradient id="linear-gradient-50" x1="-2388.31" y1="-1467.42" x2="-2150.35" y2="-1621.09" gradientTransform="matrix(-0.72, -0.7, -0.7, 0.72, -1805.92, -292.36)" xlink:href="#linear-gradient-3"/><linearGradient id="linear-gradient-51" x1="-2325.18" y1="-1369.67" x2="-2087.22" y2="-1523.34" gradientTransform="matrix(-0.72, -0.7, -0.7, 0.72, -1805.92, -292.36)" xlink:href="#linear-gradient-3"/><linearGradient id="linear-gradient-52" x1="-2334.9" y1="-1384.71" x2="-2096.94" y2="-1538.38" gradientTransform="matrix(-0.72, -0.7, -0.7, 0.72, -1805.92, -292.36)" xlink:href="#linear-gradient-3"/><linearGradient id="linear-gradient-53" x1="-2354.1" y1="-1414.44" x2="-2116.14" y2="-1568.11" gradientTransform="matrix(-0.72, -0.7, -0.7, 0.72, -1805.92, -292.36)" xlink:href="#linear-gradient-3"/><linearGradient id="linear-gradient-54" x1="-2344.55" y1="-1399.66" x2="-2106.59" y2="-1553.32" gradientTransform="matrix(-0.72, -0.7, -0.7, 0.72, -1805.92, -292.36)" xlink:href="#linear-gradient-3"/><linearGradient id="linear-gradient-55" x1="-3964.63" y1="56.14" x2="-3919.45" y2="56.14" gradientTransform="translate(4896.29 820.27) rotate(5.8)" xlink:href="#linear-gradient"/><linearGradient id="linear-gradient-56" x1="-3932.91" y1="28.44" x2="-3681.36" y2="28.44" gradientTransform="translate(-754.95 4023.58) rotate(116.74)" xlink:href="#linear-gradient-3"/><linearGradient id="linear-gradient-57" x1="-3704.66" y1="-13.57" x2="-4186.46" y2="228.26" gradientTransform="translate(-754.95 4023.58) rotate(116.74)" xlink:href="#linear-gradient-3"/><linearGradient id="linear-gradient-58" x1="-3922.64" y1="25.75" x2="-3697.89" y2="25.75" gradientTransform="translate(-754.95 4023.58) rotate(116.74)" xlink:href="#linear-gradient-3"/><linearGradient id="linear-gradient-59" x1="-3895.88" y1="56" x2="-3657.92" y2="-97.67" gradientTransform="translate(-754.95 4023.58) rotate(116.74)" xlink:href="#linear-gradient-3"/><linearGradient id="linear-gradient-60" x1="-3870.1" y1="95.91" x2="-3632.14" y2="-57.75" gradientTransform="translate(-754.95 4023.58) rotate(116.74)" xlink:href="#linear-gradient-3"/><linearGradient id="linear-gradient-61" x1="-3904.36" y1="42.87" x2="-3666.4" y2="-110.8" gradientTransform="translate(-754.95 4023.58) rotate(116.74)" xlink:href="#linear-gradient-3"/><linearGradient id="linear-gradient-62" x1="-3878.95" y1="82.22" x2="-3640.98" y2="-71.45" gradientTransform="translate(-754.95 4023.58) rotate(116.74)" xlink:href="#linear-gradient-3"/><linearGradient id="linear-gradient-63" x1="-3887.48" y1="69.01" x2="-3649.51" y2="-84.66" gradientTransform="translate(-754.95 4023.58) rotate(116.74)" xlink:href="#linear-gradient-3"/><linearGradient id="linear-gradient-64" x1="-3886.79" y1="70.07" x2="-3648.83" y2="-83.59" gradientTransform="translate(-754.95 4023.58) rotate(116.74)" xlink:href="#linear-gradient-3"/><linearGradient id="linear-gradient-65" x1="-3894.84" y1="57.61" x2="-3656.88" y2="-96.05" gradientTransform="translate(-754.95 4023.58) rotate(116.74)" xlink:href="#linear-gradient-3"/><linearGradient id="linear-gradient-66" x1="-3911.56" y1="31.72" x2="-3673.6" y2="-121.95" gradientTransform="translate(-754.95 4023.58) rotate(116.74)" xlink:href="#linear-gradient-3"/><linearGradient id="linear-gradient-67" x1="-3848.43" y1="129.47" x2="-3610.47" y2="-24.2" gradientTransform="translate(-754.95 4023.58) rotate(116.74)" xlink:href="#linear-gradient-3"/><linearGradient id="linear-gradient-68" x1="-3858.15" y1="114.43" x2="-3620.18" y2="-39.24" gradientTransform="translate(-754.95 4023.58) rotate(116.74)" xlink:href="#linear-gradient-3"/><linearGradient id="linear-gradient-69" x1="-3877.34" y1="84.7" x2="-3639.38" y2="-68.97" gradientTransform="translate(-754.95 4023.58) rotate(116.74)" xlink:href="#linear-gradient-3"/><linearGradient id="linear-gradient-70" x1="-3867.79" y1="99.48" x2="-3629.83" y2="-54.18" gradientTransform="translate(-754.95 4023.58) rotate(116.74)" xlink:href="#linear-gradient-3"/><linearGradient id="linear-gradient-71" x1="1087.13" y1="381.55" x2="1032.49" y2="525.84" gradientTransform="matrix(1, -0.06, 0.06, 1, -95.31, 5.27)" xlink:href="#linear-gradient-3"/><linearGradient id="linear-gradient-72" x1="997.13" y1="461" x2="1112.86" y2="461" gradientTransform="matrix(1, -0.06, 0.06, 1, -95.31, 5.27)" xlink:href="#linear-gradient-3"/><linearGradient id="linear-gradient-73" x1="1065.47" y1="415.47" x2="1034.16" y2="559.14" gradientTransform="matrix(0.85, 0.53, -0.53, 0.85, 331.06, -542.64)" gradientUnits="userSpaceOnUse"><stop offset="0" stop-color="#9cfffb"/><stop offset="1" stop-color="#9bfffa"/></linearGradient><linearGradient id="linear-gradient-74" x1="601.3" y1="564.61" x2="649.91" y2="564.61" gradientTransform="matrix(1, 0, 0, 1, 0, 0)" xlink:href="#linear-gradient-4"/><linearGradient id="linear-gradient-75" x1="856.82" y1="447.44" x2="757.59" y2="553.78" gradientTransform="matrix(1, 0, 0, 1, 0, 0)" xlink:href="#linear-gradient-3"/><linearGradient id="linear-gradient-76" x1="616.13" y1="615.35" x2="666.4" y2="615.35" gradientTransform="matrix(1, 0, 0, 1, 0, 0)" xlink:href="#linear-gradient-4"/><linearGradient id="linear-gradient-77" x1="705.49" y1="625.87" x2="700.41" y2="525.96" gradientTransform="matrix(1, 0, 0, 1, 0, 0)" xlink:href="#linear-gradient-3"/><linearGradient id="linear-gradient-78" x1="709.68" y1="610.81" x2="698.51" y2="559.67" gradientTransform="matrix(1, 0, 0, 1, 0, 0)" xlink:href="#linear-gradient-4"/><linearGradient id="linear-gradient-79" x1="705.37" y1="496.7" x2="818.7" y2="698.41" gradientTransform="matrix(1, 0, 0, 1, 0, 0)" xlink:href="#linear-gradient-3"/><linearGradient id="linear-gradient-80" x1="683.28" y1="590.63" x2="683.96" y2="530.34" gradientTransform="matrix(1, 0, 0, 1, 0, 0)" xlink:href="#linear-gradient-4"/><linearGradient id="linear-gradient-81" x1="790.49" y1="495.52" x2="697.96" y2="569.69" gradientTransform="matrix(1, 0, 0, 1, 0, 0)" xlink:href="#linear-gradient-4"/><linearGradient id="linear-gradient-82" x1="848.88" y1="479.86" x2="771.58" y2="541.81" gradientTransform="translate(-29.17 -1.99) rotate(0.57)" xlink:href="#linear-gradient-4"/><linearGradient id="linear-gradient-83" x1="2117.1" y1="-1215.48" x2="1954.4" y2="-1081.23" gradientTransform="translate(-1297.11 1644.21) rotate(0.08)" xlink:href="#linear-gradient-3"/><clipPath id="clip-path-3"><path class="cls-3" d="M774.23,454.27c-6.68,8-6,20.35,5.16,29.09,6.36,5,16.84,3.35,24.66,1a28.73,28.73,0,0,0,8.76-20.54c0-9.28-2.66-18-9.12-23.56C794.38,442.72,780,447.43,774.23,454.27Z"/></clipPath><linearGradient id="linear-gradient-85" x1="777.76" y1="505.61" x2="788.36" y2="471.68" gradientTransform="matrix(1, 0, 0, 1, 0, 0)" xlink:href="#linear-gradient-19"/><linearGradient id="linear-gradient-86" x1="783.75" y1="475.25" x2="802.23" y2="447.38" gradientTransform="matrix(1, 0, 0, 1, 0, 0)" xlink:href="#linear-gradient-19"/><linearGradient id="linear-gradient-87" x1="779.03" y1="444.4" x2="803.49" y2="475.89" gradientUnits="userSpaceOnUse"><stop offset="0" stop-color="#a737d5"/><stop offset="1" stop-color="#ef497a"/></linearGradient><linearGradient id="linear-gradient-88" x1="794.26" y1="456.05" x2="768" y2="476.14" gradientTransform="matrix(1, 0, 0, 1, 0, 0)" xlink:href="#linear-gradient-19"/><linearGradient id="linear-gradient-89" x1="-424.89" y1="416.84" x2="-461.53" y2="472.04" gradientTransform="translate(1110.06 -115.07) rotate(-21.49)" xlink:href="#linear-gradient-4"/><linearGradient id="linear-gradient-90" x1="717.75" y1="489.75" x2="831.08" y2="691.45" gradientTransform="matrix(1, 0, 0, 1, 0, 0)" xlink:href="#linear-gradient-3"/><linearGradient id="linear-gradient-91" x1="117.22" y1="159.55" x2="85.65" y2="184.86" gradientTransform="matrix(-0.74, -0.67, -0.67, 0.74, 915.14, 486.44)" xlink:href="#linear-gradient-4"/></defs><g class="cls-5"><g id="Layer_1" data-name="Layer 1"><g class="cls-6"><rect class="cls-7" x="478.11" y="-110.48" width="895.94" height="804.99"/><path class="cls-8" d="M826.48,570.33C880.25,566.94,907.6,694,956,688.19c57.58-6.86,87.49-194.55,98.35-341.43h-33.54c-19.17,100.65-48.52,208.47-96.48,213-55,5.18-97.25-129.17-138.56-213h-102c-39,129.47-48.49,421.68-41.79,596.4h51.7C719.11,793,756.85,574.73,826.48,570.33Zm-112-14.72c-24.3-10-21.45-72.88-13.29-109.09,3.68-16.36,13.56-60.2,32.63-62.16,23.82-2.45,65.08,60.16,49.55,112.9C772.57,533.84,735,564,714.45,555.61Z"/><path class="cls-8" d="M1175.77,336.68c53.77-3.39,81.12,123.62,129.55,117.85,57.59-6.86,87.49-194.55,98.36-341.43h-33.55c-19.17,100.66-48.52,208.48-96.48,213-55,5.19-97.24-129.17-138.56-213h-102c-39,129.47-48.5,421.68-41.8,596.4H1043C1068.4,559.34,1106.14,341.07,1175.77,336.68Zm-87,8.88c-13.14-10-11.6-72.87-7.19-109.09,2-16.35,7.33-60.2,17.64-62.16,12.88-2.45,35.19,60.16,26.79,112.9C1120.19,323.79,1099.86,354,1088.77,345.56Z"/><polygon class="cls-9" points="1322.37 166.91 1324.84 171.94 1330.38 172.74 1326.38 176.65 1327.32 182.17 1322.37 179.56 1317.41 182.17 1318.36 176.65 1314.35 172.74 1319.89 171.94 1322.37 166.91"/><polygon class="cls-9" points="645.57 621.33 648.05 626.35 653.59 627.16 649.58 631.07 650.53 636.59 645.57 633.98 640.62 636.59 641.56 631.07 637.55 627.16 643.1 626.35 645.57 621.33"/><polygon class="cls-9" points="1309.47 558.49 1311.95 563.51 1317.49 564.31 1313.48 568.22 1314.43 573.74 1309.47 571.13 1304.52 573.74 1305.46 568.22 1301.45 564.31 1306.99 563.51 1309.47 558.49"/><polygon class="cls-9" points="938.85 228.15 941.33 233.17 946.87 233.97 942.86 237.88 943.81 243.4 938.85 240.8 933.89 243.4 934.84 237.88 930.83 233.97 936.37 233.17 938.85 228.15"/><polygon class="cls-10" points="1263.77 272.01 1265.38 277.5 1270.82 279.29 1266.09 282.52 1266.07 288.24 1261.54 284.74 1256.09 286.49 1258.02 281.1 1254.67 276.46 1260.39 276.63 1263.77 272.01"/><polygon class="cls-10" points="778.74 417.04 780.35 422.53 785.78 424.32 781.06 427.54 781.04 433.27 776.51 429.77 771.06 431.52 772.99 426.13 769.64 421.49 775.36 421.65 778.74 417.04"/><path class="cls-11" d="M1158.67,240.7a2.24,2.24,0,1,1-2.24-2.24A2.24,2.24,0,0,1,1158.67,240.7Z"/><circle class="cls-11" cx="817.62" cy="486.92" r="2.24"/><circle class="cls-11" cx="776.72" cy="621.05" r="2.24"/><path class="cls-11" d="M1105.89,171.35a2.24,2.24,0,1,1-2.24-2.24A2.24,2.24,0,0,1,1105.89,171.35Z"/><path class="cls-11" d="M999.36,199.5a2.24,2.24,0,1,1-2.23-2.24A2.24,2.24,0,0,1,999.36,199.5Z"/><circle class="cls-11" cx="951.7" cy="345.42" r="2.24"/><path class="cls-11" d="M881.47,380.61a2.24,2.24,0,1,1-2.24-2.24A2.24,2.24,0,0,1,881.47,380.61Z"/><path class="cls-11" d="M1322.61,33.5a2.24,2.24,0,1,1-2.24-2.24A2.24,2.24,0,0,1,1322.61,33.5Z"/><path class="cls-11" d="M988.52,606.91a2.24,2.24,0,1,1-2.24-2.24A2.23,2.23,0,0,1,988.52,606.91Z"/><path class="cls-11" d="M1085.52,481.53a2.24,2.24,0,1,1-2.24-2.24A2.24,2.24,0,0,1,1085.52,481.53Z"/><path class="cls-11" d="M695.61,632a2.24,2.24,0,1,1-2.24-2.24A2.24,2.24,0,0,1,695.61,632Z"/><circle class="cls-11" cx="895.32" cy="460.63" r="2.24"/><circle class="cls-11" cx="891.35" cy="231.83" r="2.24"/><path class="cls-11" d="M1324.85,405.11a2.24,2.24,0,1,1-2.24-2.24A2.23,2.23,0,0,1,1324.85,405.11Z"/><path class="cls-11" d="M652.36,485.46a2.24,2.24,0,1,1-2.23-2.24A2.24,2.24,0,0,1,652.36,485.46Z"/><path class="cls-11" d="M1217.1,437.53a2.24,2.24,0,1,1-2.73,1.62A2.25,2.25,0,0,1,1217.1,437.53Z"/><path class="cls-11" d="M1241.11,567.47a2.24,2.24,0,1,1-2.72,1.61A2.24,2.24,0,0,1,1241.11,567.47Z"/><path class="cls-11" d="M1292.65,517.29a2.24,2.24,0,1,1-2.73,1.62A2.25,2.25,0,0,1,1292.65,517.29Z"/><path class="cls-11" d="M1063.34,260a2.24,2.24,0,1,1-2.73,1.62A2.24,2.24,0,0,1,1063.34,260Z"/><path class="cls-11" d="M860.29,573.16a2.24,2.24,0,1,1-2.72,1.61A2.22,2.22,0,0,1,860.29,573.16Z"/><path class="cls-11" d="M1318.69,231.82a2.24,2.24,0,1,1-2.72,1.61A2.22,2.22,0,0,1,1318.69,231.82Z"/><path class="cls-11" d="M1290.41,381a2.24,2.24,0,1,1-2.73,1.61A2.23,2.23,0,0,1,1290.41,381Z"/><path class="cls-11" d="M1303.8,131.48a2.24,2.24,0,1,1-2.72,1.61A2.25,2.25,0,0,1,1303.8,131.48Z"/><path class="cls-11" d="M1304.29,627.1a2.24,2.24,0,1,1-2.73,1.61A2.24,2.24,0,0,1,1304.29,627.1Z"/><path class="cls-11" d="M1180.21,529.68a2.24,2.24,0,1,1-2.72,1.61A2.22,2.22,0,0,1,1180.21,529.68Z"/><path class="cls-11" d="M1165.18,622.16a2.24,2.24,0,1,1-2.72,1.61A2.22,2.22,0,0,1,1165.18,622.16Z"/><path class="cls-11" d="M1222.22,661.56a2.24,2.24,0,1,1-2.72,1.61A2.25,2.25,0,0,1,1222.22,661.56Z"/><rect class="cls-12" x="692.49" y="589.5" width="15.32" height="16.33" rx="6.03" transform="translate(21.73 1219.88) rotate(-83.01)"/><rect class="cls-12" x="746.86" y="556.04" width="16.33" height="15.32" rx="3.2" transform="translate(1551.41 60.11) rotate(110.95)"/><path class="cls-13" d="M752.45,517.88l2.22,3a6.35,6.35,0,0,1-1.29,8.84l-2.16,1.61a6.33,6.33,0,0,1-8.83-1.29l-2.22-3a6.35,6.35,0,0,1,1.29-8.84l2.16-1.6A6.32,6.32,0,0,1,752.45,517.88Z"/><rect class="cls-13" x="697.96" y="497.45" width="16.33" height="15.32" rx="3.2" transform="translate(1394.44 1034.24) rotate(-178.03)"/><path class="cls-13" d="M678.32,527.62,676,530.51a7.68,7.68,0,0,1-10.76,1.26h0A7.69,7.69,0,0,1,664,521l2.29-2.89a7.69,7.69,0,0,1,10.76-1.26h0A7.69,7.69,0,0,1,678.32,527.62Z"/><path class="cls-14" d="M761.33,552.25a52,52,0,1,1-52-52A52,52,0,0,1,761.33,552.25Z"/><path class="cls-15" d="M709.34,582.68a52,52,0,0,1-50.87-41.21,52,52,0,1,0,102.86,10.78,51.67,51.67,0,0,0-1.13-10.78A52,52,0,0,1,709.34,582.68Z"/><path class="cls-16" d="M696.82,522.31c.88,2.12-.94,4.89-4.07,6.19s-6.38.64-7.26-1.47.94-4.89,4.07-6.19S695.94,520.2,696.82,522.31Z"/><path class="cls-16" d="M683.43,528.92c-1.33-3.19,1.41-7.37,6.13-9.33,3.49-1.45,7.07-1.28,9.24.19-2-2.08-6.08-2.53-10-.88-4.72,2-7.46,6.14-6.14,9.33a4.58,4.58,0,0,0,1.71,2A4.25,4.25,0,0,1,683.43,528.92Z"/><path class="cls-15" d="M696.82,522.31a3,3,0,0,0-1-1.27c.6,2.07-1.19,4.64-4.18,5.88-2.36,1-4.8.85-6.22-.19,0,.1.06.2.1.3.88,2.11,4.13,2.77,7.26,1.47S697.7,524.43,696.82,522.31Z"/><path class="cls-16" d="M714.72,510.34c.14,1.26-1.57,2.48-3.83,2.73s-4.2-.57-4.33-1.83,1.57-2.49,3.82-2.74S714.58,509.08,714.72,510.34Z"/><path class="cls-16" d="M725.46,529c-1-.58-1.19-2.13-.52-3.62a4.21,4.21,0,0,0-.28.41c-.93,1.61-.79,3.43.31,4.06s2.74-.15,3.67-1.76c.09-.15.15-.3.22-.44C727.91,529,726.46,529.56,725.46,529Z"/><path class="cls-15" d="M705,511.87c-.22-2,2.52-4,6.13-4.38a10.33,10.33,0,0,1,4.13.34,9.44,9.44,0,0,0-5-.7c-3.61.4-6.35,2.36-6.13,4.38.13,1.17,1.22,2.09,2.81,2.6A3,3,0,0,1,705,511.87Z"/><path class="cls-15" d="M714.72,510.34c-.12-1.09-1.59-1.85-3.44-1.88,1,.31,1.72.9,1.81,1.64.13,1.26-1.58,2.49-3.84,2.74-.3,0-.6,0-.89,0a6.27,6.27,0,0,0,2.53.19C713.15,512.82,714.86,511.6,714.72,510.34Z"/><path class="cls-16" d="M671.57,541.11c1.94,1.22,2.09,4.49.32,7.31s-4.77,4.13-6.71,2.92-2.09-4.49-.32-7.31S669.63,539.9,671.57,541.11Z"/><path class="cls-15" d="M672.69,539.66c2.08,1.3,2.51,4.46,1.24,7.55,1.78-3.11,1.55-6.6-.56-7.92a4.12,4.12,0,0,0-3.87-.06A4.12,4.12,0,0,1,672.69,539.66Z"/><path class="cls-15" d="M663.87,552.42c-2.66-1.66-3-5.93-1-9.87-.21.28-.42.58-.62.9-2.61,4.18-2.4,9,.48,10.83s7.33-.14,9.94-4.32a10,10,0,0,0,.54-1C670.53,552.55,666.53,554.08,663.87,552.42Z"/><path class="cls-15" d="M671.57,541.11c-1.94-1.21-5,.09-6.71,2.92a8.6,8.6,0,0,0-.69,1.35c1.77-2,4.16-2.74,5.8-1.71s2,3.51,1,6a8,8,0,0,0,.91-1.21C673.66,545.6,673.51,542.33,671.57,541.11Z"/><path class="cls-16" d="M686.75,561.8c4.21,2.63,5.88,7.55,3.73,11s-7.3,4.09-11.51,1.46-5.88-7.55-3.73-11S682.54,559.17,686.75,561.8Z"/><path class="cls-15" d="M675.24,568.09c2.15-3.44,7.3-4.1,11.51-1.47a10.06,10.06,0,0,1,4.23,5.14c1.3-3.33-.42-7.58-4.23-10-4.21-2.63-9.36-2-11.51,1.46a6.77,6.77,0,0,0-.5,5.85A6.87,6.87,0,0,1,675.24,568.09Z"/><path class="cls-15" d="M695.47,569a9.08,9.08,0,0,1-1.16,4.93c-2.9,5-10.23,6.21-16.37,2.67a14.2,14.2,0,0,1-6.59-8c.18,4,2.75,8.1,7,10.58,6.14,3.54,13.47,2.35,16.37-2.67A9.43,9.43,0,0,0,695.47,569Z"/><path class="cls-15" d="M690.66,591.38c1.65-2.64,6-2.87,9.8-.52a8.92,8.92,0,0,1,4.42,6.26c.21-2.43-1.47-5.32-4.42-7.16-3.76-2.35-8.15-2.12-9.8.52a4.4,4.4,0,0,0-.6,2.77A4.25,4.25,0,0,1,690.66,591.38Z"/><path class="cls-15" d="M702.27,595a3,3,0,0,1-.38,1.05c-1.21,1.94-4.44,2.11-7.2.38a7.36,7.36,0,0,1-2.88-3.19c-.35,1.85.88,4.16,3.2,5.6,2.76,1.73,6,1.56,7.2-.38A3.67,3.67,0,0,0,702.27,595Z"/><path class="cls-16" d="M736.54,562.43c6.3,3.93,8.56,11.69,5,17.32s-11.47,7-17.77,3.06-8.56-11.69-5-17.32S730.24,558.49,736.54,562.43Z"/><path class="cls-15" d="M722.28,572.53c3.52-5.63,11.47-7,17.78-3.06a14.68,14.68,0,0,1,3,2.49,14,14,0,0,0-6.53-9.53c-6.3-3.94-14.26-2.57-17.77,3.06-2.88,4.6-1.89,10.63,2,14.83A11.15,11.15,0,0,1,722.28,572.53Z"/><path class="cls-15" d="M746.66,570.4a17.74,17.74,0,0,1-2.74,9.62c-5.09,8.16-15.56,10.81-23.37,5.93a16.25,16.25,0,0,1-7.26-10.41,16.46,16.46,0,0,0,7.66,14c7.81,4.89,18.27,2.23,23.37-5.92A17.72,17.72,0,0,0,746.66,570.4Z"/><path class="cls-16" d="M698.23,546.52c-.37,1.05-1.9,1.47-3.43.94s-2.46-1.81-2.1-2.86,1.9-1.47,3.42-.94S698.59,545.47,698.23,546.52Z"/><path class="cls-15" d="M698.91,544.8a2.2,2.2,0,0,1,.19,1.76c-.49,1.43-2.57,2-4.64,1.28a5.09,5.09,0,0,1-2.25-1.51,4.67,4.67,0,0,0,2.65,2.11c2.07.72,4.15.15,4.64-1.28A2.45,2.45,0,0,0,698.91,544.8Z"/><path class="cls-15" d="M693.42,545.34c.36-1.05,1.9-1.47,3.42-.94a3.73,3.73,0,0,1,1.1.59,3.57,3.57,0,0,0-1.82-1.33c-1.52-.53-3-.11-3.42.94a2.14,2.14,0,0,0,1,2.27A1.72,1.72,0,0,1,693.42,545.34Z"/><path class="cls-15" d="M721.34,542.88a2.57,2.57,0,0,0-2.8.59,2.89,2.89,0,0,1,1.47.13,2.41,2.41,0,0,1,1.74,2.89,1.77,1.77,0,0,1-.34.6,2.09,2.09,0,0,0,1.67-1.32A2.41,2.41,0,0,0,721.34,542.88Z"/><path class="cls-15" d="M720.57,547.88c-2.76-.76-4.49-3.25-3.85-5.56a3.54,3.54,0,0,1,.52-1.11,3.82,3.82,0,0,0-1.56,2.15c-.64,2.31,1.09,4.8,3.86,5.56a5.14,5.14,0,0,0,5.6-1.69A5.55,5.55,0,0,1,720.57,547.88Z"/><path class="cls-15" d="M748.36,546.84a1.82,1.82,0,0,1-.4,1.23,1.56,1.56,0,0,1-2.13.46,1.12,1.12,0,0,1-.28-.33,1.23,1.23,0,0,0,.45.9,1.55,1.55,0,0,0,2.13-.45A1.68,1.68,0,0,0,748.36,546.84Z"/><path class="cls-15" d="M725.88,525.5a1.64,1.64,0,0,1,2.29.3,1.32,1.32,0,0,1,.12,1.15,1.49,1.49,0,0,0,.18-1.73,1.64,1.64,0,0,0-2.28-.3,2,2,0,0,0-.81,1.05A2,2,0,0,1,725.88,525.5Z"/><path class="cls-15" d="M748,532.2a1.65,1.65,0,0,0-2.13-.88,1.94,1.94,0,0,0-1,.65,2.1,2.1,0,0,1,.58-.29,1.65,1.65,0,0,1,2.13.88,1.4,1.4,0,0,1-.3,1.29A1.51,1.51,0,0,0,748,532.2Z"/><path class="cls-15" d="M727.58,515.65c.22-1,1.93-1.58,3.83-1.2a6.4,6.4,0,0,1,1.4.47,4.88,4.88,0,0,0-2.65-1.38c-1.9-.39-3.61.15-3.83,1.19-.15.77.54,1.6,1.67,2.14A1.48,1.48,0,0,1,727.58,515.65Z"/><path class="cls-15" d="M665.9,573.65c-1.41-3-3.62-4.9-4.9-4.26a1.25,1.25,0,0,0-.41.39c.86.29,2.6,2,3.85,4.61a9.3,9.3,0,0,1,.82,5.81,1.15,1.15,0,0,0,.87-.06C667.42,579.52,667.32,576.62,665.9,573.65Z"/><path class="cls-12" d="M664.42,574.35c1.37,2.87,1.9,5.49,1.17,5.83s-2.43-1.7-3.8-4.58-1.9-5.49-1.17-5.83S663.05,571.47,664.42,574.35Z"/><path class="cls-15" d="M664.42,574.35c-.13-.28-.27-.55-.41-.81,1.08,2.53,1.45,4.69.8,5s-2.11-1.34-3.39-3.77c.11.27.23.54.37.82,1.37,2.88,3.07,4.93,3.8,4.58S665.79,577.22,664.42,574.35Z"/><path class="cls-15" d="M747.15,534.58a2.51,2.51,0,0,1-3.26-1.36,2.16,2.16,0,0,1,.38-2,2.31,2.31,0,0,0-.89,2.51,2.51,2.51,0,0,0,3.26,1.36,2.89,2.89,0,0,0,1.46-1A3,3,0,0,1,747.15,534.58Z"/><path class="cls-17" d="M1293.66,185.05a32,32,0,1,1-40.06-21.16A32,32,0,0,1,1293.66,185.05Z"/><path class="cls-18" d="M1268.9,213.85a28.81,28.81,0,0,1,7.14-2.21c1.21-.16,2.7,0,3.25,1.08a2.26,2.26,0,0,1-.64,2.56,6.65,6.65,0,0,1-2.49,1.29l-10.86,3.78c-2.22.77-6.49,1.34-4-2C1263,216.08,1266.39,214.88,1268.9,213.85Z"/><path class="cls-19" d="M1241.13,214c9.7-7,19.54-14.64,31.27-17,7.5-1.51,16-1,22.66-4a31.79,31.79,0,0,0-1.4-8,29.78,29.78,0,0,0-1-2.88l-8.27,3.19c-2,.79-4.19,1.59-6.37,1.35s-4.37-1.9-4.42-4.1a6.3,6.3,0,0,1,1-3,34.19,34.19,0,0,1,8.41-10.16l0,0a32.19,32.19,0,0,0-7.54-4.45,24,24,0,0,0-4.07,3.66c-5.74,6.54-7.79,16-14.51,21.53-5.12,4.22-12.09,5.39-17.76,8.83a25.22,25.22,0,0,0-6.42,5.63,31.77,31.77,0,0,0,6.25,11C1239.67,215.08,1240.41,214.56,1241.13,214Z"/><path class="cls-18" d="M1240.89,194.6c1.75-.82,3.56-1.48,5.31-2.26a38.21,38.21,0,0,0,14.27-11.13,4.6,4.6,0,0,0,1-1.88c.34-1.68-1.21-3.27-2.89-3.59a8.78,8.78,0,0,0-5,.93,96.59,96.59,0,0,0-22.29,13.1,31.67,31.67,0,0,0,.28,11C1234.91,198.87,1238.31,195.81,1240.89,194.6Z"/><path class="cls-18" d="M1260.42,169.09a1.9,1.9,0,0,0,1.1,1.37,3.77,3.77,0,0,0,3.79-.55,10.06,10.06,0,0,0,2.5-3.13c.48-.81,1.91-2.14,2.93-3.38a31.7,31.7,0,0,0-5.6-.87,24.15,24.15,0,0,0-4.19,4.9A2.55,2.55,0,0,0,1260.42,169.09Z"/><path class="cls-19" d="M1284.29,199.37c-8,1.06-16.39,1.41-23.54,5.18-4.3,2.27-7.89,5.65-11.41,9l-5.53,5.22c-.17.16-.48.41-.85.71a32.14,32.14,0,0,0,7.62,4.54c3.54-2.21,5.85-6.23,9.08-9,2.81-2.44,6.31-3.92,9.79-5.26q7.44-2.86,15.12-5.1a85.67,85.67,0,0,0,9.76-3.21,32.8,32.8,0,0,0,.63-3.95Q1289.67,198.65,1284.29,199.37Z"/><path class="cls-18" d="M1233.62,181.86c2-.1,4.33-1.92,5.71-2.67a85.81,85.81,0,0,0,16.53-11.68,9.37,9.37,0,0,0,3.3-4.81,32.47,32.47,0,0,0-5.56,1.19A32,32,0,0,0,1233.62,181.86Z"/><path class="cls-20" d="M1287.56,173.88a32,32,0,0,1-55.71,27.85,32,32,0,1,0,55.71-27.85Z"/><path class="cls-21" d="M1308.14,481.47,1269,446.75a8.24,8.24,0,0,0-11.64.7l-9.8,11.06a8.25,8.25,0,0,0,.7,11.65l39.17,34.72Z"/><path class="cls-22" d="M1254.2,451.2a8.24,8.24,0,0,1,11.64-.7l39.06,34.62,3.24-3.65L1269,446.75a8.24,8.24,0,0,0-11.64.7l-9.8,11.06a8,8,0,0,0-.89,1.23Z"/><polygon class="cls-23" points="1297.48 493.5 1297.48 493.5 1287.39 504.88 1302.45 510.48 1308.69 503.43 1308.69 503.43 1314.94 496.39 1308.14 481.47 1297.48 493.5"/><rect class="cls-24" x="1301.09" y="502.63" width="18.81" height="4.82" transform="translate(63.26 1150.69) rotate(-48.45)"/><polygon class="cls-23" points="1329.22 503.77 1318.54 499.6 1312.6 506.29 1312.3 506.63 1306.06 513.68 1311.48 523.77 1320.35 513.78 1320.14 513.58 1320.35 513.77 1329.22 503.77"/><g class="cls-25"><polygon class="cls-26" points="1294.27 497.14 1294.27 497.14 1304.93 485.12 1311.67 499.91 1315.32 503.25 1315.33 503.24 1325.99 507.41 1329.22 503.77 1318.54 499.6 1318.53 499.6 1314.88 496.26 1308.14 481.47 1297.48 493.5 1297.48 493.5 1287.39 504.88 1287.41 504.88 1294.27 497.14"/><polygon class="cls-26" points="1316.93 517.22 1317.12 517.41 1317.13 517.4 1316.93 517.22"/></g><path class="cls-24" d="M1275.84,448.86a2.09,2.09,0,0,1,.18,2.95l-22,24.83a2.09,2.09,0,0,1-3,.17h0a2.1,2.1,0,0,1-.18-2.95l22-24.83a2.09,2.09,0,0,1,2.95-.17Z"/><path class="cls-22" d="M1275.84,448.86a2.06,2.06,0,0,0-2.09-.38,2,2,0,0,1,.51.3,2.09,2.09,0,0,1,.18,3l-22,24.83a2,2,0,0,1-.85.55,2.05,2.05,0,0,0,2.43-.47l22-24.83A2.09,2.09,0,0,0,1275.84,448.86Z"/><path class="cls-27" d="M1278.14,506a.73.73,0,0,1,.15,1l-27.65,31.2a.73.73,0,0,1-1,0l-24.39-21.62a.73.73,0,0,1-.15-1l27.65-31.19a.72.72,0,0,1,1,0Z"/><line class="cls-27" x1="1229.23" y1="520.15" x2="1257.75" y2="487.97"/><line class="cls-27" x1="1234.3" y1="524.64" x2="1262.82" y2="492.47"/><line class="cls-27" x1="1239.37" y1="529.13" x2="1267.89" y2="496.96"/><line class="cls-27" x1="1244.44" y1="533.63" x2="1272.96" y2="501.45"/><line class="cls-27" x1="1229.49" y1="510.61" x2="1255.05" y2="533.27"/><line class="cls-27" x1="1234.24" y1="505.26" x2="1259.8" y2="527.92"/><line class="cls-27" x1="1238.98" y1="499.91" x2="1264.54" y2="522.56"/><line class="cls-27" x1="1243.73" y1="494.55" x2="1269.29" y2="517.21"/><line class="cls-27" x1="1248.47" y1="489.2" x2="1274.03" y2="511.85"/><line class="cls-27" x1="1264.79" y1="494.22" x2="1269.44" y2="488.97"/><path class="cls-27" d="M1308.18,472.14a.72.72,0,0,0,1,0l27.65-31.2a.72.72,0,0,0-.15-1l-24.39-21.62a.73.73,0,0,0-1,0l-27.65,31.2a.73.73,0,0,0,.15,1Z"/><line class="cls-27" x1="1316.31" y1="421.9" x2="1287.79" y2="454.07"/><line class="cls-27" x1="1321.38" y1="426.39" x2="1292.86" y2="458.57"/><line class="cls-27" x1="1326.45" y1="430.89" x2="1297.93" y2="463.06"/><line class="cls-27" x1="1331.52" y1="435.38" x2="1303" y2="467.55"/><line class="cls-27" x1="1306.88" y1="423.3" x2="1332.44" y2="445.95"/><line class="cls-27" x1="1302.13" y1="428.65" x2="1327.69" y2="451.31"/><line class="cls-27" x1="1297.39" y1="434.01" x2="1322.95" y2="456.66"/><line class="cls-27" x1="1292.64" y1="439.36" x2="1318.2" y2="462.02"/><line class="cls-27" x1="1287.9" y1="444.72" x2="1313.45" y2="467.37"/><line class="cls-27" x1="1294.84" y1="460.32" x2="1290.19" y2="465.56"/><line class="cls-28" x1="1320.35" y1="513.77" x2="1327.96" y2="520.51"/><path class="cls-24" d="M1329,517.87a2.65,2.65,0,1,1-3.74.23A2.66,2.66,0,0,1,1329,517.87Z"/><path class="cls-22" d="M1329,517.87a2.63,2.63,0,0,0-2-.64,2.63,2.63,0,0,1,.4.28,2.67,2.67,0,0,1,.22,3.75,2.61,2.61,0,0,1-1.72.87,2.65,2.65,0,0,0,3.12-4.26Z"/><path class="cls-29" d="M1275.31,487.23a.88.88,0,0,1,.08,1.26h0a.89.89,0,0,1-1.26.08l-13.39-11.86a.9.9,0,0,1-.07-1.27h0a.89.89,0,0,1,1.26-.07Z"/></g><path class="cls-30" d="M1003.94,162.63s22.11,19.14,21.93,40c-.17,18-16.93,22.86-27.77,21.14a5.63,5.63,0,0,1-4.68-5.9l.29-5.05a5.62,5.62,0,0,1,5.44-5.33c3.57-.09,7.88-1.12,9-5.42s-7-14.78-10.15-18.71c-.81-1-1.44-6-1.27-7.27C997.3,171.7,999.41,165.34,1003.94,162.63Z"/><path class="cls-31" d="M992.57,212.93l-14.88.91-5.2,6.39a1.72,1.72,0,0,0,1.2,2.8,11.42,11.42,0,0,0,6.63-1.27c4.19-2.45,13.13,1,16.15-3.26S992.57,212.93,992.57,212.93Z"/><path class="cls-32" d="M987.73,215.75l-8.49,1.37s.13,1.46,2.91,1.53,6.1,1.85,7.73.59S990.27,216,987.73,215.75Z"/><path class="cls-33" d="M1007.06,191s-10-7-12.27-9.31-.67-9.41,4.53-7.37S1007.06,191,1007.06,191Z"/><path class="cls-34" d="M1092.32,276.36c.09.41,25,5.45,27.88,6.59s10.46,17.2,11.55,22.28-.59,7.46-5.11,3.95-13.7-15.24-13.7-15.24-19.73-1.17-25.14,0S1092.32,276.36,1092.32,276.36Z"/><path class="cls-35" d="M1039.84,213c.81,0,13.46,8,11.58,21.51s-2.92,47.26,24.16,57.43,32.57-7.65,28.2-12.66c-3.35-3.84-20.53-3.21-25.57-14.84-1.54-3.54.42-9.67,1.45-14.72a232.7,232.7,0,0,1,10-35.67Z"/><path class="cls-36" d="M1133.05,241.7s-2.91,10.58-5.42,15.09c0,0,10.72,3.06,19.77,1.59,0,0,8.52,10.95,17.57,13.62a3.39,3.39,0,0,0,4-4.63c-2.28-5.2-6.19-13.29-10.41-18.31C1152,241.18,1145.53,244.69,1133.05,241.7Z"/><path class="cls-37" d="M1032.38,147.57s-11.51,3-22.76,6.4a19,19,0,0,0-10.56,28.32c7.09,11.1,21.06,24.79,48.49,37.25,4.48,2,17.75.42,21.12.85,6.75.87,15.55,23.71,26.7,32.28,8.88,6.82,37.3,8.54,43.08,7.24,6.83-1.53,11.06-19.31-2.09-20.93-3.68-.45-11.33-.08-22.37-3.5-8-2.48-15.71-32-27.7-40.36-10.2-7.13-23.29-13-34.6-24.85Z"/><path class="cls-38" d="M1091,244.91c4.64.08,13.14,1.46,16,10a1.92,1.92,0,0,1-2.15,2.48c-4-.73-11.29-2.94-15.51-9.55A1.91,1.91,0,0,1,1091,244.91Z"/><path class="cls-39" d="M1059.54,276.22c4.77-.6,14.64-.35,13.88,12.31a2,2,0,0,1-2.79,1.64c-3.4-1.6-9.41-5.12-12.55-11.08A2,2,0,0,1,1059.54,276.22Z"/><path class="cls-40" d="M1032.38,147.57s28.94-4.28,44.62,9.47c13.51,11.85,6.27,27.74-2.1,34.84a5.61,5.61,0,0,1-7.52-.31l-3.64-3.52a5.63,5.63,0,0,1-.5-7.6c2.27-2.75,4.3-6.7,1.75-10.33s-15.76-4.34-20.8-4.51a4.7,4.7,0,0,1-3.34-1.57C1037.92,160.73,1031.48,152.76,1032.38,147.57Z"/><path class="cls-41" d="M1042.14,165.14s-12.37-7.76-12.91-18.48,9.48.19,9.48.19S1029.27,147.57,1042.14,165.14Z"/><path class="cls-42" d="M1065.66,185.3l-14.88.91-5.19,6.39a1.72,1.72,0,0,0,1.19,2.8,11.44,11.44,0,0,0,6.64-1.27c4.19-2.45,13.13,1,16.14-3.26S1065.66,185.3,1065.66,185.3Z"/><path class="cls-43" d="M999.43,171.25A45.32,45.32,0,0,0,1014.94,195a4.08,4.08,0,0,0,4.83.15l8.49-5.84a4.07,4.07,0,0,0,.6-6.2c-5.48-5.59-15.5-16.82-15.12-23.89C1013.74,159.26,999.18,170.75,999.43,171.25Z"/><path class="cls-44" d="M971.74,164.55c10.6,10.71,28.21,10.47,39.32-.53s11.52-28.61.92-39.31-27.48-9.69-39.32.53C956.94,138.81,961.14,153.84,971.74,164.55Z"/><path class="cls-2" d="M991,133c9.65.92,17.26,9.58,15.61,22.64-.94,7.47-9,13.23-15.67,16.8a26.71,26.71,0,0,1-19.23-7.88c-6.07-6.13-10-13.68-9.37-21.57C970.13,138.52,982.77,132.21,991,133Z"/><g class="cls-45"><path class="cls-46" d="M993.12,147.68c.15.17,12.24,4,16,6.28a3.23,3.23,0,0,1,1.57,3c-.22,2.56-1.47,6.84-7,9.38a3.15,3.15,0,0,1-3.52-.63l-13.68-9.22Z"/><path class="cls-47" d="M974.74,143.39c0,.3,5.35,19.56,5.35,19.56l10.93-3.3-2.38-19S975.1,138.33,974.74,143.39Z"/><path class="cls-48" d="M986.44,145.06l2,9.92a1.2,1.2,0,0,1,0,.38c-.06.79-.45,3.5-3.2,2.93-2.5-.52-4.78-1-6.3-.37a1.4,1.4,0,0,0-.85,1.7,61,61,0,0,0,3.2,8.92,1.4,1.4,0,0,0,1.77.71,45.23,45.23,0,0,0,9.51-4.7,1.41,1.41,0,0,0,.6-1.32c-.29-2.52-1.13-10.17-1-12.34s2.48-3.43,3.53-3.94a1.34,1.34,0,0,0,.71-.83c.41-1.28.9-4.22-2.83-5.15a1.42,1.42,0,0,1-1-1.76c.44-1.54.5-3.85-2.41-4.92a5.18,5.18,0,0,0-6.06,1.93,1.41,1.41,0,0,1-1.78.33,1.13,1.13,0,0,0-1.27.14,1.38,1.38,0,0,1-2-.46,4.23,4.23,0,0,0-5.07-2.09c-4.92,1.21-5.09,6.77-3.55,9.91s6.8,1.53,9.37-.3c1.95-1.38,4.69-.27,5.89.34A1.41,1.41,0,0,1,986.44,145.06Z"/><path class="cls-49" d="M992.37,154.53s-1.91-5.61.09-7.17,4.59-.78,4.2,3.42C996.17,156,992.37,154.53,992.37,154.53Z"/></g><path class="cls-50" d="M990.89,173.65a1.24,1.24,0,0,0,.68-.13c6.88-3.67,15.28-9.71,16.29-17.7.85-6.74-.66-12.9-4.26-17.37a18.11,18.11,0,0,0-12.46-6.68h0c-8.32-.79-20.57,5.08-29.37,10.14a1.22,1.22,0,0,0-.42,1.68,1.25,1.25,0,0,0,1.69.46c7-4,19.84-10.6,27.93-9.83h0A15.6,15.6,0,0,1,1001.7,140c3.16,3.93,4.48,9.43,3.72,15.48-.88,7-8.67,12.5-15,15.9a1.21,1.21,0,0,0-.47,1.66A1.28,1.28,0,0,0,990.89,173.65Z"/><path class="cls-51" d="M985.35,168.25a29.15,29.15,0,0,1-18.1-18.59,4.63,4.63,0,0,1,1.78-5.27,29.52,29.52,0,0,1,10.05-4.16,4.88,4.88,0,0,1,5.83,5.73c-1.62,7.37-1.36,14.42,1.63,21A1,1,0,0,1,985.35,168.25Z"/><path class="cls-52" d="M587.07,476.14l2-1.78a.46.46,0,0,1,.65,0,.47.47,0,0,1,0,.66h0l-2.05,1.74h0a.44.44,0,0,1-.63-.05A.45.45,0,0,1,587.07,476.14Z"/><path class="cls-52" d="M594.07,470.43l2.2-1.59a.52.52,0,1,1,.61.85h0l-2.19,1.54h0a.51.51,0,1,1-.59-.82Z"/><path class="cls-52" d="M601.56,465.38,603.9,464a.58.58,0,0,1,.79.21.58.58,0,0,1-.2.79h0l-2.33,1.34h0a.57.57,0,0,1-.77-.21A.56.56,0,0,1,601.56,465.38Z"/><path class="cls-52" d="M609.48,461l2.44-1.17a.63.63,0,1,1,.55,1.14h0L610,462.12h0a.62.62,0,0,1-.82-.3A.61.61,0,0,1,609.48,461Z"/><path class="cls-52" d="M617.74,457.33l2.53-1a.69.69,0,0,1,.49,1.29h0l-2.52.93h0a.67.67,0,1,1-.47-1.26Z"/><path class="cls-52" d="M626.27,454.34l2.6-.77a.73.73,0,0,1,.41,1.4h0l-2.58.74h0a.73.73,0,0,1-.89-.5A.71.71,0,0,1,626.27,454.34Z"/><path class="cls-52" d="M635,452l2.65-.58a.77.77,0,0,1,.33,1.51h0l-2.63.55h0A.76.76,0,0,1,635,452Z"/><path class="cls-52" d="M643.88,450.28l2.68-.4a.83.83,0,0,1,.93.69.82.82,0,0,1-.69.92h0l-2.66.37h0a.8.8,0,0,1-.23-1.59Z"/><path class="cls-52" d="M652.85,449.16l2.71-.22a.85.85,0,0,1,.14,1.7h0l-2.67.2h0a.84.84,0,0,1-.13-1.68Z"/><path class="cls-52" d="M661.88,448.6l2.71-.06a.9.9,0,1,1,0,1.79h0l-2.68,0h0a.89.89,0,1,1,0-1.77Z"/><path class="cls-52" d="M670.92,448.58l2.71.09a.94.94,0,1,1-.06,1.88h0l-2.68-.12h0a.93.93,0,1,1,.07-1.85Z"/><path class="cls-52" d="M680,449.07l2.7.24a1,1,0,0,1,.89,1.07,1,1,0,0,1-1.06.88h0l-2.66-.26h0a1,1,0,0,1-.87-1.06A1,1,0,0,1,680,449.07Z"/><path class="cls-52" d="M688.94,450.05l2.69.38a1,1,0,0,1-.29,2h0l-2.65-.4h0a1,1,0,1,1,.29-2Z"/><path class="cls-52" d="M697.87,451.5l2.66.52a1.06,1.06,0,0,1-.41,2.09h0l-2.63-.54h0a1.05,1.05,0,0,1,.42-2.06Z"/><path class="cls-52" d="M706.71,453.41l2.64.66a1.1,1.1,0,0,1-.54,2.14h0l-2.59-.68h0a1.09,1.09,0,0,1,.54-2.11Z"/><path class="cls-52" d="M715.45,455.77l2.59.79a1.15,1.15,0,0,1-.67,2.2h0l-2.56-.81h0a1.13,1.13,0,0,1,.68-2.16Z"/><path class="cls-52" d="M724.05,458.55l2.56.9a1.19,1.19,0,0,1,.72,1.52,1.17,1.17,0,0,1-1.51.72h0l-2.52-.91h0a1.17,1.17,0,1,1,.79-2.21Z"/><path class="cls-52" d="M732.53,461.69l2.52,1a1.22,1.22,0,0,1-.91,2.26h0l-2.49-1h0a1.2,1.2,0,1,1,.9-2.23Z"/><path class="cls-52" d="M740.88,465.14l2.48,1.1a1.24,1.24,0,0,1-1,2.26h0l-2.45-1.1h0a1.22,1.22,0,0,1-.63-1.62A1.25,1.25,0,0,1,740.88,465.14Z"/><path class="cls-52" d="M749.1,468.88l2.44,1.17a1.26,1.26,0,0,1-1.09,2.28h0L748,471.15h0a1.26,1.26,0,0,1,1.1-2.26Z"/><path class="cls-52" d="M757.2,472.87l2.4,1.24a1.29,1.29,0,1,1-1.18,2.29h0L756,475.15h0a1.29,1.29,0,0,1,1.19-2.28Z"/><path class="cls-52" d="M765.18,477.08l2.37,1.3a1.31,1.31,0,0,1,.53,1.78,1.33,1.33,0,0,1-1.79.53h0l-2.35-1.31h0a1.31,1.31,0,0,1,1.26-2.29Z"/><path class="cls-52" d="M773.06,481.47l2.34,1.36a1.34,1.34,0,1,1-1.34,2.32h0l-2.33-1.35h0a1.34,1.34,0,0,1,1.34-2.31Z"/><path class="cls-52" d="M780.84,486l2.31,1.4a1.37,1.37,0,1,1-1.41,2.34h0l-2.3-1.4h0a1.36,1.36,0,0,1,1.41-2.33Z"/><path class="cls-52" d="M788.53,490.73l2.3,1.42a1.4,1.4,0,0,1-1.48,2.37h0l-2.27-1.43h0a1.38,1.38,0,0,1,1.47-2.34Z"/><path class="cls-52" d="M796.16,495.52l2.27,1.46a1.42,1.42,0,1,1-1.53,2.39h0l-2.26-1.46h0a1.41,1.41,0,0,1,1.53-2.38Z"/><path class="cls-52" d="M803.72,500.41l2.27,1.47a1.45,1.45,0,1,1-1.58,2.42h0l-2.25-1.49a1.43,1.43,0,0,1,1.57-2.4Z"/><path class="cls-52" d="M811.25,505.35l2.26,1.49a1.47,1.47,0,0,1-1.62,2.45h0l-2.25-1.5a1.46,1.46,0,0,1,1.62-2.43Z"/><path class="cls-52" d="M818.75,510.32l2.25,1.5a1.49,1.49,0,1,1-1.65,2.49h0l-2.24-1.51a1.49,1.49,0,0,1,1.65-2.47Z"/><path class="cls-52" d="M826.24,515.31l2.25,1.49a1.52,1.52,0,1,1-1.68,2.53h0l-2.24-1.51a1.51,1.51,0,0,1,1.68-2.51Z"/><path class="cls-52" d="M833.74,520.28l2.25,1.48a1.55,1.55,0,0,1-1.7,2.59h0l-2.25-1.5a1.54,1.54,0,0,1,1.71-2.56Z"/><path class="cls-52" d="M841.25,525.21l2.26,1.47a1.57,1.57,0,1,1-1.71,2.64h0l-2.26-1.48a1.57,1.57,0,0,1,1.72-2.62Z"/><path class="cls-52" d="M848.79,530.08l2.27,1.45h0a1.6,1.6,0,1,1-1.72,2.7h0l-2.27-1.46a1.59,1.59,0,0,1,1.72-2.68Z"/><path class="cls-52" d="M856.38,534.88l2.29,1.42h0a1.62,1.62,0,0,1-1.71,2.76h0l-2.29-1.44a1.61,1.61,0,0,1,1.71-2.74Z"/><path class="cls-52" d="M864,539.58l2.3,1.4h0a1.65,1.65,0,0,1-1.71,2.82h0l-2.3-1.41a1.64,1.64,0,0,1,1.7-2.8Z"/><path class="cls-52" d="M871.72,544.19l2.32,1.36h0a1.67,1.67,0,0,1-1.69,2.89h0L870,547.05a1.67,1.67,0,0,1,1.69-2.87Z"/><path class="cls-52" d="M879.48,548.67l2.34,1.32h0a1.69,1.69,0,0,1-1.67,3h0l-2.35-1.34a1.69,1.69,0,1,1,1.68-2.94Z"/><path class="cls-52" d="M887.31,553l2.36,1.28h0a1.71,1.71,0,0,1-1.63,3h0l-2.38-1.3a1.7,1.7,0,0,1,1.63-3Z"/><path class="cls-52" d="M895.21,557.25l2.39,1.24h0a1.72,1.72,0,0,1-1.58,3h0l-2.41-1.25a1.73,1.73,0,0,1-.73-2.31,1.71,1.71,0,0,1,2.31-.73Z"/><path class="cls-52" d="M903.19,561.3l2.42,1.18h0a1.72,1.72,0,1,1-1.52,3.09h0l-2.43-1.19a1.72,1.72,0,1,1,1.52-3.09Z"/><path class="cls-52" d="M911.27,565.17l2.44,1.12h0a1.73,1.73,0,1,1-1.45,3.14h0l-2.46-1.13a1.73,1.73,0,1,1,1.45-3.14Z"/><path class="cls-52" d="M919.43,568.84l2.47,1.06h0a1.74,1.74,0,0,1-1.37,3.2h0L918,572a1.74,1.74,0,0,1,1.38-3.19Z"/><path class="cls-52" d="M927.68,572.29l2.5,1h0a1.75,1.75,0,0,1-1.29,3.25h0l-2.52-1a1.74,1.74,0,0,1,1.29-3.24Z"/><path class="cls-52" d="M936,575.49l2.51.91h0a1.76,1.76,0,0,1-1.2,3.3h0l-2.55-.93a1.75,1.75,0,0,1,1.2-3.29Z"/><path class="cls-52" d="M944.46,578.44l2.54.83h0a1.77,1.77,0,0,1-1.09,3.36h0l-2.57-.85a1.76,1.76,0,1,1,1.1-3.35Z"/><path class="cls-52" d="M953,581.1l2.57.75h0a1.78,1.78,0,1,1-1,3.41h0L952,584.5a1.77,1.77,0,0,1,1-3.4Z"/><path class="cls-52" d="M961.58,583.47l2.6.65h0a1.78,1.78,0,0,1-.87,3.46h0l-2.63-.66a1.78,1.78,0,0,1,.87-3.45Z"/><path class="cls-52" d="M970.26,585.53l2.63.55h0a1.79,1.79,0,0,1-.74,3.51h0L969.5,589a1.79,1.79,0,0,1,.75-3.5Z"/><path class="cls-52" d="M979,587.23l2.64.44h0a1.8,1.8,0,0,1-.59,3.55h0l-2.68-.45a1.79,1.79,0,1,1,.59-3.54Z"/><path class="cls-52" d="M987.83,588.55l2.66.33h0a1.81,1.81,0,0,1-.43,3.59h0l-2.7-.34a1.8,1.8,0,0,1,.44-3.58Z"/><path class="cls-52" d="M996.7,589.49l2.66.2h0a1.82,1.82,0,1,1-.27,3.63h0l-2.71-.21a1.81,1.81,0,0,1,.28-3.61Z"/><path class="cls-52" d="M1005.59,590l2.67.09h0a1.82,1.82,0,0,1-.12,3.64h0l-2.72-.09a1.82,1.82,0,1,1,.12-3.64Z"/><path class="cls-52" d="M1014.5,590.17l2.67,0h0a1.84,1.84,0,0,1,0,3.67h0l-2.72,0a1.83,1.83,0,0,1,0-3.66Z"/><path class="cls-52" d="M1023.4,589.9l2.66-.17h0a1.84,1.84,0,0,1,.23,3.68h0l-2.72.16a1.84,1.84,0,0,1-.22-3.67Z"/><path class="cls-52" d="M1032.27,589.2l2.65-.29h0a1.85,1.85,0,0,1,.41,3.68h0l-2.71.3a1.85,1.85,0,1,1-.4-3.68Z"/><path class="cls-52" d="M1041.1,588.07l2.63-.43h0a1.86,1.86,0,0,1,.59,3.67h0l-2.69.43a1.85,1.85,0,1,1-.59-3.66Z"/><path class="cls-52" d="M1049.85,586.48l2.6-.57h0a1.86,1.86,0,0,1,.8,3.64h0l-2.66.58a1.86,1.86,0,1,1-.79-3.64Z"/><path class="cls-52" d="M1058.49,584.43l2.57-.71h0a1.87,1.87,0,1,1,1,3.61h0l-2.63.72a1.87,1.87,0,0,1-1-3.61Z"/><path class="cls-52" d="M1067,581.89l2.52-.86h0a1.88,1.88,0,0,1,1.21,3.57h0l-2.59.87a1.88,1.88,0,1,1-1.2-3.56Z"/><path class="cls-52" d="M1075.35,578.86l2.46-1h0a1.89,1.89,0,0,1,1.43,3.5h0l-2.53,1a1.89,1.89,0,1,1-1.42-3.5Z"/><path class="cls-52" d="M1083.49,575.33l2.39-1.16,0,0a1.9,1.9,0,1,1,1.66,3.42h0l-2.46,1.19a1.9,1.9,0,1,1-1.65-3.42Z"/><path class="cls-52" d="M1091.38,571.28l2.31-1.32,0,0a1.91,1.91,0,0,1,1.89,3.32h0l-2.38,1.35a1.9,1.9,0,0,1-1.87-3.31Z"/><path class="cls-52" d="M1099,566.72l2.22-1.47,0,0a1.92,1.92,0,1,1,2.12,3.19h0l-2.29,1.51a1.91,1.91,0,1,1-2.11-3.19Z"/><path class="cls-52" d="M1106.23,561.65l2.11-1.62,0,0a1.93,1.93,0,0,1,2.35,3.06h0l-2.17,1.66a1.92,1.92,0,0,1-2.34-3.05Z"/><path class="cls-52" d="M1113.12,556.09l2-1.76,0,0a1.92,1.92,0,1,1,2.55,2.87l-2,1.82a1.92,1.92,0,1,1-2.56-2.87h0Z"/><path class="cls-52" d="M1119.61,550.06l1.86-1.9,0,0a1.91,1.91,0,1,1,2.73,2.68l-1.92,1.95a1.91,1.91,0,1,1-2.73-2.68h0Z"/><path class="cls-52" d="M1125.67,543.6l1.74-2,0,0a1.91,1.91,0,0,1,2.89,2.49l-1.78,2.07a1.9,1.9,0,1,1-2.89-2.48h0Z"/><path class="cls-52" d="M1131.31,536.75l1.6-2.13,0,0a1.9,1.9,0,0,1,3,2.28l-1.64,2.18a1.9,1.9,0,0,1-3-2.28h0Z"/><path class="cls-52" d="M1136.5,529.56l1.48-2.22,0,0a1.89,1.89,0,0,1,3.15,2.08l-1.51,2.28a1.89,1.89,0,1,1-3.16-2.08h0Z"/><path class="cls-52" d="M1141.26,522.06l1.34-2.31,0,0a1.88,1.88,0,0,1,3.25,1.89L1144.5,524a1.88,1.88,0,0,1-3.26-1.89h0Z"/><path class="cls-52" d="M1145.58,514.29l1.21-2.37v0a1.87,1.87,0,1,1,3.34,1.7l-1.23,2.43a1.88,1.88,0,0,1-3.35-1.7h0Z"/><path class="cls-52" d="M1149.46,506.3l1.08-2.44v0a1.86,1.86,0,0,1,3.41,1.51l-1.1,2.5a1.86,1.86,0,0,1-3.41-1.51h0Z"/><path class="cls-52" d="M1152.91,498.1l.95-2.5v0a1.86,1.86,0,1,1,3.47,1.32l-1,2.55a1.86,1.86,0,1,1-3.47-1.32h0Z"/><path class="cls-52" d="M1155.93,489.73l.82-2.54v0a1.85,1.85,0,0,1,3.52,1.13l-.84,2.6a1.85,1.85,0,1,1-3.52-1.13h0Z"/><path class="cls-52" d="M1158.52,481.21l.69-2.58v0a1.84,1.84,0,0,1,3.56,1l-.71,2.63a1.84,1.84,0,1,1-3.56-.95h0Z"/><path class="cls-52" d="M1160.68,472.58l.57-2.61v0a1.83,1.83,0,1,1,3.58.78l-.58,2.66a1.81,1.81,0,0,1-2.17,1.4,1.84,1.84,0,0,1-1.41-2.18h0Z"/><path class="cls-52" d="M1162.44,463.84l.45-2.63v0a1.83,1.83,0,0,1,3.6.61l-.46,2.69a1.83,1.83,0,0,1-3.6-.61h0Z"/><path class="cls-52" d="M1163.8,455l.34-2.66v0a1.81,1.81,0,0,1,3.6.45l-.34,2.7a1.81,1.81,0,1,1-3.6-.45h0Z"/><path class="cls-52" d="M1164.79,446.17l.23-2.66v0a1.81,1.81,0,1,1,3.6.3l-.23,2.71a1.81,1.81,0,1,1-3.6-.3h0Z"/><path class="cls-52" d="M1165.42,437.28l.12-2.68v0a1.8,1.8,0,0,1,3.59.16l-.12,2.72a1.8,1.8,0,0,1-3.6-.16h0Z"/><path class="cls-52" d="M1165.72,428.36l0-2.68v0a1.79,1.79,0,1,1,3.58,0l0,2.71a1.8,1.8,0,0,1-1.81,1.78,1.77,1.77,0,0,1-1.77-1.8h0Z"/><path class="cls-52" d="M1165.69,419.43l-.07-2.68v0a1.79,1.79,0,0,1,3.57-.09l.07,2.71a1.79,1.79,0,0,1-3.57.1h0Z"/><path class="cls-52" d="M1165.37,410.5l-.16-2.67v0a1.77,1.77,0,1,1,3.54-.2l.16,2.71a1.77,1.77,0,1,1-3.54.2h0Z"/><path class="cls-52" d="M1164.76,401.59l-.23-2.68h0a1.77,1.77,0,0,1,3.52-.31l.24,2.7a1.77,1.77,0,0,1-3.52.32h0Z"/><path class="cls-52" d="M1163.89,392.68l-.31-2.66v0a1.76,1.76,0,1,1,3.49-.41l.32,2.7a1.76,1.76,0,0,1-3.5.41h0Z"/><path class="cls-52" d="M1162.78,383.81l-.38-2.66v0a1.75,1.75,0,0,1,3.47-.49l.39,2.68a1.75,1.75,0,0,1-3.47.5h0Z"/><path class="cls-52" d="M1161.43,375l-.44-2.64v0a1.74,1.74,0,0,1,3.44-.58l.45,2.68a1.74,1.74,0,1,1-3.44.58h0Z"/><path class="cls-52" d="M1159.88,366.14l-.51-2.64v0a1.74,1.74,0,0,1,3.41-.66l.52,2.67a1.74,1.74,0,0,1-3.41.66h0Z"/><path class="cls-52" d="M1158.11,357.36l-.58-2.62v0a1.73,1.73,0,0,1,3.37-.74l.58,2.65a1.73,1.73,0,1,1-3.37.75h0Z"/><path class="cls-52" d="M1156.12,348.64l-.64-2.61h0a1.72,1.72,0,0,1,3.34-.83l.65,2.64a1.72,1.72,0,1,1-3.34.82h0Z"/><path class="cls-52" d="M1153.9,340l-.71-2.59h0a1.71,1.71,0,0,1,3.3-.91l.72,2.61a1.71,1.71,0,0,1-3.3.92h0Z"/><path class="cls-52" d="M1151.44,331.37l-.79-2.56v0a1.7,1.7,0,0,1,3.25-1l.8,2.6a1.7,1.7,0,1,1-3.26,1h0Z"/><path class="cls-52" d="M1148.73,322.85l-.86-2.54h0a1.69,1.69,0,0,1,1.05-2.14,1.71,1.71,0,0,1,2.14,1l.88,2.57a1.69,1.69,0,0,1-3.2,1.1h0Z"/><path class="cls-52" d="M1145.78,314.42l-.94-2.52h0a1.66,1.66,0,0,1,3.11-1.17l1,2.54a1.66,1.66,0,1,1-3.11,1.18h0Z"/><path class="cls-52" d="M1142.55,306.08l-1-2.48h0a1.64,1.64,0,0,1,3-1.26l1,2.51a1.64,1.64,0,0,1-3,1.27h0Z"/><path class="cls-52" d="M1139.05,297.86l-1.11-2.44v0a1.61,1.61,0,1,1,2.93-1.33l1.13,2.46a1.62,1.62,0,1,1-2.93,1.36h0Z"/><path class="cls-52" d="M1135.25,289.77l-1.2-2.4h0a1.58,1.58,0,1,1,2.83-1.42l1.23,2.42a1.59,1.59,0,1,1-2.84,1.44h0Z"/><path class="cls-52" d="M1131.15,281.84l-1.28-2.35v0a1.56,1.56,0,0,1,2.73-1.5l1.32,2.37a1.57,1.57,0,1,1-2.74,1.52h0Z"/><path class="cls-52" d="M1126.75,274.07l-1.38-2.29v0a1.54,1.54,0,0,1,2.63-1.59l1.41,2.32a1.54,1.54,0,1,1-2.63,1.6h0Z"/><path class="cls-52" d="M1122,266.49l-1.47-2.23v0a1.51,1.51,0,0,1,2.51-1.67l1.51,2.26a1.51,1.51,0,1,1-2.52,1.68h0Z"/><path class="cls-52" d="M1117,259.12l-1.57-2.17v0a1.49,1.49,0,0,1,2.4-1.75l1.61,2.2a1.49,1.49,0,0,1-2.41,1.76h0Z"/><path class="cls-52" d="M1111.66,252l-1.67-2.09v0a1.46,1.46,0,1,1,2.28-1.82l1.7,2.11a1.47,1.47,0,1,1-2.28,1.85h0Z"/><path class="cls-52" d="M1106,245.1l-1.77-2v0a1.43,1.43,0,1,1,2.15-1.9l1.8,2a1.44,1.44,0,1,1-2.15,1.92h0Z"/><path class="cls-52" d="M1100,238.5l-1.86-1.92,0,0a1.41,1.41,0,0,1,2-2l1.91,1.94a1.42,1.42,0,1,1-2,2h0Z"/><path class="cls-52" d="M1093.65,232.21l-2-1.83v0a1.38,1.38,0,0,1,1.88-2l2,1.85a1.39,1.39,0,1,1-1.89,2h0Z"/><path class="cls-52" d="M1087,226.23l-2-1.73h0a1.36,1.36,0,0,1,1.75-2.08l2.09,1.74a1.37,1.37,0,0,1-1.76,2.1h0Z"/><path class="cls-52" d="M1080.1,220.6,1078,219h0a1.34,1.34,0,0,1,1.62-2.14l2.17,1.64a1.35,1.35,0,1,1-1.62,2.15h0Z"/><path class="cls-52" d="M1072.9,215.33l-2.21-1.51h0a1.31,1.31,0,0,1,1.47-2.17l2.26,1.52a1.32,1.32,0,1,1-1.47,2.19h0Z"/><path class="cls-52" d="M1065.43,210.45l-2.29-1.38h0a1.29,1.29,0,0,1,1.32-2.21l2.33,1.39a1.3,1.3,0,0,1-1.32,2.23h0Z"/><path class="cls-52" d="M1057.71,206l-2.36-1.25h0a1.26,1.26,0,0,1,1.17-2.24l2.41,1.26a1.27,1.27,0,1,1-1.17,2.25h0Z"/><path class="cls-52" d="M1049.75,202l-2.43-1.11h0a1.24,1.24,0,0,1,1-2.26l2.48,1.12a1.25,1.25,0,0,1-1,2.27h0Z"/><path class="cls-52" d="M1041.57,198.43l-2.5-1h0a1.21,1.21,0,0,1,.87-2.26l2.54,1a1.22,1.22,0,1,1-.87,2.28h0Z"/><path class="cls-52" d="M1033.19,195.39l-2.55-.81h0a1.18,1.18,0,1,1,.71-2.26l2.6.81a1.18,1.18,0,0,1,.78,1.49,1.19,1.19,0,0,1-1.49.79h0Z"/><path class="cls-52" d="M1024.63,192.87l-2.59-.64h0a1.15,1.15,0,0,1,.54-2.23l2.65.64a1.16,1.16,0,0,1-.54,2.25h0Z"/><path class="cls-52" d="M1015.94,190.92l-2.63-.48h0a1.11,1.11,0,0,1,.39-2.18l2.67.46a1.12,1.12,0,0,1,.92,1.29,1.11,1.11,0,0,1-1.29.91h0Z"/><path class="cls-52" d="M1007.13,189.55l-2.66-.29h0a1.08,1.08,0,0,1-1-1.18,1.06,1.06,0,0,1,1.17-.94l2.7.27a1.08,1.08,0,1,1-.21,2.14h0Z"/><path class="cls-52" d="M998.25,188.82l-2.68-.09h0a1,1,0,0,1-1-1.06,1,1,0,0,1,1.05-1l2.72.07a1,1,0,1,1-.05,2.07h0Z"/><path class="cls-52" d="M989.33,188.75l-2.68.1h0a1,1,0,0,1-1-.94,1,1,0,0,1,.94-1l2.71-.13a1,1,0,0,1,.1,2h0Z"/><path class="cls-52" d="M980.43,189.32l-2.66.29h0a.95.95,0,0,1-.22-1.88l2.7-.33a1,1,0,0,1,1.06.84,1,1,0,0,1-.83,1.06h0Z"/><path class="cls-52" d="M971.58,190.52,969,191h0a.91.91,0,0,1-.33-1.78l2.66-.51a.92.92,0,1,1,.35,1.8h0Z"/><path class="cls-52" d="M962.85,192.35l-2.6.67h0a.86.86,0,1,1-.44-1.67l2.62-.71a.88.88,0,0,1,.45,1.7h0Z"/><path class="cls-52" d="M954.26,194.8l-2.54.86h0a.82.82,0,0,1-.53-1.56l2.57-.89a.84.84,0,0,1,1.06.51.85.85,0,0,1-.51,1.07h0Z"/><path class="cls-52" d="M945.87,197.87l-2.47,1h0a.78.78,0,0,1-.62-1.44l2.5-1.08a.8.8,0,0,1,.63,1.46h0Z"/><path class="cls-52" d="M937.73,201.55l-2.38,1.23h0a.72.72,0,0,1-1-.32.73.73,0,0,1,.31-1l2.41-1.26a.74.74,0,0,1,1,.31.75.75,0,0,1-.31,1h0Z"/><path class="cls-52" d="M929.9,205.84l-2.29,1.41h0a.7.7,0,0,1-1-.23.69.69,0,0,1,.22-1l2.3-1.45a.71.71,0,0,1,.76,1.21h0Z"/><path class="cls-52" d="M922.42,210.74l-2.16,1.58h0a.65.65,0,1,1-.78-1.05l2.17-1.62a.66.66,0,0,1,.94.13.67.67,0,0,1-.14.94h0Z"/><path class="cls-52" d="M915.37,216.23l-2,1.76h0a.6.6,0,0,1-.79-.9l2-1.81a.62.62,0,0,1,.87.05.63.63,0,0,1-.05.87h0Z"/><path class="cls-52" d="M908.81,222.29l-1.87,1.93h0a.54.54,0,0,1-.77,0,.56.56,0,0,1,0-.77l1.86-2a.57.57,0,0,1,.8,0,.58.58,0,0,1,0,.8h0Z"/><path class="cls-52" d="M902.8,228.92,901.12,231h0a.48.48,0,0,1-.69.08.49.49,0,0,1-.08-.69l1.67-2.13a.51.51,0,0,1,.71-.09.52.52,0,0,1,.09.72h0Z"/><path class="cls-52" d="M897.43,236.07l-.31.47a.46.46,0,0,1-.63.13.45.45,0,0,1-.12-.62l.31-.48a.45.45,0,0,1,.63-.13.46.46,0,0,1,.13.63Z"/><rect class="cls-53" x="1036.01" y="389.91" width="44.57" height="8.28" transform="translate(-48.81 171.39) rotate(-9.05)"/><path class="cls-54" d="M1065.4,356.54l11,64.26a14,14,0,0,0,15.4,11.62L1307,405.78a14,14,0,0,0,12.14-15.34l-8.83-92.93a14,14,0,0,0-17.24-12.36l-217.41,55.31A14.07,14.07,0,0,0,1065.4,356.54Z"/><path class="cls-55" d="M1065.26,354.23l10.66,61.71a13.55,13.55,0,0,0,15,11.15l209.9-25.77a13.55,13.55,0,0,0,11.84-14.74l-8.53-89.25a13.56,13.56,0,0,0-16.8-11.86l-212,53.3A13.57,13.57,0,0,0,1065.26,354.23Z"/><path class="cls-56" d="M1089.45,416.92a3.27,3.27,0,0,1-3.42-2.72l-10.65-61.72a3.29,3.29,0,0,1,2.44-3.75l212-53.3a2.93,2.93,0,0,1,.64-.1,3.31,3.31,0,0,1,3.45,3l8.53,89.25a3.29,3.29,0,0,1-2.88,3.59l-209.9,25.76Z"/><path class="cls-57" d="M1152.09,366.37l24.07-4.08a3.7,3.7,0,0,0,3-4.21l-3.73-24.43a3.7,3.7,0,0,0-4.57-3l-23.79,6a3.7,3.7,0,0,0-2.76,4.16l3.46,22.51A3.71,3.71,0,0,0,1152.09,366.37Z"/><path class="cls-58" d="M1266.56,347l23-3.9a3.71,3.71,0,0,0,3.07-4l-3.24-33.86a3.7,3.7,0,0,0-4.59-3.24l-24.63,6.19a3.7,3.7,0,0,0-2.76,4.15l4.82,31.58A3.72,3.72,0,0,0,1266.56,347Z"/><path class="cls-59" d="M1117.64,372.2l19-3.22a3.72,3.72,0,0,0,3-4.22l-3.28-21.3a3.7,3.7,0,0,0-4.57-3l-19.48,4.9a3.69,3.69,0,0,0-2.74,4.28l3.71,19.62A3.71,3.71,0,0,0,1117.64,372.2Z"/><path class="cls-60" d="M1226.7,353.74l24.45-4.14a3.71,3.71,0,0,0,3-4.22L1249.56,315a3.71,3.71,0,0,0-4.57-3l-24.15,6.07a3.72,3.72,0,0,0-2.76,4.16l4.34,28.42A3.71,3.71,0,0,0,1226.7,353.74Z"/><path class="cls-61" d="M1191.57,359.69l19.72-3.34a3.71,3.71,0,0,0,3-4.22l-4.15-27.2a3.71,3.71,0,0,0-4.57-3l-19.49,4.9a3.71,3.71,0,0,0-2.76,4.16l3.91,25.64A3.72,3.72,0,0,0,1191.57,359.69Z"/><path class="cls-62" d="M1137.82,377.11l-18.51,3.13a3.72,3.72,0,0,0-3,4.35l3.78,19.92a3.7,3.7,0,0,0,4.09,3l17.94-2.2a3.72,3.72,0,0,0,3.22-4.25l-3.21-20.85A3.71,3.71,0,0,0,1137.82,377.11Z"/><path class="cls-63" d="M1103.9,382.85,1090,385.2a3.71,3.71,0,0,0-3,4.29l3.22,18.63a3.7,3.7,0,0,0,4.1,3.05l14.32-1.76a3.71,3.71,0,0,0,3.19-4.37l-3.64-19.22A3.71,3.71,0,0,0,1103.9,382.85Z"/><path class="cls-64" d="M1105.25,370.46l-3.49-18.41a3.71,3.71,0,0,0-4.55-2.91l-13.15,3.31a3.71,3.71,0,0,0-2.75,4.23l3,17.41a3.72,3.72,0,0,0,4.28,3l13.63-2.31A3.71,3.71,0,0,0,1105.25,370.46Z"/><path class="cls-65" d="M1264.63,359.35l4.09,26.78a3.72,3.72,0,0,0,4.12,3.12l20.75-2.55a3.7,3.7,0,0,0,3.24-4l-2.67-28a3.71,3.71,0,0,0-4.31-3.3l-22.17,3.75A3.72,3.72,0,0,0,1264.63,359.35Z"/><path class="cls-66" d="M1252.27,357.74l-24.44,4.14a3.69,3.69,0,0,0-3,4.21l3.81,25a3.7,3.7,0,0,0,4.12,3.12l24.61-3a3.71,3.71,0,0,0,3.22-4.24l-4-26.07A3.72,3.72,0,0,0,1252.27,357.74Z"/><path class="cls-67" d="M1177.28,370.43l-24,4.07a3.71,3.71,0,0,0-3,4.22l3.31,21.56a3.7,3.7,0,0,0,4.12,3.11l24.2-3a3.69,3.69,0,0,0,3.21-4.24l-3.46-22.65A3.71,3.71,0,0,0,1177.28,370.43Z"/><path class="cls-68" d="M1212.42,364.48l-19.73,3.34a3.72,3.72,0,0,0-3,4.22l3.57,23.36a3.71,3.71,0,0,0,4.12,3.12l19.86-2.44a3.71,3.71,0,0,0,3.22-4.24l-3.71-24.26A3.71,3.71,0,0,0,1212.42,364.48Z"/><rect class="cls-69" x="913.01" y="350.14" width="44.57" height="8.28" transform="translate(1266.95 1297.84) rotate(-130.11)"/><path class="cls-70" d="M954.45,321.25l-50.32,41.44a14,14,0,0,1-19.26-1.28L739.44,200.5a14,14,0,0,1,.85-19.54l67.44-64.53a14,14,0,0,1,21.13,1.92l128.32,184A14.09,14.09,0,0,1,954.45,321.25Z"/><path class="cls-71" d="M956.07,319.59l-48.42,39.73A13.57,13.57,0,0,1,889,357.94l-142-156.76a13.56,13.56,0,0,1,.68-18.9l64.81-61.94a13.56,13.56,0,0,1,20.47,2l125.56,179A13.57,13.57,0,0,1,956.07,319.59Z"/><path class="cls-72" d="M896.77,351.21a3.29,3.29,0,0,0,4.37.17l48.42-39.72a3.31,3.31,0,0,0,.6-4.44l-125.55-179a4.11,4.11,0,0,0-.42-.5,3.31,3.31,0,0,0-4.55,0L754.82,189.7a3.28,3.28,0,0,0-.17,4.59l142,156.76Z"/><path class="cls-73" d="M882.44,272l-15.55-18.82a3.7,3.7,0,0,1,.45-5.18l18.8-16a3.71,3.71,0,0,1,5.44.69l14.09,20.09a3.7,3.7,0,0,1-.63,4.95L887.7,272.46A3.71,3.71,0,0,1,882.44,272Z"/><path class="cls-74" d="M808.5,182.49l-14.88-18a3.71,3.71,0,0,1,.3-5l24.59-23.5a3.71,3.71,0,0,1,5.6.55l14.58,20.78a3.7,3.7,0,0,1-.63,5L813.77,183A3.71,3.71,0,0,1,808.5,182.49Z"/><path class="cls-75" d="M904.69,298.94l-12.3-14.89a3.71,3.71,0,0,1,.46-5.19l16.4-14a3.71,3.71,0,0,1,5.44.7L926.23,282a3.72,3.72,0,0,1-.73,5l-15.64,12.41A3.71,3.71,0,0,1,904.69,298.94Z"/><path class="cls-76" d="M834.24,213.65l-15.78-19.11a3.7,3.7,0,0,1,.45-5.18l23.36-19.94a3.71,3.71,0,0,1,5.44.69L862,190.5a3.7,3.7,0,0,1-.63,4.95l-21.87,18.66A3.71,3.71,0,0,1,834.24,213.65Z"/><path class="cls-77" d="M856.94,241.13,844.2,225.7a3.71,3.71,0,0,1,.45-5.18l20.93-17.86a3.7,3.7,0,0,1,5.44.69l11.54,16.45a3.71,3.71,0,0,1-.62,4.95l-19.73,16.84A3.71,3.71,0,0,1,856.94,241.13Z"/><path class="cls-78" d="M886.21,289.46l12,14.47a3.71,3.71,0,0,1-.56,5.27l-15.88,12.6a3.7,3.7,0,0,1-5.05-.41L864.54,308a3.7,3.7,0,0,1,.35-5.31L881,289A3.71,3.71,0,0,1,886.21,289.46Z"/><path class="cls-79" d="M908.12,316l9,10.86a3.69,3.69,0,0,1-.51,5.22l-14.61,12a3.71,3.71,0,0,1-5.1-.37L887.19,333a3.71,3.71,0,0,1,.44-5.4L903,315.44A3.71,3.71,0,0,1,908.12,316Z"/><path class="cls-80" d="M915.2,305.73l14.68-11.65a3.7,3.7,0,0,1,5.34.77L943,306a3.7,3.7,0,0,1-.68,5l-13.66,11.21a3.72,3.72,0,0,1-5.22-.5L914.65,311A3.69,3.69,0,0,1,915.2,305.73Z"/><path class="cls-81" d="M801.88,193.09l-20.61,17.59a3.7,3.7,0,0,1-5.15-.33l-14-15.5a3.71,3.71,0,0,1,.19-5.17l20.32-19.42a3.71,3.71,0,0,1,5.42.32l14.32,17.33A3.7,3.7,0,0,1,801.88,193.09Z"/><path class="cls-82" d="M812.29,200l15.78,19.12a3.71,3.71,0,0,1-.45,5.18l-19.2,16.39a3.71,3.71,0,0,1-5.16-.33l-16.65-18.38a3.71,3.71,0,0,1,.34-5.31L807,199.5A3.72,3.72,0,0,1,812.29,200Z"/><path class="cls-83" d="M860.72,258.6l15.54,18.81a3.72,3.72,0,0,1-.46,5.19l-16.6,14.14a3.7,3.7,0,0,1-5.15-.34l-16.37-18.07A3.71,3.71,0,0,1,838,273l17.44-14.88A3.71,3.71,0,0,1,860.72,258.6Z"/><path class="cls-84" d="M838,231.13l12.74,15.42a3.7,3.7,0,0,1-.45,5.18l-18,15.34a3.7,3.7,0,0,1-5.15-.33l-13.44-14.83a3.7,3.7,0,0,1,.35-5.31l18.66-15.93A3.71,3.71,0,0,1,838,231.13Z"/><rect class="cls-85" x="946.54" y="473.94" width="44.57" height="8.28" transform="translate(1761.69 -255.78) rotate(110.95)"/><path class="cls-86" d="M997.76,503l-61.14-22.62a14,14,0,0,0-17.76,7.53L834.3,687.63a14.05,14.05,0,0,0,7.22,18.18l84.89,38.81a14,14,0,0,0,19.33-8.75l60.8-215.93A14.09,14.09,0,0,0,997.76,503Z"/><path class="cls-87" d="M999.83,504l-58.77-21.63a13.55,13.55,0,0,0-17.16,7.43L841.26,684.48a13.56,13.56,0,0,0,6.85,17.63l81.56,37.24a13.56,13.56,0,0,0,18.67-8.62l59.85-210.27A13.56,13.56,0,0,0,999.83,504Z"/><path class="cls-88" d="M933.44,493.62a3.28,3.28,0,0,1,4.07-1.6l58.78,21.63a3.32,3.32,0,0,1,2,4L938.47,727.92a3.13,3.13,0,0,1-.24.6,3.31,3.31,0,0,1-4.3,1.49l-81.56-37.23a3.29,3.29,0,0,1-1.66-4.29l82.64-194.66Z"/><path class="cls-89" d="M945.91,573.15,937.4,596a3.69,3.69,0,0,0,2.13,4.74l23,9a3.72,3.72,0,0,0,4.92-2.44l6.72-23.6a3.72,3.72,0,0,0-2.23-4.48L950.73,571A3.71,3.71,0,0,0,945.91,573.15Z"/><path class="cls-90" d="M905.45,682l-8.14,21.9a3.7,3.7,0,0,0,1.93,4.66l31,14.13a3.7,3.7,0,0,0,5.11-2.36l7-24.41a3.71,3.71,0,0,0-2.22-4.47l-29.76-11.61A3.7,3.7,0,0,0,905.45,682Z"/><path class="cls-91" d="M958.08,540.39l-6.73,18.11a3.72,3.72,0,0,0,2.13,4.75l20.08,7.81a3.71,3.71,0,0,0,4.91-2.44l5.5-19.33a3.71,3.71,0,0,0-2.34-4.51l-18.85-6.59A3.71,3.71,0,0,0,958.08,540.39Z"/><path class="cls-92" d="M919.53,644.08l-8.63,23.24a3.7,3.7,0,0,0,2.12,4.74l28.61,11.17a3.72,3.72,0,0,0,4.92-2.44l6.81-23.95a3.69,3.69,0,0,0-2.22-4.47l-26.78-10.45A3.71,3.71,0,0,0,919.53,644.08Z"/><path class="cls-93" d="M932,610.68l-7,18.75a3.72,3.72,0,0,0,2.13,4.75l25.64,10a3.71,3.71,0,0,0,4.91-2.44l5.5-19.33a3.72,3.72,0,0,0-2.22-4.47l-24.16-9.43A3.72,3.72,0,0,0,932,610.68Z"/><path class="cls-94" d="M943.74,555.41l6.54-17.59A3.7,3.7,0,0,0,948,533l-19.14-6.7a3.72,3.72,0,0,0-4.64,2L917.19,545a3.71,3.71,0,0,0,2.07,4.91l19.66,7.65A3.71,3.71,0,0,0,943.74,555.41Z"/><path class="cls-95" d="M955.73,523.17l4.9-13.2a3.71,3.71,0,0,0-2.19-4.78l-17.74-6.53a3.7,3.7,0,0,0-4.69,2L930.37,514a3.71,3.71,0,0,0,2.19,4.95L951,525.38A3.72,3.72,0,0,0,955.73,523.17Z"/><path class="cls-96" d="M965.78,530.54l17.69,6.18a3.7,3.7,0,0,0,4.79-2.48l3.71-13a3.71,3.71,0,0,0-2.28-4.5l-16.58-6.1a3.7,3.7,0,0,0-4.76,2.19l-4.82,13A3.72,3.72,0,0,0,965.78,530.54Z"/><path class="cls-97" d="M895.71,674.12l-25.23-9.84a3.72,3.72,0,0,0-4.77,2l-8.17,19.25a3.71,3.71,0,0,0,1.88,4.82L885,702a3.72,3.72,0,0,0,5-2.09l7.83-21.07A3.71,3.71,0,0,0,895.71,674.12Z"/><path class="cls-98" d="M903.29,664.22,911.93,641a3.71,3.71,0,0,0-2.13-4.74l-23.52-9.18a3.72,3.72,0,0,0-4.77,2l-9.69,22.83a3.71,3.71,0,0,0,2.07,4.9l24.57,9.59A3.71,3.71,0,0,0,903.29,664.22Z"/><path class="cls-99" d="M929.79,592.93l8.5-22.87a3.7,3.7,0,0,0-2.13-4.74l-20.32-7.91a3.7,3.7,0,0,0-4.76,2l-9.53,22.44a3.7,3.7,0,0,0,2.07,4.9L925,595.09A3.7,3.7,0,0,0,929.79,592.93Z"/><path class="cls-100" d="M917.37,626.33l7-18.75a3.71,3.71,0,0,0-2.12-4.75l-22-8.59a3.72,3.72,0,0,0-4.76,2l-7.82,18.42a3.72,3.72,0,0,0,2.07,4.91l22.86,8.92A3.71,3.71,0,0,0,917.37,626.33Z"/><path class="cls-101" d="M924.61,378.09,971,343.32a7.92,7.92,0,0,1,6.8-1.32l59.17,15.72a7.92,7.92,0,0,1,5.86,6.92l6.35,67a7.92,7.92,0,0,1-2.8,6.82l-37.72,31.67a8,8,0,0,1-6.33,1.76l-66.44-10.4a7.92,7.92,0,0,1-6.65-7l-7.72-69.2A8,8,0,0,1,924.61,378.09Z"/><path class="cls-102" d="M928,378.71l43-32.24a7.37,7.37,0,0,1,6.31-1.22l54.85,14.57a7.35,7.35,0,0,1,5.44,6.42l5.88,62.1a7.34,7.34,0,0,1-2.59,6.32l-35,29.36a7.32,7.32,0,0,1-5.86,1.63L938.41,456a7.35,7.35,0,0,1-6.18-6.45l-7.14-64.15A7.35,7.35,0,0,1,928,378.71Z"/><circle class="cls-103" cx="984.69" cy="405.86" r="45.69" transform="translate(-54.4 639.6) rotate(-35.08)"/><path class="cls-104" d="M649.91,559.94s-2.8,11.45-2.8,17c0,0-11.66-2.74-19.39-8.85,0,0-13.72,5.81-23.62,3.58a3.65,3.65,0,0,1-1.35-6.46c4.86-3.68,12.76-9.22,19.35-11.73C632.42,549.55,636.64,556.22,649.91,559.94Z"/><path class="cls-105" d="M795.9,488.79a132.71,132.71,0,0,0,37.88-24.94c17.51-16.78,19.55-20.86,27.58-18s2.64,19.78-13.91,35.25S804.41,513,794,515.41,795.9,488.79,795.9,488.79Z"/><path class="cls-106" d="M654.68,589.81c0,.51-28,13.29-31,15.42s-7.61,23.13-7.51,29.42,2.74,8.62,7.1,3.24,12-21.71,12-21.71,22.93-6.79,29.62-6.89S654.68,589.81,654.68,589.81Z"/><path class="cls-107" d="M722.84,551.26C722,552,668,581,655.57,587.65a6.42,6.42,0,0,0-3.33,4.62c-.74,4.58-.53,12.82,9,17.11a9.48,9.48,0,0,0,8-.17C682,603,726.1,580.85,747,564.45,771.53,545.18,722.84,551.26,722.84,551.26Z"/><path class="cls-108" d="M696.9,596.45c4.2-1.87,13-5.93,18.38-9.51a2,2,0,0,0,0-3.37,13.43,13.43,0,0,0-14.11-.22c-6.19,3.34-7.16,8.25-7.06,11.32A2,2,0,0,0,696.9,596.45Z"/><path class="cls-109" d="M756.92,481.9s34.46,0,46.28,3.09c0,0,8.87,40.4-57.82,80.81,0,0-12.48-6.46-19.49-4.38s-34.61,19.06-47.53,19.5-30.44,0-33.29-5.7-1.86-17,7.89-16.21,55.52-3.17,87.38-49.71Z"/><path class="cls-110" d="M693.93,577.49c-4.13,1.59-13.15,4.71-20.26,4.7a2.1,2.1,0,0,1-2-2.8,12.09,12.09,0,0,1,8.13-7.66c8.81-2.9,13.1.1,15,2.51A2.09,2.09,0,0,1,693.93,577.49Z"/><path class="cls-111" d="M768.7,529.18c9.93-23.13,8.45-41.81,7.78-46.85-5.55-.22-10.72-.33-14.35-.38a7.59,7.59,0,0,0,.11,1.64c0,.2,2.9,17.49-6.59,39.8a3.56,3.56,0,0,1-5.11,1.64A67,67,0,0,1,737,514.25l-.12-.16a122.93,122.93,0,0,1-9.31,11c.62.64,1.35,1.34,2.23,2.14a85.57,85.57,0,0,0,11.24,8.67,94.34,94.34,0,0,0,28.76,12.51,133.19,133.19,0,0,0,12.66-12.19A77.58,77.58,0,0,1,771,534,3.54,3.54,0,0,1,768.7,529.18Z"/><path class="cls-112" d="M794.8,488s13.06,10.87-12.64,48.14c0,0,26.56-22.9,21.24-51s1.2.69,1.2.69Z"/><path class="cls-113" d="M812.81,463.84c0,16.19-13.66,29.3-30.46,29.27S751.94,480,752,463.75s13.7-28.15,30.46-29.27C804.69,433,812.83,447.65,812.81,463.84Z"/><path class="cls-3" d="M774.23,454.27c-6.68,8-6,20.35,5.16,29.09,6.36,5,16.84,3.35,24.66,1a28.73,28.73,0,0,0,8.76-20.54c0-9.28-2.66-18-9.12-23.56C794.38,442.72,780,447.43,774.23,454.27Z"/><g class="cls-114"><path class="cls-115" d="M783.72,467.08c0,.24-6.3,12.34-7.46,16.85a3.44,3.44,0,0,0,1.09,3.51c2.1,1.79,6.28,4.12,12.4,1.91a3.36,3.36,0,0,0,2.21-3.13l3.5-17.38Z"/><path class="cls-116" d="M796.55,451s4.6,10.55,4.9,16.09,1.51,9.13-4.9,10.25-11.79-2.08-14.72-7.59c0,0-4.57-8.5-3.55-12S796.55,451,796.55,451Z"/><path class="cls-117" d="M784,465.8l.37-.16a.89.89,0,0,0,.43-1.21c-.91-1.74-2.67-5.74-.39-6.67,2.93-1.2,14.53-3.57,17-7.69,2.41-4,.27-9.07-2.93-10.52a.44.44,0,0,0-.58.19l-.27.5a.43.43,0,0,1-.8-.08h0a.43.43,0,0,0-.78-.11c-.77,1.23-2.85,3.23-8.41,4.25-7.9,1.46-13.12,4.66-13.25,10.11a.43.43,0,0,1-.67.36c-.59-.35-1.52-.52-2.77.53-2.17,1.82-1.28,6.56,3.48,10.45a.44.44,0,0,1,0,.7c-.87.56-2.15,1.89,1.18,3.67a11.26,11.26,0,0,0,7,1.53.44.44,0,0,0,.35-.52l-1.06-4.8a.44.44,0,0,1,.42-.53Z"/><path class="cls-118" d="M784.22,466.81s-1.75-6.74-4.77-4.85,1.56,7.55,4,7.81Z"/></g><path class="cls-50" d="M805,485.25a1.24,1.24,0,0,1-.63.41c-8,2.39-19,4.12-25.81-1.23-5.73-4.51-9.23-10.37-9.85-16.5a19.4,19.4,0,0,1,4.48-14.51l0,0c5.77-6.89,19.56-11.65,30.11-14.42a1.31,1.31,0,0,1,1.59,1,1.33,1.33,0,0,1-.94,1.62c-8.34,2.2-23.18,6.87-28.79,13.57v0a16.74,16.74,0,0,0-3.87,12.5c.55,5.39,3.69,10.59,8.84,14.64,6,4.67,16.06,3,23.51.79a1.3,1.3,0,0,1,1.61.91A1.38,1.38,0,0,1,805,485.25Z"/><path class="cls-51" d="M805.2,476.94a31.34,31.34,0,0,0-.2-27.88,5,5,0,0,0-5.34-2.69,31.7,31.7,0,0,0-10.82,4.42,5.23,5.23,0,0,0-.14,8.78c6.81,4.41,11.93,10,14.61,17.28A1,1,0,0,0,805.2,476.94Z"/><path class="cls-119" d="M856,444.17s12.16-19.37,14.71-23.5,4.12,2.55,2.13,5.42-3.64,6.63-2.38,7.18,5.38,3.09.3,11.34S856.34,450.29,856,444.17Z"/><path class="cls-120" d="M757,482s-36.38-5.38-56.1,11.91c-17,14.9-7.88,34.88,2.64,43.8a7.07,7.07,0,0,0,9.46-.39l4.58-4.42a7.07,7.07,0,0,0,.62-9.55c-2.85-3.47-5.4-8.43-2.19-13s19.81-5.45,26.14-5.67a5.9,5.9,0,0,0,4.21-2C750.08,498.57,758.17,488.56,757,482Z"/><path class="cls-121" d="M717.32,527.86l15.4,7.51,2.7,9.07a2,2,0,0,1-2.5,2.45,13.08,13.08,0,0,1-6.49-4.27c-3.36-4.45-14.37-4.73-15.7-10.57S717.32,527.86,717.32,527.86Z"/></g></g></svg>